<svg width="28" height="264" viewBox="0 0 28 264" fill="none" xmlns="http://www.w3.org/2000/svg">
<path d="M7.46484 254.137C7.46484 254.542 7.38737 254.925 7.23242 255.285C7.07747 255.641 6.86556 255.953 6.59668 256.222C6.33236 256.486 6.02246 256.696 5.66699 256.851C5.31152 257.006 4.93099 257.083 4.52539 257.083H3.54102C3.4043 257.083 3.27669 257.108 3.1582 257.158C3.03971 257.208 2.9349 257.279 2.84375 257.37C2.75716 257.457 2.6888 257.559 2.63867 257.678C2.58854 257.796 2.56348 257.924 2.56348 258.061V259.038H7.19824V261H0.601562V258.061C0.601562 257.655 0.679036 257.274 0.833984 256.919C0.988932 256.559 1.19857 256.247 1.46289 255.982C1.73177 255.714 2.04395 255.504 2.39941 255.354C2.75488 255.199 3.13542 255.121 3.54102 255.121H4.52539C4.66211 255.121 4.78971 255.096 4.9082 255.046C5.02669 254.996 5.12923 254.927 5.21582 254.841C5.30697 254.75 5.3776 254.645 5.42773 254.526C5.47786 254.403 5.50293 254.273 5.50293 254.137C5.50293 254 5.47786 253.872 5.42773 253.754C5.3776 253.635 5.30697 253.533 5.21582 253.446C5.12923 253.355 5.02669 253.285 4.9082 253.234C4.78971 253.184 4.66211 253.159 4.52539 253.159H1.02539V251.197H4.52539C4.93099 251.197 5.31152 251.275 5.66699 251.43C6.02246 251.585 6.33236 251.797 6.59668 252.065C6.86556 252.33 7.07747 252.64 7.23242 252.995C7.38737 253.351 7.46484 253.731 7.46484 254.137ZM13.0225 261H11.0674V253.159H8.12109V251.197H15.9619V253.159H13.0225V261ZM18.9629 261H17.001V251.197H18.9629V255.121H22.8799V251.197H24.8418V261H22.8799V257.083H18.9629V261Z" fill="#8BA2BD"/>
<path d="M7.71094 196.917C7.71094 197.396 7.62663 197.826 7.45801 198.209C7.28939 198.592 7.0638 198.915 6.78125 199.18C6.4987 199.444 6.17057 199.647 5.79688 199.788C5.42773 199.929 5.04036 200 4.63477 200H0.683594V198.038H4.63477C4.76693 198.038 4.89909 198.018 5.03125 197.977C5.16797 197.936 5.28874 197.869 5.39355 197.778C5.50293 197.687 5.58952 197.571 5.65332 197.43C5.72168 197.288 5.75586 197.118 5.75586 196.917C5.75586 196.735 5.72168 196.575 5.65332 196.438C5.58952 196.297 5.50293 196.181 5.39355 196.09C5.28874 195.994 5.16797 195.924 5.03125 195.878C4.89909 195.828 4.76693 195.803 4.63477 195.803H0.683594L1.25781 190.197H7.30762V192.159H3.02148L2.84375 193.841H4.63477C5.04036 193.841 5.42773 193.911 5.79688 194.053C6.17057 194.194 6.4987 194.399 6.78125 194.668C7.0638 194.932 7.28939 195.256 7.45801 195.639C7.62663 196.017 7.71094 196.443 7.71094 196.917ZM13.2275 200H11.2725V192.159H8.32617V190.197H16.167V192.159H13.2275V200ZM19.168 200H17.2061V190.197H19.168V194.121H23.085V190.197H25.0469V200H23.085V196.083H19.168V200Z" fill="#8BA2BD"/>
<path d="M3.47266 138H1.51074V130.159H0.533203V128.197H3.47266V138ZM15.0938 138H13.1387V131C13.1387 130.863 13.1113 130.736 13.0566 130.617C13.0065 130.499 12.9359 130.396 12.8447 130.31C12.7581 130.218 12.6556 130.148 12.5371 130.098C12.4186 130.048 12.291 130.022 12.1543 130.022C12.0176 130.022 11.89 130.048 11.7715 130.098C11.653 130.148 11.5482 130.218 11.457 130.31C11.3704 130.396 11.3021 130.499 11.252 130.617C11.2018 130.736 11.1768 130.863 11.1768 131V138H9.21484V131C9.21484 130.863 9.18978 130.736 9.13965 130.617C9.08952 130.499 9.01888 130.396 8.92773 130.31C8.84115 130.218 8.73861 130.148 8.62012 130.098C8.50163 130.048 8.37402 130.022 8.2373 130.022C8.10059 130.022 7.97298 130.048 7.85449 130.098C7.736 130.148 7.63118 130.218 7.54004 130.31C7.45345 130.396 7.38509 130.499 7.33496 130.617C7.28483 130.736 7.25977 130.863 7.25977 131V138H5.29785V131C5.29785 130.594 5.37305 130.214 5.52344 129.858C5.67839 129.498 5.88802 129.186 6.15234 128.922C6.42122 128.653 6.7334 128.443 7.08887 128.293C7.44889 128.138 7.83171 128.061 8.2373 128.061C8.60189 128.061 8.9528 128.127 9.29004 128.259C9.62728 128.386 9.93034 128.573 10.1992 128.819C10.4681 128.573 10.7689 128.386 11.1016 128.259C11.4388 128.127 11.7897 128.061 12.1543 128.061C12.5599 128.061 12.9404 128.138 13.2959 128.293C13.6559 128.443 13.9681 128.653 14.2324 128.922C14.5013 129.186 14.7109 129.498 14.8613 129.858C15.0163 130.214 15.0938 130.594 15.0938 131V138Z" fill="#8BA2BD"/>
<path d="M3.47266 76H1.51074V68.1592H0.533203V66.1973H3.47266V76ZM7.46484 75.3027C7.46484 75.4668 7.43522 75.6217 7.37598 75.7676C7.31673 75.9089 7.2347 76.0319 7.12988 76.1367C7.02507 76.2415 6.90202 76.3236 6.76074 76.3828C6.61947 76.4466 6.4668 76.4785 6.30273 76.4785C6.14323 76.4785 5.99056 76.4466 5.84473 76.3828C5.70345 76.3236 5.57812 76.2415 5.46875 76.1367C5.36393 76.0319 5.27962 75.9089 5.21582 75.7676C5.15658 75.6217 5.12695 75.4668 5.12695 75.3027C5.12695 75.1432 5.15658 74.9928 5.21582 74.8516C5.27962 74.7103 5.36393 74.5872 5.46875 74.4824C5.57812 74.3776 5.70345 74.2956 5.84473 74.2363C5.99056 74.1725 6.14323 74.1406 6.30273 74.1406C6.4668 74.1406 6.61947 74.1725 6.76074 74.2363C6.90202 74.2956 7.02507 74.3776 7.12988 74.4824C7.2347 74.5872 7.31673 74.7103 7.37598 74.8516C7.43522 74.9928 7.46484 75.1432 7.46484 75.3027ZM15.8594 72.917C15.8594 73.3955 15.7751 73.8262 15.6064 74.209C15.4378 74.5918 15.2122 74.9154 14.9297 75.1797C14.6471 75.444 14.319 75.6468 13.9453 75.7881C13.5762 75.9294 13.1888 76 12.7832 76H8.83203V74.0381H12.7832C12.9154 74.0381 13.0475 74.0176 13.1797 73.9766C13.3164 73.9355 13.4372 73.8695 13.542 73.7783C13.6514 73.6872 13.738 73.571 13.8018 73.4297C13.8701 73.2884 13.9043 73.1175 13.9043 72.917C13.9043 72.7347 13.8701 72.5752 13.8018 72.4385C13.738 72.2972 13.6514 72.181 13.542 72.0898C13.4372 71.9941 13.3164 71.9235 13.1797 71.8779C13.0475 71.8278 12.9154 71.8027 12.7832 71.8027H8.83203L9.40625 66.1973H15.4561V68.1592H11.1699L10.9922 69.8408H12.7832C13.1888 69.8408 13.5762 69.9115 13.9453 70.0527C14.319 70.194 14.6471 70.3991 14.9297 70.668C15.2122 70.9323 15.4378 71.2559 15.6064 71.6387C15.7751 72.0169 15.8594 72.443 15.8594 72.917ZM26.9883 76H25.0332V69C25.0332 68.8633 25.0059 68.7357 24.9512 68.6172C24.901 68.4987 24.8304 68.3962 24.7393 68.3096C24.6527 68.2184 24.5501 68.1478 24.4316 68.0977C24.3132 68.0475 24.1855 68.0225 24.0488 68.0225C23.9121 68.0225 23.7845 68.0475 23.666 68.0977C23.5475 68.1478 23.4427 68.2184 23.3516 68.3096C23.265 68.3962 23.1966 68.4987 23.1465 68.6172C23.0964 68.7357 23.0713 68.8633 23.0713 69V76H21.1094V69C21.1094 68.8633 21.0843 68.7357 21.0342 68.6172C20.984 68.4987 20.9134 68.3962 20.8223 68.3096C20.7357 68.2184 20.6331 68.1478 20.5146 68.0977C20.3962 68.0475 20.2686 68.0225 20.1318 68.0225C19.9951 68.0225 19.8675 68.0475 19.749 68.0977C19.6305 68.1478 19.5257 68.2184 19.4346 68.3096C19.348 68.3962 19.2796 68.4987 19.2295 68.6172C19.1794 68.7357 19.1543 68.8633 19.1543 69V76H17.1924V69C17.1924 68.5944 17.2676 68.2139 17.418 67.8584C17.5729 67.4984 17.7826 67.1862 18.0469 66.9219C18.3158 66.653 18.6279 66.4434 18.9834 66.293C19.3434 66.138 19.7262 66.0605 20.1318 66.0605C20.4964 66.0605 20.8473 66.1266 21.1846 66.2588C21.5218 66.3864 21.8249 66.5732 22.0938 66.8193C22.3626 66.5732 22.6634 66.3864 22.9961 66.2588C23.3333 66.1266 23.6842 66.0605 24.0488 66.0605C24.4544 66.0605 24.835 66.138 25.1904 66.293C25.5505 66.4434 25.8626 66.653 26.127 66.9219C26.3958 67.1862 26.6055 67.4984 26.7559 67.8584C26.9108 68.2139 26.9883 68.5944 26.9883 69V76Z" fill="#8BA2BD"/>
<path d="M7.46484 7.13672C7.46484 7.54232 7.38737 7.92513 7.23242 8.28516C7.07747 8.64062 6.86556 8.9528 6.59668 9.22168C6.33236 9.486 6.02246 9.69564 5.66699 9.85059C5.31152 10.0055 4.93099 10.083 4.52539 10.083H3.54102C3.4043 10.083 3.27669 10.1081 3.1582 10.1582C3.03971 10.2083 2.9349 10.279 2.84375 10.3701C2.75716 10.4567 2.6888 10.5592 2.63867 10.6777C2.58854 10.7962 2.56348 10.9238 2.56348 11.0605V12.0381H7.19824V14H0.601562V11.0605C0.601562 10.6549 0.679036 10.2744 0.833984 9.91895C0.988932 9.55892 1.19857 9.24674 1.46289 8.98242C1.73177 8.71354 2.04395 8.50391 2.39941 8.35352C2.75488 8.19857 3.13542 8.12109 3.54102 8.12109H4.52539C4.66211 8.12109 4.78971 8.09603 4.9082 8.0459C5.02669 7.99577 5.12923 7.92741 5.21582 7.84082C5.30697 7.74967 5.3776 7.64486 5.42773 7.52637C5.47786 7.40332 5.50293 7.27344 5.50293 7.13672C5.50293 7 5.47786 6.8724 5.42773 6.75391C5.3776 6.63542 5.30697 6.53288 5.21582 6.44629C5.12923 6.35514 5.02669 6.28451 4.9082 6.23438C4.78971 6.18424 4.66211 6.15918 4.52539 6.15918H1.02539V4.19727H4.52539C4.93099 4.19727 5.31152 4.27474 5.66699 4.42969C6.02246 4.58464 6.33236 4.79655 6.59668 5.06543C6.86556 5.32975 7.07747 5.63965 7.23242 5.99512C7.38737 6.35059 7.46484 6.73112 7.46484 7.13672ZM18.6348 14H16.6797V7C16.6797 6.86328 16.6523 6.73568 16.5977 6.61719C16.5475 6.4987 16.4769 6.39616 16.3857 6.30957C16.2992 6.21842 16.1966 6.14779 16.0781 6.09766C15.9596 6.04753 15.832 6.02246 15.6953 6.02246C15.5586 6.02246 15.431 6.04753 15.3125 6.09766C15.194 6.14779 15.0892 6.21842 14.998 6.30957C14.9115 6.39616 14.8431 6.4987 14.793 6.61719C14.7428 6.73568 14.7178 6.86328 14.7178 7V14H12.7559V7C12.7559 6.86328 12.7308 6.73568 12.6807 6.61719C12.6305 6.4987 12.5599 6.39616 12.4688 6.30957C12.3822 6.21842 12.2796 6.14779 12.1611 6.09766C12.0426 6.04753 11.915 6.02246 11.7783 6.02246C11.6416 6.02246 11.514 6.04753 11.3955 6.09766C11.277 6.14779 11.1722 6.21842 11.0811 6.30957C10.9945 6.39616 10.9261 6.4987 10.876 6.61719C10.8258 6.73568 10.8008 6.86328 10.8008 7V14H8.83887V7C8.83887 6.5944 8.91406 6.21387 9.06445 5.8584C9.2194 5.49837 9.42904 5.1862 9.69336 4.92188C9.96224 4.65299 10.2744 4.44336 10.6299 4.29297C10.9899 4.13802 11.3727 4.06055 11.7783 4.06055C12.1429 4.06055 12.4938 4.12663 12.8311 4.25879C13.1683 4.38639 13.4714 4.57324 13.7402 4.81934C14.0091 4.57324 14.3099 4.38639 14.6426 4.25879C14.9798 4.12663 15.3307 4.06055 15.6953 4.06055C16.1009 4.06055 16.4814 4.13802 16.8369 4.29297C17.1969 4.44336 17.5091 4.65299 17.7734 4.92188C18.0423 5.1862 18.252 5.49837 18.4023 5.8584C18.5573 6.21387 18.6348 6.5944 18.6348 7V14Z" fill="#8BA2BD"/>
</svg>
