<svg width="33" height="264" viewBox="0 0 33 264" fill="none" xmlns="http://www.w3.org/2000/svg">
<path d="M6.54883 256.099C6.54883 255.009 6.36654 254.201 6.00195 253.672C5.64193 253.143 5.13835 252.879 4.49121 252.879C3.84863 252.879 3.34961 253.141 2.99414 253.665C2.63867 254.189 2.46094 255 2.46094 256.099C2.46094 257.188 2.63867 257.997 2.99414 258.525C3.34961 259.054 3.84863 259.318 4.49121 259.318C4.81478 259.318 5.10417 259.255 5.35938 259.127C5.61458 258.995 5.82878 258.797 6.00195 258.532C6.17969 258.268 6.31413 257.935 6.40527 257.534C6.50098 257.129 6.54883 256.65 6.54883 256.099ZM8.41504 256.099C8.41504 257.028 8.3125 257.814 8.10742 258.457C7.90234 259.1 7.62207 259.619 7.2666 260.016C6.91113 260.412 6.49414 260.699 6.01562 260.877C5.54167 261.05 5.03353 261.137 4.49121 261.137C3.94889 261.137 3.43848 261.048 2.95996 260.87C2.486 260.688 2.07129 260.398 1.71582 260.002C1.36491 259.601 1.08691 259.081 0.881836 258.443C0.676758 257.801 0.574219 257.019 0.574219 256.099C0.574219 255.169 0.676758 254.385 0.881836 253.747C1.08691 253.104 1.36491 252.585 1.71582 252.188C2.07129 251.792 2.486 251.505 2.95996 251.327C3.43848 251.149 3.94889 251.061 4.49121 251.061C5.03353 251.061 5.54167 251.152 6.01562 251.334C6.49414 251.512 6.91113 251.801 7.2666 252.202C7.62207 252.603 7.90234 253.123 8.10742 253.761C8.3125 254.399 8.41504 255.178 8.41504 256.099ZM12.0039 260.303C12.0039 260.467 11.9743 260.622 11.915 260.768C11.8558 260.909 11.7738 261.032 11.6689 261.137C11.5641 261.242 11.4411 261.324 11.2998 261.383C11.1585 261.447 11.0059 261.479 10.8418 261.479C10.6823 261.479 10.5296 261.447 10.3838 261.383C10.2425 261.324 10.1172 261.242 10.0078 261.137C9.90299 261.032 9.81868 260.909 9.75488 260.768C9.69564 260.622 9.66602 260.467 9.66602 260.303C9.66602 260.143 9.69564 259.993 9.75488 259.852C9.81868 259.71 9.90299 259.587 10.0078 259.482C10.1172 259.378 10.2425 259.296 10.3838 259.236C10.5296 259.173 10.6823 259.141 10.8418 259.141C11.0059 259.141 11.1585 259.173 11.2998 259.236C11.4411 259.296 11.5641 259.378 11.6689 259.482C11.7738 259.587 11.8558 259.71 11.915 259.852C11.9743 259.993 12.0039 260.143 12.0039 260.303ZM20.3984 257.917C20.3984 258.396 20.3141 258.826 20.1455 259.209C19.9769 259.592 19.7513 259.915 19.4688 260.18C19.1862 260.444 18.8581 260.647 18.4844 260.788C18.1152 260.929 17.7279 261 17.3223 261H13.3711V259.038H17.3223C17.4544 259.038 17.5866 259.018 17.7188 258.977C17.8555 258.936 17.9762 258.869 18.0811 258.778C18.1904 258.687 18.277 258.571 18.3408 258.43C18.4092 258.288 18.4434 258.118 18.4434 257.917C18.4434 257.735 18.4092 257.575 18.3408 257.438C18.277 257.297 18.1904 257.181 18.0811 257.09C17.9762 256.994 17.8555 256.924 17.7188 256.878C17.5866 256.828 17.4544 256.803 17.3223 256.803H13.3711L13.9453 251.197H19.9951V253.159H15.709L15.5312 254.841H17.3223C17.7279 254.841 18.1152 254.911 18.4844 255.053C18.8581 255.194 19.1862 255.399 19.4688 255.668C19.7513 255.932 19.9769 256.256 20.1455 256.639C20.3141 257.017 20.3984 257.443 20.3984 257.917ZM31.5273 261H29.5723V254C29.5723 253.863 29.5449 253.736 29.4902 253.617C29.4401 253.499 29.3695 253.396 29.2783 253.31C29.1917 253.218 29.0892 253.148 28.9707 253.098C28.8522 253.048 28.7246 253.022 28.5879 253.022C28.4512 253.022 28.3236 253.048 28.2051 253.098C28.0866 253.148 27.9818 253.218 27.8906 253.31C27.804 253.396 27.7357 253.499 27.6855 253.617C27.6354 253.736 27.6104 253.863 27.6104 254V261H25.6484V254C25.6484 253.863 25.6234 253.736 25.5732 253.617C25.5231 253.499 25.4525 253.396 25.3613 253.31C25.2747 253.218 25.1722 253.148 25.0537 253.098C24.9352 253.048 24.8076 253.022 24.6709 253.022C24.5342 253.022 24.4066 253.048 24.2881 253.098C24.1696 253.148 24.0648 253.218 23.9736 253.31C23.887 253.396 23.8187 253.499 23.7686 253.617C23.7184 253.736 23.6934 253.863 23.6934 254V261H21.7314V254C21.7314 253.594 21.8066 253.214 21.957 252.858C22.112 252.498 22.3216 252.186 22.5859 251.922C22.8548 251.653 23.167 251.443 23.5225 251.293C23.8825 251.138 24.2653 251.061 24.6709 251.061C25.0355 251.061 25.3864 251.127 25.7236 251.259C26.0609 251.386 26.3639 251.573 26.6328 251.819C26.9017 251.573 27.2025 251.386 27.5352 251.259C27.8724 251.127 28.2233 251.061 28.5879 251.061C28.9935 251.061 29.374 251.138 29.7295 251.293C30.0895 251.443 30.4017 251.653 30.666 251.922C30.9349 252.186 31.1445 252.498 31.2949 252.858C31.4499 253.214 31.5273 253.594 31.5273 254V261Z" fill="#69B070"/>
<path d="M3.47266 200H1.51074V192.159H0.533203V190.197H3.47266V200ZM15.0938 200H13.1387V193C13.1387 192.863 13.1113 192.736 13.0566 192.617C13.0065 192.499 12.9359 192.396 12.8447 192.31C12.7581 192.218 12.6556 192.148 12.5371 192.098C12.4186 192.048 12.291 192.022 12.1543 192.022C12.0176 192.022 11.89 192.048 11.7715 192.098C11.653 192.148 11.5482 192.218 11.457 192.31C11.3704 192.396 11.3021 192.499 11.252 192.617C11.2018 192.736 11.1768 192.863 11.1768 193V200H9.21484V193C9.21484 192.863 9.18978 192.736 9.13965 192.617C9.08952 192.499 9.01888 192.396 8.92773 192.31C8.84115 192.218 8.73861 192.148 8.62012 192.098C8.50163 192.048 8.37402 192.022 8.2373 192.022C8.10059 192.022 7.97298 192.048 7.85449 192.098C7.736 192.148 7.63118 192.218 7.54004 192.31C7.45345 192.396 7.38509 192.499 7.33496 192.617C7.28483 192.736 7.25977 192.863 7.25977 193V200H5.29785V193C5.29785 192.594 5.37305 192.214 5.52344 191.858C5.67839 191.498 5.88802 191.186 6.15234 190.922C6.42122 190.653 6.7334 190.443 7.08887 190.293C7.44889 190.138 7.83171 190.061 8.2373 190.061C8.60189 190.061 8.9528 190.127 9.29004 190.259C9.62728 190.386 9.93034 190.573 10.1992 190.819C10.4681 190.573 10.7689 190.386 11.1016 190.259C11.4388 190.127 11.7897 190.061 12.1543 190.061C12.5599 190.061 12.9404 190.138 13.2959 190.293C13.6559 190.443 13.9681 190.653 14.2324 190.922C14.5013 191.186 14.7109 191.498 14.8613 191.858C15.0163 192.214 15.0938 192.594 15.0938 193V200Z" fill="#69B070"/>
<path d="M7.46484 131.137C7.46484 131.542 7.38737 131.925 7.23242 132.285C7.07747 132.641 6.86556 132.953 6.59668 133.222C6.33236 133.486 6.02246 133.696 5.66699 133.851C5.31152 134.006 4.93099 134.083 4.52539 134.083H3.54102C3.4043 134.083 3.27669 134.108 3.1582 134.158C3.03971 134.208 2.9349 134.279 2.84375 134.37C2.75716 134.457 2.6888 134.559 2.63867 134.678C2.58854 134.796 2.56348 134.924 2.56348 135.061V136.038H7.19824V138H0.601562V135.061C0.601562 134.655 0.679036 134.274 0.833984 133.919C0.988932 133.559 1.19857 133.247 1.46289 132.982C1.73177 132.714 2.04395 132.504 2.39941 132.354C2.75488 132.199 3.13542 132.121 3.54102 132.121H4.52539C4.66211 132.121 4.78971 132.096 4.9082 132.046C5.02669 131.996 5.12923 131.927 5.21582 131.841C5.30697 131.75 5.3776 131.645 5.42773 131.526C5.47786 131.403 5.50293 131.273 5.50293 131.137C5.50293 131 5.47786 130.872 5.42773 130.754C5.3776 130.635 5.30697 130.533 5.21582 130.446C5.12923 130.355 5.02669 130.285 4.9082 130.234C4.78971 130.184 4.66211 130.159 4.52539 130.159H1.02539V128.197H4.52539C4.93099 128.197 5.31152 128.275 5.66699 128.43C6.02246 128.585 6.33236 128.797 6.59668 129.065C6.86556 129.33 7.07747 129.64 7.23242 129.995C7.38737 130.351 7.46484 130.731 7.46484 131.137ZM18.6348 138H16.6797V131C16.6797 130.863 16.6523 130.736 16.5977 130.617C16.5475 130.499 16.4769 130.396 16.3857 130.31C16.2992 130.218 16.1966 130.148 16.0781 130.098C15.9596 130.048 15.832 130.022 15.6953 130.022C15.5586 130.022 15.431 130.048 15.3125 130.098C15.194 130.148 15.0892 130.218 14.998 130.31C14.9115 130.396 14.8431 130.499 14.793 130.617C14.7428 130.736 14.7178 130.863 14.7178 131V138H12.7559V131C12.7559 130.863 12.7308 130.736 12.6807 130.617C12.6305 130.499 12.5599 130.396 12.4688 130.31C12.3822 130.218 12.2796 130.148 12.1611 130.098C12.0426 130.048 11.915 130.022 11.7783 130.022C11.6416 130.022 11.514 130.048 11.3955 130.098C11.277 130.148 11.1722 130.218 11.0811 130.31C10.9945 130.396 10.9261 130.499 10.876 130.617C10.8258 130.736 10.8008 130.863 10.8008 131V138H8.83887V131C8.83887 130.594 8.91406 130.214 9.06445 129.858C9.2194 129.498 9.42904 129.186 9.69336 128.922C9.96224 128.653 10.2744 128.443 10.6299 128.293C10.9899 128.138 11.3727 128.061 11.7783 128.061C12.1429 128.061 12.4938 128.127 12.8311 128.259C13.1683 128.386 13.4714 128.573 13.7402 128.819C14.0091 128.573 14.3099 128.386 14.6426 128.259C14.9798 128.127 15.3307 128.061 15.6953 128.061C16.1009 128.061 16.4814 128.138 16.8369 128.293C17.1969 128.443 17.5091 128.653 17.7734 128.922C18.0423 129.186 18.252 129.498 18.4023 129.858C18.5573 130.214 18.6348 130.594 18.6348 131V138Z" fill="#69B070"/>
<path d="M7.54688 73.0605C7.54688 73.4661 7.4694 73.8467 7.31445 74.2021C7.15951 74.5576 6.94759 74.8698 6.67871 75.1387C6.41439 75.403 6.10449 75.6126 5.74902 75.7676C5.39355 75.9225 5.01302 76 4.60742 76H0.683594V74.0381H4.60742C4.74414 74.0381 4.87174 74.013 4.99023 73.9629C5.10872 73.9128 5.21126 73.8444 5.29785 73.7578C5.389 73.6667 5.45964 73.5618 5.50977 73.4434C5.5599 73.3249 5.58496 73.1973 5.58496 73.0605C5.58496 72.9238 5.5599 72.7962 5.50977 72.6777C5.45964 72.5592 5.389 72.4567 5.29785 72.3701C5.21126 72.279 5.10872 72.2083 4.99023 72.1582C4.87174 72.1081 4.74414 72.083 4.60742 72.083H1.93457V70.1211H4.60742C4.74414 70.1211 4.87174 70.096 4.99023 70.0459C5.10872 69.9958 5.21126 69.9274 5.29785 69.8408C5.389 69.7497 5.45964 69.6449 5.50977 69.5264C5.5599 69.4033 5.58496 69.2734 5.58496 69.1367C5.58496 69 5.5599 68.8724 5.50977 68.7539C5.45964 68.6354 5.389 68.5329 5.29785 68.4463C5.21126 68.3551 5.10872 68.2845 4.99023 68.2344C4.87174 68.1842 4.74414 68.1592 4.60742 68.1592H0.683594V66.1973H4.60742C5.01302 66.1973 5.39355 66.2747 5.74902 66.4297C6.10449 66.5846 6.41439 66.7965 6.67871 67.0654C6.94759 67.3298 7.15951 67.6396 7.31445 67.9951C7.4694 68.3506 7.54688 68.7311 7.54688 69.1367C7.54688 69.4967 7.48079 69.8477 7.34863 70.1895C7.21647 70.5267 7.02962 70.8298 6.78809 71.0986C7.02962 71.3675 7.21647 71.6729 7.34863 72.0146C7.48079 72.3519 7.54688 72.7005 7.54688 73.0605ZM18.8535 76H16.8984V69C16.8984 68.8633 16.8711 68.7357 16.8164 68.6172C16.7663 68.4987 16.6956 68.3962 16.6045 68.3096C16.5179 68.2184 16.4154 68.1478 16.2969 68.0977C16.1784 68.0475 16.0508 68.0225 15.9141 68.0225C15.7773 68.0225 15.6497 68.0475 15.5312 68.0977C15.4128 68.1478 15.3079 68.2184 15.2168 68.3096C15.1302 68.3962 15.0618 68.4987 15.0117 68.6172C14.9616 68.7357 14.9365 68.8633 14.9365 69V76H12.9746V69C12.9746 68.8633 12.9495 68.7357 12.8994 68.6172C12.8493 68.4987 12.7786 68.3962 12.6875 68.3096C12.6009 68.2184 12.4984 68.1478 12.3799 68.0977C12.2614 68.0475 12.1338 68.0225 11.9971 68.0225C11.8604 68.0225 11.7327 68.0475 11.6143 68.0977C11.4958 68.1478 11.391 68.2184 11.2998 68.3096C11.2132 68.3962 11.1449 68.4987 11.0947 68.6172C11.0446 68.7357 11.0195 68.8633 11.0195 69V76H9.05762V69C9.05762 68.5944 9.13281 68.2139 9.2832 67.8584C9.43815 67.4984 9.64779 67.1862 9.91211 66.9219C10.181 66.653 10.4932 66.4434 10.8486 66.293C11.2087 66.138 11.5915 66.0605 11.9971 66.0605C12.3617 66.0605 12.7126 66.1266 13.0498 66.2588C13.387 66.3864 13.6901 66.5732 13.959 66.8193C14.2279 66.5732 14.5286 66.3864 14.8613 66.2588C15.1986 66.1266 15.5495 66.0605 15.9141 66.0605C16.3197 66.0605 16.7002 66.138 17.0557 66.293C17.4157 66.4434 17.7279 66.653 17.9922 66.9219C18.2611 67.1862 18.4707 67.4984 18.6211 67.8584C18.776 68.2139 18.8535 68.5944 18.8535 69V76Z" fill="#69B070"/>
<path d="M8.24414 12.0381H7.2666V14H5.30469V12.0381H0.40332L1.49707 4.19727H3.45898L2.60449 10.083H5.30469V5.18164H7.2666V10.083H8.24414V12.0381ZM19.4688 14H17.5137V7C17.5137 6.86328 17.4863 6.73568 17.4316 6.61719C17.3815 6.4987 17.3109 6.39616 17.2197 6.30957C17.1331 6.21842 17.0306 6.14779 16.9121 6.09766C16.7936 6.04753 16.666 6.02246 16.5293 6.02246C16.3926 6.02246 16.265 6.04753 16.1465 6.09766C16.028 6.14779 15.9232 6.21842 15.832 6.30957C15.7454 6.39616 15.6771 6.4987 15.627 6.61719C15.5768 6.73568 15.5518 6.86328 15.5518 7V14H13.5898V7C13.5898 6.86328 13.5648 6.73568 13.5146 6.61719C13.4645 6.4987 13.3939 6.39616 13.3027 6.30957C13.2161 6.21842 13.1136 6.14779 12.9951 6.09766C12.8766 6.04753 12.749 6.02246 12.6123 6.02246C12.4756 6.02246 12.348 6.04753 12.2295 6.09766C12.111 6.14779 12.0062 6.21842 11.915 6.30957C11.8285 6.39616 11.7601 6.4987 11.71 6.61719C11.6598 6.73568 11.6348 6.86328 11.6348 7V14H9.67285V7C9.67285 6.5944 9.74805 6.21387 9.89844 5.8584C10.0534 5.49837 10.263 5.1862 10.5273 4.92188C10.7962 4.65299 11.1084 4.44336 11.4639 4.29297C11.8239 4.13802 12.2067 4.06055 12.6123 4.06055C12.9769 4.06055 13.3278 4.12663 13.665 4.25879C14.0023 4.38639 14.3053 4.57324 14.5742 4.81934C14.8431 4.57324 15.1439 4.38639 15.4766 4.25879C15.8138 4.12663 16.1647 4.06055 16.5293 4.06055C16.9349 4.06055 17.3154 4.13802 17.6709 4.29297C18.0309 4.44336 18.3431 4.65299 18.6074 4.92188C18.8763 5.1862 19.0859 5.49837 19.2363 5.8584C19.3913 6.21387 19.4688 6.5944 19.4688 7V14Z" fill="#69B070"/>
</svg>
