<svg width="138" height="138" viewBox="0 0 138 138" fill="none" xmlns="http://www.w3.org/2000/svg">
<g id="ferrari 1">
<path id="Vector" d="M62.6337 84.8199L62.3956 85.402L62.5546 86.4577L63.0958 88.821L64.0328 91.9375L64.8115 93.7992L65.854 96.176L66.5935 97.5756L67.7287 99.6357L69.0878 101.932L70.1574 103.412L71.0545 104.613L71.0944 105.274L70.9761 105.815L70.4748 106.013L68.9695 106.092L66.3296 105.934L64.1519 105.656L62.238 105.313L59.914 104.653L58.7396 104.138L57.9609 103.795L57.076 103.636L56.0598 103.676L55.5193 103.913H54.7798L53.0242 103.636L52.0209 103.293L50.9256 103.214L49.1829 103.175L47.863 103.055H46.6486L45.4477 103.135L44.6291 103.477L44.048 103.636L43.8497 103.913L43.8897 104.456L44.4437 105.352L45.487 106.792L46.1073 107.056L47.0843 107.756L48.2059 108.377L49.4203 108.773L51.1631 108.813L52.7205 108.654L54.0404 108.351L55.1628 107.994L55.6377 108.232L55.8623 108.693L56.2581 108.813L57.2214 108.773L58.4358 108.853L59.0569 109.05L59.7957 108.853L62.198 109.154L63.8346 109.393L66.5143 109.975L68.4674 110.555L70.3956 111.216L72.0963 111.995L72.7573 112.47L74.5137 112.549L75.4499 112.311L75.9512 111.294L76.4917 110.054L76.3363 109.05L75.676 107.795L74.7918 105.973L74.0901 104.072L73.5752 101.932L73.352 100.097V98.3146L73.5367 96.2153L73.7749 95.1581L73.4968 94.2615L72.9171 93.7992L71.7555 92.9411L70.9347 92.3598L70.7792 91.237L70.3956 90.0357L69.6683 88.8602L68.8903 87.8573L67.9141 86.9207L66.6726 85.9819L65.2735 84.9383L64.5341 84.5824L63.7953 84.3584L63.1749 84.4633L62.6337 84.8199Z" fill="white"/>
<path id="Vector_2" d="M58.1192 6.08319L58.1064 6.59821L57.5651 6.71734L56.8656 6.62532L55.8095 6.8493L55.018 7.10039L54.3841 7.14034L54.1859 7.41782L54.4105 7.80088L54.8861 7.90645L55.3346 7.77448L55.8495 7.54979L56.3779 7.52339L57.4995 7.57618L58.3574 7.84011L59.3735 8.0912L60.8653 8.76458L60.9979 9.08201L60.8396 9.33238L60.1401 9.58347L59.7179 9.78178L58.9656 10.2832L57.8176 10.891L56.4185 11.8818L54.8212 12.608L53.5541 13.4404L52.406 13.9426L51.3235 14.2065L50.373 14.2329L49.0659 14.2593L48.5639 14.3913L48.2737 14.999L48.0491 15.6596L47.7981 16.1083L47.1641 17.0591L46.5566 18.1148L46.1473 18.6299L46.1073 19.2241L46.1473 20.0558V20.9403L46.6885 21.4289L47.1641 21.68L47.7317 21.6401L48.6559 21.389L49.6984 21.0723L51.111 20.5045L51.6787 20.5309L51.8106 20.8875L51.6787 21.2306L51.203 21.4817L49.764 22.0231L48.6816 22.3399L48.4705 22.6965L48.4306 23.0796L48.7871 23.3963L49.5394 23.4883H50.147L50.9121 23.4619L51.7443 23.2636L52.9458 22.6295L53.738 22.4711L54.4112 22.3384L54.926 22.5103L55.6783 22.4711L56.4178 22.5638L57.0253 22.9205L57.9759 23.0125L59.2166 23.3956L59.8898 23.4876L60.9323 23.3028L62.2658 23.3956L62.8462 23.6196L63.1635 24.161L63.0972 24.8607L62.9389 25.7189L62.6223 26.709L62.1738 27.9501L61.7253 29.3105L61.2496 30.5516L60.933 31.4098L59.8506 33.1003L58.5435 34.7503L57.369 36.3745L55.8773 37.8661L54.5046 39.0281L53.6332 39.9518L53.1718 41.4705L52.5251 42.2366L51.7065 42.8172L50.7167 43.6354L49.1986 44.5599L47.9186 45.2069L47.1007 46.1442L46.5195 46.8975L45.9391 47.2541L45.1212 47.6636L44.5935 47.5444L43.551 47.0687L42.3893 46.3161L40.6865 45.5635L38.7726 44.5599L37.7828 43.8073L36.5549 42.8172L35.2086 41.708L33.7568 41.1802L32.4768 40.9555L30.8403 41.2986L29.6787 41.9456L28.6754 42.6453L28.1605 43.9258L27.804 44.9166L27.3947 46.4345L26.9333 47.3583L26.4712 48.7714L26.4056 50.4619L25.9963 51.452L25.5342 53.0235L25.1249 54.5949L24.3726 56.0608L23.9633 57.5131L23.7259 59.3221L23.0791 60.8408L22.6698 61.7125L22.617 62.5842L22.5643 64.0501V66.6116L22.2733 67.6673L22.4452 68.5918L22.3781 70.1105L22.9065 71.3252L23.3158 71.6156L24.0681 71.3773L24.767 70.7432L25.7703 69.5284L26.6417 68.1288L26.9846 66.9668L26.7607 66.0295L26.4698 64.8675L26.1133 63.468L25.7703 62.0028L25.5856 60.8929V59.85L25.823 58.6752L26.4035 56.879L26.9839 55.9417L27.5123 55.4666L27.9209 54.8325L28.6739 54.7661L29.0305 54.5422L29.5582 54.0664L30.1386 53.5513L30.6663 52.8516L30.8902 52.0341L31.0756 51.3343L31.1284 50.397L31.3002 49.5788L31.7095 49.0638L32.1188 48.9447L32.6465 49.1166L33.3995 49.5261L34.2174 50.4634L35.0888 51.7438L36.0786 52.9058L37.1346 53.8431L38.0716 54.5957L38.9929 55.0044L39.2832 55.5858L38.9929 55.8768L38.0025 55.6521L36.6034 55.533L34.795 55.1763L33.053 54.8332L30.9544 54.7669L29.7272 54.8332L28.7909 55.4138L27.8011 56.2855L26.9825 57.6851L26.3486 59.2694L26.283 60.4314L26.6395 62.5307L27.4574 65.2113L27.8667 67.3107L28.3816 69.3572L28.7381 70.7974L28.91 72.1441L29.3713 73.6628L29.7279 75.9868L30.0709 76.805L30.9551 77.5048L31.7737 78.3223L32.6971 79.7225L33.3439 81.3596L34.3337 82.8119L35.7862 84.2114L36.8416 84.8584L37.5404 84.9112L38.1208 84.7393L38.4774 83.9218L38.8731 83.2221L39.1106 82.232V79.96L38.8204 79.3131C38.7676 79.3131 38.7676 78.9043 38.7676 78.8515L38.6485 78.4428L38.1729 77.7437L37.3015 76.8713L35.6778 76.1723L35.0838 75.9868L34.9783 74.9967L35.0311 74.3626L33.9222 73.0815L33.2227 71.4437L32.6415 69.1189L32.1666 66.9668L31.3615 65.2763L31.0713 63.2297L31.5327 62.0021L32.3513 61.5399H32.9845L33.9215 62.3588L35.2678 63.1777L36.6669 63.6927L40.0454 65.3298L41.6827 66.2671V67.1387L43.1873 68.0097L45.1147 68.6567H49.1408L48.8506 69.41L48.6794 69.8187L49.1943 70.796L50.184 72.2618L51.7685 73.8326L53.6824 75.9326L55.3189 77.3842L58.3816 79.7346L60.8631 81.0678L62.7243 82.0586L65.1138 83.6829L67.318 85.2543L69.219 86.865L71.1986 89.5457L71.2905 90.667L71.7391 91.8298L72.9534 92.7014L74.063 93.1373L74.7497 93.0438L75.2923 92.5167L76.071 91.6849L76.2564 90.5629L77.1799 88.965L77.3774 87.7367L77.5236 86.3771L77.6156 85.3071L77.9193 84.6352L78.539 84.3313H79.1337L79.1729 84.78L78.7387 85.255L78.3557 86.2844L78.0648 86.9185V87.6975L77.96 89.3481L77.7232 90.1798L76.9966 91.4339L76.019 93.046L75.0435 94.8015L74.4637 97.0862L74.1728 99.4766L74.4637 102.144L74.8467 103.702L75.7701 105.749L76.9446 108.178L77.868 110.079L79.1344 112.074L80.6383 113.923L80.9293 114.556V114.992L80.7317 115.534L80.2041 116.405L79.3726 117.567L77.669 119.76L75.9655 121.607L74.4081 123.312L73.7357 123.708L72.3623 124.236L71.5437 125.016L71.108 125.9L70.1318 127.114L69.0244 128.328L67.6645 129.742L66.8323 131.194L66.3439 132.66L66.0537 133.874L66.1064 134.851L66.6869 135.472H68.8261L69.7489 135.38L70.7144 134.8L71.9808 134.218L72.1776 133.73H72.6133L73.2857 133.439L73.9197 132.845L74.2634 130.521L74.0644 130.031L73.9724 129.542L74.3161 129.635L74.6976 129.74L75.0948 129.449L75.7288 129.053L76.4012 128.181L77.2326 127.007L77.6683 125.937L77.7603 125.065L78.3023 124.668L79.0809 124.233L79.7149 123.85L80.2426 122.781L81.3649 121.607L83.4621 119.665L85.0587 118.596L86.671 117.711L87.0518 117.328L87.198 116.932L87.5395 116.497L87.3014 115.917L87.2507 114.847L87.0382 113.844L86.7872 113.264L86.2332 112.313L85.3496 111.203L84.9147 110.371L84.822 109.499V108.325L85.0188 107.652L85.5465 105.843L86.087 104.971L86.6688 104.628L87.737 103.955L89.0042 102.872L90.7077 101.42L91.8693 100.206L93.0431 98.8453L94.2575 97.4722L95.1295 95.9271L95.8555 94.606L96.5422 93.1016L97.0306 91.4367L97.1768 89.8931L97.2688 88.7182L97.6653 88.3352L98.1003 88.2303L98.4832 88.4821L98.8262 89.3003L98.9182 90.4217L99.0779 91.4909L98.9731 92.2185L98.8796 93.3406V95.7309L99.1699 97.6191L99.5114 98.1077L99.8024 98.0678L99.9471 97.7247L99.7496 96.9457V95.6239L100.146 94.5147L100.331 92.904L100.528 91.7812L100.781 91.2534H101.071L101.308 91.4909L101.546 92.4154L101.743 93.2999L101.651 94.6995L101.36 96.6012L100.476 98.4508L99.659 100.206L99.1692 101.711L99.0772 102.636L99.1692 103.705L99.5107 104.735H100.145L100.476 104.286L100.289 103.797L100.145 102.925L100.725 102.145L101.399 101.221L101.847 100.35L102.916 98.6449L103.788 97.0862L104.171 95.3821L104.513 93.138V90.906L104.079 89.3474L103.207 88.1326L103.101 87.5527L103.498 87.3551L103.987 87.5919L104.621 88.3716L105.4 89.7839L105.73 91.4331L105.928 93.6252L106.417 95.1439L106.47 95.1838L107.142 96.6889L107.577 96.8473L107.774 96.4514L107.722 96.2131L107.391 95.0918L107.339 93.9697L107.391 92.3198L107.682 90.4709V89.5464L107.577 88.7674L106.798 87.2081L106.125 86.0861L106.363 85.6509L107.288 85.4533L108.553 84.8734L109.913 84.1458L111.128 83.0765L112.686 80.978L113.569 79.2353L114.296 77.5718L114.534 74.9047L114.587 72.5144L114.204 69.5569L113.755 67.4177L113.372 65.2256L113.134 62.9415L113.32 61.4892L113.716 59.6802L114.534 57.8841L115.708 56.0359L116.143 54.861L116.235 54.2804L115.854 53.7525L115.315 53.4993V54.3317L114.879 54.8204L114.1 55.9824L113.665 56.2727L112.45 57.7386L111.963 58.5175L111.382 59.825L110.748 59.9306L110.168 59.5875L109.824 58.0289L109.917 56.2334L110.314 54.5693L111.279 53.0107L113.23 50.0924L114.394 47.7156L114.538 46.0515L114.353 45.5236L114.011 45.8667L113.431 47.319L112.547 48.7849L111.239 49.8549L109.735 51.3072L107.492 53.9351L107.057 53.8952L106.912 53.4465L106.859 52.3765L107.004 50.3828L107.69 48.1515L108.905 45.6691L110.515 43.6754L112.508 41.972L112.693 41.5761L112.455 41.3913L111.44 41.9192L110.607 42.4606L109.195 43.6754L107.44 45.234L106.185 46.9374L104.958 49.1687L104.286 50.9777L104.088 52.7738L103.995 55.2034L104.575 57.7386L105.155 59.9306L106.277 63.3774L107.004 67.5104L107.439 70.6654V72.3703L107.253 74.1657L106.965 75.633L106.422 77.2822L104.376 79.8566L102.29 81.7576L99.6106 83.2627L97.0363 83.4075L96.6948 82.1528L95.7713 80.3438L94.5042 78.6012L93.6727 77.5725L92.5639 76.0674L90.1729 73.7841L87.7449 71.7903L86.6767 70.9572L83.3231 68.686L78.5055 64.645L75.8778 61.3836L73.0012 56.67L72.2218 53.8445L72.4186 52.0883L72.8151 51.7452L73.8327 52.4314L75.4428 53.2104L76.7506 53.1576L78.2538 53.8445L79.8646 54.8218L80.6961 55.4952L81.7657 56.2349L82.8745 56.3804L83.1255 55.8918L82.8346 55.839L82.4923 55.9845L81.9518 55.6414L81.4755 54.9152L80.7902 53.7925L79.4696 52.5784L78.1632 52.0897L77.4359 51.9442L77.5821 51.5612H78.5975L79.7719 51.9442L81.4748 53.0663L82.2549 53.4094L82.5444 53.0128L82.0545 52.3394L80.7346 51.1639L78.6888 50.0946L76.2194 49.1309L75.7316 48.735L76.2194 48.3919L77.3289 48.9333L79.3762 49.2764L81.566 50.1481L82.7276 50.7287L84.7735 51.0191L86.2396 50.8215L87.0568 50.4384L88.1792 49.7515L88.6683 49.2764L88.7211 48.9333L88.2669 48.9704L87.8333 49.4191L86.3808 49.8948L85.1136 50.0924L84.044 49.9469L83.015 49.1287L82.0916 48.0459L80.9827 47.2277L79.3198 46.8846L77.7225 46.3432L77.0358 45.9074L77.0886 45.525L77.7225 45.617H79.1344L80.5456 45.525H81.9982L82.7776 45.3795L83.4115 45.9074L84.4269 46.1585H85.2584L85.6413 45.8681L84.9689 45.6698L84.1374 45.1284L83.2653 44.3102L81.8534 43.5705L80.6918 43.425L79.6236 43.2795L79.2264 43.0419L80.0065 42.6061H81.2723L82.2499 42.8964L83.214 43.3858L84.7713 44.0591L86.3287 44.1119L87.1602 43.716L87.3983 43.1875L86.7644 42.8971L85.458 42.8444L84.3356 42.4613L83.3601 41.6296L82.2905 41.0882L80.8793 40.8506L79.665 40.4148L79.1373 39.7286L79.2293 39.3854L80.0094 39.5438L80.9856 39.8341L81.566 40.27L82.3975 40.362L82.4895 39.9261L81.6188 39.2399L81.3664 38.6193L82.5401 38.8041L83.6489 39.3847L85.0608 39.5431L85.6028 40.5596L87.0539 41.4313L87.1331 41.4177L87.4504 41.2857L87.8333 41.0482L87.6472 40.7579L87.1053 40.7971L86.6168 40.1237L85.6392 38.6186L83.937 37.1007L82.195 36.3217L81.7058 35.7411L80.6362 34.4735L79.66 33.9456L79.5152 33.457L79.9495 33.1667L80.9799 33.4042L83.0122 33.9849L83.9898 34.328L84.6237 35.2125L85.6392 35.7411H86.4186L87.4482 36.0314L88.5692 35.8331L89.0049 35.45L88.371 34.9086L87.4475 34.6711L86.3779 34.5256L85.7433 33.9842L84.9118 32.7694L84.715 31.9904L83.6454 31.026L82.4838 30.2863L81.1624 29.4674L79.7113 28.1078L79.6193 27.7112H79.9481L81.8491 29.2163L83.7901 30.3384L84.8198 31.1173L86.1276 32.3314L87.3014 32.9648L87.9752 33.1631L88.3175 32.6217L87.8298 32.437L86.8122 31.5125L86.522 30.4832L85.4538 29.3212L84.5695 28.5814L84.1338 27.4722L82.63 25.2281L80.5841 23.4319L80.4907 22.8513L81.2166 22.9433L82.247 23.4719L83.8957 24.1581L85.5992 24.2508L86.8664 24.845L88.2255 25.0826L89.3871 24.7395L89.2951 24.2508L87.9745 23.9598L86.8122 23.4319L84.4761 22.3099L83.2104 21.6237L82.5365 20.8048L82.7747 20.5137L83.117 20.7513L83.6447 20.9496L84.3314 21.0024H85.4538L86.4164 20.8968L87.8832 20.8048L89.0042 21.2406L90.1658 22.0724L90.655 22.2179L90.7077 21.782L90.3105 21.3861L89.1489 20.3162L87.3413 19.3917L86.0349 19.2462L83.5534 19.1006L82.9737 18.4144L81.7072 17.1469L80.2953 16.1831L79.7676 15.6945L80.2033 15.3514L80.8758 15.6417L82.0894 16.2759L83.4621 16.7645L85.3104 17.2004H86.9077L88.2284 18.6662L89.298 19.2997L89.6809 18.9038L88.2284 16.7645L85.9444 15.1146L84.0433 14.6659L82.4331 12.9753L81.0212 12.1436L79.0809 11.655L80.1506 10.7312L82.0502 10.0971L83.4621 9.66123L83.7923 9.2261L83.6076 8.88299L82.8275 8.6854L82.0894 8.53988L76.5987 8.64545L75.6225 7.56263L74.513 6.83646L73.1018 6.20232L71.2527 5.91128H69.6554L69.2205 5.33064L67.7159 3.71995L65.9075 2.0686L64.7986 3.91754L64.7459 4.49819L65.2743 5.1844L65.327 5.76505L64.9448 6.10816L63.7169 6.20018L61.4857 5.56603L59.2944 5.0931L58.2775 5.13233L56.6146 5.47544L56.8121 6.0568L57.7363 6.01685L58.1192 6.08319Z" fill="white"/>
<path id="Vector_3" d="M64.02 5.47538L63.9137 4.35332L62.3164 2.41236L61.8279 2.26685L61.485 2.75547L61.5377 3.33683L60.9965 3.82475L60.9437 4.49884L61.5777 4.84195L62.4619 5.47538H64.02Z" fill="white"/>
<path id="Vector_4" d="M77.577 66.9283L75.4378 64.1549L73.5888 61.435L72.2161 59.2964L71.6891 57.8305L71.3989 56.4175L71.0545 55.4538L70.514 55.2034L69.9849 55.3482L69.8009 56.2726L70.1845 57.8833L71.108 60.2209L72.2689 62.1084L73.5888 63.7725L75.0413 65.2249L75.912 66.0566L77.577 66.9283ZM48.4441 17.2674L47.9292 17.98L47.7175 18.7061L47.8102 19.2212L48.0612 19.3795L48.7871 19.2212L49.3283 18.918L49.7112 18.5342L49.9223 17.8216L49.7112 17.4785L49.2492 17.0955L48.8662 17.0562L48.4441 17.2674ZM62.3035 15.3521H62.8975L63.4523 15.1417L63.4915 14.5867L63.2805 13.9533L63.0295 13.3591L62.5282 13.0152L61.8814 12.8961L60.9965 12.9361L60.4424 13.3983L60.1914 13.9133L60.3632 14.3755L60.9572 14.7187L61.5905 15.0618L62.3035 15.3521ZM109.888 67.0866L109.545 67.4298L109.613 68.0503L109.716 69.1596L109.836 70.3358L109.915 71.3509L109.863 72.5136L109.81 73.8076L109.572 74.9696L109.293 75.9861L108.819 76.9769L108.2 77.9934L107.565 78.9849L106.892 79.8951L106.272 80.7133L105.929 81.3339L105.677 81.9017L105.729 82.3247L106.049 82.4695L106.642 82.3247L107.802 81.2147L108.819 80.0263L109.493 79.0748L110.088 77.967L110.481 76.9505L110.827 75.7885L111.076 74.4282L111.103 73.8076V71.3252L110.904 70.0976L110.626 68.8165L110.285 67.7472L110.114 67.2058L109.888 67.0866ZM58.6469 75.0752L59.3207 75.8284L61.5377 77.7558L62.7656 78.8515L63.8609 79.843L64.7451 80.674L64.917 80.9501L65.0361 81.1491L64.6924 81.1234L63.8081 80.5678L62.3164 79.5784L60.0067 78.0198L59.0697 77.3849L58.08 76.6081L56.9975 75.6166L56.2053 74.9967L55.2547 74.0722L54.6343 73.426L54.2514 72.831L54.1067 72.1177L54.1331 71.4579L54.3833 71.2061L54.819 71.2325L55.5057 71.6426L56.2445 72.356L56.7864 73.0144L57.3669 73.5964L57.9345 74.2962L58.6469 75.0752ZM53.6446 45.1412L53.671 44.7846L53.9084 44.5206L54.7399 44.1775L56.4691 43.6361L58.1983 43.4243H59.2544L60.1258 43.6097L60.9437 44.0192L61.5905 44.6533L61.6304 45.0093L61.5512 45.2603L61.2738 45.3131L60.8517 45.2603L60.2049 45.0749L59.5974 44.8908L58.8451 44.811H57.9081L57.1159 44.7981L56.4163 44.8644L55.6377 44.9957L55.0173 45.1676L54.4104 45.2996L54.014 45.326L53.7373 45.2867L53.6446 45.1412ZM75.82 74.9432L75.5683 75.643L75.4635 76.1965L75.2531 77.2016L75.1854 78.0062L75.3715 78.2316L75.7544 78.2837L75.9512 78.1246L76.0432 77.703L76.3363 77.0953L76.6251 76.765L76.9424 76.4747L77.1399 76.0132L77.0864 75.2335L76.8112 74.8248L76.6514 74.6778H76.2814L76.0061 74.7328L75.82 74.9432ZM76.3627 98.9886H76.1109L75.912 98.3944L75.8984 97.7204L76.0432 96.7959L76.3733 95.529L76.916 94.7494L77.4045 94.143L77.8394 94.0895L77.9578 94.4854L77.6947 95.3314L77.3232 96.3608L77.1399 96.8622L76.7962 97.6419L76.5331 98.5528L76.4546 98.816L76.3627 98.9886ZM93.3753 87.3422L93.0602 87.7381L93.1122 88.3722L93.6656 89.1376L93.7469 89.9694L93.8759 90.2076L94.1284 90.274L94.4036 90.1149L94.4849 89.7447L94.6154 89.3359L94.6696 88.9001V88.3187L94.589 87.8836L94.2852 87.5006L94.0221 87.263L93.7055 87.2366L93.3753 87.3422ZM69.1013 131.353L68.5601 131.893L68.3619 132.289L68.2963 132.633L68.349 132.91L68.5209 133.042H68.6792L69.0486 132.963L69.4308 132.712L69.6682 132.355L69.8665 131.973L69.9849 131.484L69.9478 131.207L69.8009 131.088L69.5107 131.101L69.1013 131.353ZM73.0739 125.569L72.624 125.846L72.4008 126.124L72.3744 126.361L72.5056 126.599L72.7309 126.664L73.0354 126.559L73.2843 126.414L73.4854 126.136L73.6037 125.846L73.5624 125.608L73.4041 125.516L73.0739 125.569ZM80.5199 118.16L78.6973 119.997L77.1941 121.62L76.1245 122.809L76.0703 123.139L76.1887 123.337L76.4397 123.35L76.8226 123.099L77.5093 122.478L78.3821 121.687L79.3184 120.709L80.2019 119.852L80.9806 118.94L81.5632 118.081L81.7186 117.698L81.5632 117.502L81.377 117.461L80.8608 117.791L80.5199 118.16ZM84.9275 115.481L84.6629 115.757L84.5845 115.982L84.6258 116.207L84.8077 116.313H84.9674L85.2056 116.049L85.4687 115.811L85.5864 115.626L85.5757 115.481L85.4423 115.414L85.1535 115.401L84.9275 115.481ZM78.5376 105.432H78.3279L78.2359 105.551L78.2095 105.946V106.607L78.3407 107.32L78.5661 107.835L79.041 108.614L79.3576 109.076L79.5287 109.154L79.6221 109.143L79.6728 109.024L79.5544 108.416L79.436 108.113L79.4239 107.888L79.4104 107.254L79.2656 106.462L79.0538 105.868L78.7643 105.526L78.5376 105.432ZM48.3778 104.547L47.9029 104.639L47.4936 104.772L47.3745 104.943L47.3616 105.181L47.5727 105.445L47.7175 105.564L48.0348 105.656L48.3913 105.644L48.5625 105.59L48.7735 105.339L48.8926 105.062L48.9454 104.838L48.9055 104.639L48.7343 104.534L48.3778 104.547ZM61.8942 106.053L60.7326 105.682L60.5608 105.749L60.5215 106.026L60.6535 106.277L61.5377 106.568L62.7784 106.951L64.3494 107.346L65.0361 107.399L65.7484 107.439L66.4351 107.558L67.2138 107.69L67.6623 107.664L67.8078 107.479V107.228L67.6894 107.069L67.2801 106.964L66.5542 106.805L65.6564 106.74L64.7059 106.594L63.6099 106.476L62.9503 106.383L62.4091 106.264L61.8942 106.053ZM72.547 106.436L72.1904 106.7L72.1227 106.951L72.1904 107.175L72.4008 107.267L72.7837 107.175L73.0475 106.964L73.1923 106.7V106.489L73.1003 106.369H72.8094L72.547 106.436ZM36.9599 81.2946L36.577 81.2147L36.4187 81.2547L36.3524 81.4929L36.4322 81.9017L36.6298 82.0864L36.9071 82.1385L37.1318 81.968L37.171 81.7041L37.1318 81.4801L36.9599 81.2946ZM29.1987 64.7498L29.0533 65.7798L29.0797 66.8227L29.238 67.7208L29.5417 68.6716L29.8455 69.2787L30.0566 69.7409L30.1885 69.9913L30.3596 70.1368H30.4523L30.5315 70.0177L30.5978 69.6617L30.4131 68.4341L30.2812 67.6808L29.9774 66.8227L29.7264 66.0174L29.7136 65.3832L29.5681 64.7626L29.4226 64.6307H29.2779L29.1987 64.7498ZM40.2337 63.4687L40.2993 63.2575L40.2465 62.9936L39.9299 62.7026L39.3231 62.4258L38.4781 62.0563L37.7521 61.6996L36.9599 61.5013L36.4978 61.3301L36.0757 61.343L36.3923 61.5805L37.3165 62.1347L38.1351 62.7425L38.9665 63.2575L39.3231 63.4159L39.8372 63.4951L40.2337 63.4687ZM28.6575 56.8797L28.261 57.5666L28.2482 58.0417L28.4065 58.1737L28.644 58.0816L28.8814 57.7514L29.0397 57.3819L29.1588 57.1044V56.7085L28.9741 56.5894L28.7759 56.6821L28.6575 56.8797ZM66.448 28.2925L65.9859 28.3717L65.3791 28.953L64.2039 30.8277L62.9631 33.2308L62.2643 34.6175L61.4849 36.2282L60.5351 37.6941L60.2976 38.2491L60.3369 38.4467L60.5879 38.4602L61.3666 38.1563L62.4882 36.9815L63.9664 34.9079L64.8906 33.1916L65.7221 31.8177L66.3424 30.1942L66.6198 29.177L66.6462 28.6092L66.448 28.2925ZM44.4836 50.5282L44.7475 50.6345L44.8273 50.9512L44.6291 52.0869L44.0743 53.6448L43.5859 55.137L42.728 56.2063L42.2923 56.5366L41.8303 56.7085L41.5664 56.523L41.54 56.1799L41.9101 55.784L42.2923 55.1499L42.7808 54.0806L43.0717 53.0641L43.3356 52.0605L43.8497 51.0968L44.1934 50.6081L44.4836 50.5282ZM28.7238 47.2277L28.169 48.1914L27.918 49.5118L27.8517 50.2122V50.7266L27.9708 50.9905L28.3138 50.8985L28.9477 49.9212L29.3036 48.7592L29.5809 47.7292L29.5945 47.003L29.4362 46.7655L29.014 46.8846L28.7238 47.2277ZM35.7192 49.2214L35.7591 49.5118L35.9167 49.7101L36.2732 50.0667L36.6569 50.3834L37.1047 50.6345L37.422 50.8321L37.5539 50.8193L37.6202 50.7002L37.6067 50.4762L37.4348 50.2251L37.1581 49.8948L36.6961 49.6173L36.4051 49.3534L36.1548 49.1294L35.9302 49.0895L35.7983 49.0759L35.7192 49.2214ZM31.7722 43.0947L31.1126 43.1739L30.7953 43.3986L30.6898 43.7545L30.7825 44.0192L31.1519 44.164L31.7587 44.0983L32.3926 43.8601L32.5773 43.5569L32.5645 43.3322L32.3534 43.1346L32.1152 43.0683L31.7722 43.0947ZM64.7323 49.1023L65.168 49.2214L65.2999 49.459L65.3527 49.9868L65.4183 50.5418L65.2871 50.9377L65.0097 51.0968L64.3365 51.1096L63.888 51.004L63.6363 50.6738L63.4259 50.4098V49.9868L63.7554 49.5645L64.2574 49.1687L64.7323 49.1023ZM53.3009 15.0354L53.9084 14.5204L55.0308 13.9797L56.1525 13.4775L57.2214 12.9753L57.7099 12.7378L58.08 12.685L58.383 12.7513L58.6205 13.1344L58.4622 13.4111L58.1591 13.491L57.789 13.583L57.3797 13.9262L56.4691 14.4811L55.2155 14.8242L54.4368 15.0225L53.6838 15.0753L53.3009 15.0354ZM51.0575 17.2802L50.8593 17.5969L50.8329 17.8345L51.0048 18.0328L51.2158 18.1383L51.4797 18.1255L51.6116 18.0592L51.7043 17.756L51.6779 17.4122L51.6116 17.2146L51.4269 17.1746H51.2158L51.0575 17.2802ZM53.6446 19.5907L53.4599 19.6042L53.3144 19.7626L53.288 20.0265L53.3672 20.2384L53.5127 20.3168H53.7637L53.9612 20.2248L54.0011 20.0265L53.9348 19.789L53.8421 19.6442L53.6446 19.5907ZM61.353 20.7398L62.6729 19.8025L63.478 19.3003L63.9664 18.9972H64.1383L64.1647 19.3531L63.8345 19.6171L63.6762 20.1592L63.2669 20.7926L62.5282 21.1486L61.7759 21.3212H61.102L60.9836 21.0965L61.1548 20.8582L61.353 20.7398ZM65.8012 21.2021L66.2369 20.6471L66.7389 20.172L67.1874 19.8689L67.5176 19.8417L67.7415 19.9873V20.3967L67.6231 20.8454L67.1211 21.3212L66.5271 21.6907L65.9203 21.849L65.6293 21.7563L65.5901 21.5188L65.8012 21.2021ZM65.8804 23.5254L66.0522 23.2222L66.4615 23.0374L67.1739 22.6936L67.9925 22.1922L68.3754 21.9154L68.9559 21.6372L69.326 21.7299V22.1265L69.1805 22.4832L68.6656 23.0902L67.9533 23.4333L67.2402 23.7237L66.5007 23.7372H66.0394L65.8804 23.5254ZM64.4549 10.8104L64.0328 10.9552L63.9401 11.2462L64.1119 11.5629L64.574 11.5365L64.9569 11.391L65.2336 11.0743L65.1152 10.8104L64.7451 10.6784L64.4549 10.8104ZM71.8995 8.39361L71.6627 8.2217L71.8339 7.90569L72.4942 7.83936L72.8507 7.95777L73.1288 8.10329L73.1402 8.34082L72.9035 8.44639L72.5341 8.47279L72.1776 8.44639L71.8995 8.39361ZM72.9805 9.89872L73.3656 9.88588L73.6565 9.95222L73.8005 10.0442L73.7485 10.1898L73.5367 10.4408L73.2472 10.4665L72.9035 10.4145L72.7053 10.3217L72.5605 10.1498L72.7309 10.0043L72.9805 9.89872ZM72.9035 16.686L73.6037 16.3957L74.2099 16.079L74.8445 15.7223L75.3301 15.5504L75.6232 15.4712L75.912 15.0354L75.7016 14.8371L75.293 14.8635L74.8031 14.9697L74.2619 15.1809L73.879 15.2073L73.8269 14.917L73.879 14.362L73.6565 14.1373H73.337L73.1288 14.4012L72.9277 14.6659L72.6126 15.009L72.3872 15.5768V16.079L72.4942 16.3557L72.4685 16.6461L72.6653 16.7124L72.9035 16.686ZM72.6389 43.8736L72.9805 43.8473L73.2736 44.0848L73.2843 44.2831L73.1923 44.4022L72.9277 44.4807L72.5869 44.4543L72.3608 44.2303L72.4157 44.0327L72.6389 43.8736ZM73.1923 43.1082H73.5888L73.8533 42.8172L73.8269 42.6061L73.5624 42.4342H73.2843L73.0739 42.5005L72.9805 42.6981V42.9891L73.1923 43.1082ZM73.6301 40.6123L73.9189 40.5595H74.197L74.3682 40.7043L74.4067 40.929L74.3168 41.1145L74.0501 41.2458L73.7749 41.2857L73.4854 41.2194L73.392 41.0218V40.7842L73.6301 40.6123ZM73.9318 39.5295L74.3282 39.5431L74.6848 39.4368L74.8288 39.2128L74.7247 38.9353L74.4352 38.7905L74.0901 38.8426L73.7749 38.9881L73.7086 39.2256L73.7221 39.384L73.9318 39.5295ZM74.7247 36.7304L75.1333 36.6113H75.4499L75.5947 36.7825L75.5419 37.0864L75.3451 37.3503L75.1597 37.5885L74.7917 37.6677H74.4216L74.105 37.5094L74.0786 37.2583L74.3018 37.0207L74.4723 36.8224L74.7247 36.7304ZM75.1333 34.6439L75.5419 34.5912L75.912 34.6703L76.0703 34.895V35.119L75.8984 35.3965L75.5947 35.4493L75.2781 35.5292L74.8816 35.5156L74.7104 35.3173L74.7368 35.027L74.8702 34.8287L75.1333 34.6439ZM75.5048 33.9442H75.8984L76.2165 33.8386L76.6251 33.6667L76.6778 33.3236L76.5331 33.0461L76.1887 32.9277L75.8328 32.9405L75.5818 33.0461L75.3572 33.1652L75.0934 33.4028L75.0413 33.6538L75.1483 33.8514L75.3451 33.9178L75.5048 33.9442ZM24.2749 67.4697L24.6186 67.5096L24.7106 67.8528L24.4731 68.1431L24.0767 68.0503L23.8792 67.6673L24.2749 67.4697ZM75.2267 31.4882L75.8599 31.1579L76.1616 31.0916L76.5331 31.1315L76.6778 31.2635V31.409L76.5331 31.6466L76.2814 31.8577L75.912 31.9904L75.4763 32.0289L75.1198 31.9768L75.0285 31.765L75.0812 31.5938L75.2267 31.4882ZM75.7943 30.4318L76.255 30.2335L76.4397 30.0223L76.5331 29.8112V29.6129L76.4546 29.4945L76.255 29.4809L75.9797 29.5073L75.7016 29.5736L75.4635 29.7184L75.3451 29.864L75.3037 30.115L75.3572 30.339L75.5683 30.4054L75.7943 30.4318ZM75.8984 28.6092L76.2949 28.4644L76.5858 28.2661L76.6514 28.0949L76.6928 27.8046L76.6251 27.6191L76.4397 27.5663L76.1616 27.5799L75.8328 27.6455L75.6082 27.8046L75.4499 27.9622L75.4235 28.2262L75.4635 28.438L75.676 28.5564L75.8984 28.6092ZM75.8984 23.8956L76.2293 23.882L76.4268 23.9484L76.481 24.1196L76.3733 24.2915L76.2029 24.4762L75.9248 24.5426H75.6346L75.4499 24.3714V24.1731L75.6232 24.0011L75.8984 23.8956ZM75.9248 26.7346L76.3363 26.5363L76.6514 26.2588L76.6778 25.8501L76.6514 25.599L76.4397 25.4799L76.2029 25.4142L76.0061 25.4271L75.8984 25.5598L75.8464 25.7438L75.7943 25.982L75.676 26.0612H75.4499L75.385 26.1932L75.4114 26.4307L75.5818 26.6426L75.7544 26.7075L75.9248 26.7346ZM75.9797 22.4696L76.2685 22.2713L76.573 22.2849L76.7563 22.5089L76.7178 22.7336L76.573 22.9312L76.3363 23.0239L76.1109 23.0774L75.912 23.1038L75.6496 23.0774L75.5818 22.9183L75.6496 22.7072L75.8064 22.5624L75.9797 22.4696ZM76.0325 21.4132L76.2685 21.3212L76.5181 21.0965L76.5331 20.8846L76.5074 20.6606L76.3477 20.5679L76.0981 20.6079L75.9384 20.7006L75.7679 20.8846L75.7544 21.1093V21.3212L75.8728 21.3868L76.0325 21.4132ZM75.4635 19.3003L75.6232 19.2212L75.8328 19.2083L76.0061 19.3139L76.0432 19.4722L75.9797 19.7098L75.8064 19.8417L75.6496 19.9345L75.4378 19.9609L75.2666 19.8553L75.2267 19.6698L75.3037 19.5122L75.4635 19.3003Z" fill="black"/>
</g>
</svg>
