<svg width="215" height="110" viewBox="0 0 215 110" fill="none" xmlns="http://www.w3.org/2000/svg">
<g id="Group">
<path id="Vector" fill-rule="evenodd" clip-rule="evenodd" d="M0.462036 55.1148C0.462036 25.1152 48.1626 0.795654 107.379 0.795654C166.592 0.795654 214.294 25.1152 214.294 55.1148C214.294 85.1156 166.594 109.435 107.379 109.435C48.1626 109.435 0.462036 85.1156 0.462036 55.1148Z" fill="white"/>
<path id="Vector_2" fill-rule="evenodd" clip-rule="evenodd" d="M107.377 10.6711C167.825 10.6711 204.423 35.4248 204.423 55.1147C204.423 74.8059 167.825 99.5583 107.377 99.5583C46.9271 99.5583 10.3302 74.8059 10.3302 55.1147C10.3314 35.4248 46.9283 10.6711 107.377 10.6711Z" fill="#BB2534"/>
<path id="Vector_3" fill-rule="evenodd" clip-rule="evenodd" d="M107.377 0.334473C166.535 0.334473 214.753 24.6332 214.753 55.1146C214.753 85.5972 166.535 109.896 107.377 109.896C48.2199 109.896 0 85.5972 0 55.1146C0.00122193 24.6332 48.2199 0.334473 107.377 0.334473ZM107.377 1.25648C48.1038 1.25648 0.921337 25.5956 0.921337 55.1146C0.921337 84.6336 48.1038 108.974 107.377 108.974C166.648 108.974 213.832 84.6336 213.832 55.1146C213.832 25.5956 166.65 1.25648 107.377 1.25648Z" fill="black"/>
<path id="Vector_4" fill-rule="evenodd" clip-rule="evenodd" d="M204.885 55.1146C204.885 75.2814 167.779 100.019 107.379 100.019C46.9784 100.019 9.87079 75.2814 9.87079 55.1146C9.87079 34.9477 46.9784 10.21 107.379 10.21C167.779 10.21 204.885 34.9477 204.885 55.1146ZM203.964 55.1146C203.964 35.9015 167.876 11.132 107.379 11.132C46.8782 11.132 10.7921 35.9015 10.7921 55.1146C10.7921 74.3276 46.8782 99.0972 107.379 99.0972C167.876 99.0972 203.964 74.3276 203.964 55.1146Z" fill="black"/>
<path id="Vector_5" fill-rule="evenodd" clip-rule="evenodd" d="M109.843 5.73329C109.843 6.38808 109.583 7.01605 109.121 7.47905C108.658 7.94206 108.03 8.20217 107.376 8.20217C106.722 8.20217 106.094 7.94206 105.632 7.47905C105.169 7.01605 104.909 6.38808 104.909 5.73329C104.909 5.0785 105.169 4.45053 105.632 3.98752C106.094 3.52452 106.722 3.2644 107.376 3.2644C108.03 3.2644 108.658 3.52452 109.121 3.98752C109.583 4.45053 109.843 5.0785 109.843 5.73329ZM101.695 5.80176C101.712 6.12921 101.664 6.45674 101.553 6.76526C101.442 7.07378 101.271 7.3571 101.049 7.59872C100.828 7.84034 100.56 8.03541 100.263 8.17257C99.9652 8.30972 99.6433 8.3862 99.3159 8.39757C98.9884 8.40893 98.662 8.35495 98.3556 8.23875C98.0492 8.12256 97.769 7.94649 97.5314 7.72081C97.2937 7.49512 97.1033 7.22435 96.9713 6.92426C96.8392 6.62418 96.7682 6.30079 96.7624 5.97296C96.7509 5.32516 96.9941 4.69875 97.4398 4.22875C97.8854 3.75875 98.4977 3.48278 99.1448 3.46032C99.7918 3.43787 100.422 3.67072 100.899 4.1087C101.376 4.54668 101.662 5.15472 101.695 5.80176ZM93.5548 6.18329C93.6005 6.83662 93.385 7.48136 92.9557 7.97566C92.5264 8.46997 91.9184 8.77336 91.2655 8.81909C90.6127 8.86482 89.9684 8.64914 89.4745 8.2195C88.9805 7.78986 88.6774 7.18145 88.6317 6.52813C88.609 6.20463 88.6503 5.87984 88.7531 5.5723C88.8559 5.26477 89.0182 4.9805 89.2308 4.73575C89.4434 4.49099 89.7021 4.29054 89.9921 4.14582C90.2821 4.0011 90.5977 3.91496 90.921 3.89232C91.5738 3.84659 92.2181 4.06227 92.712 4.49191C93.206 4.92155 93.5091 5.52996 93.5548 6.18329ZM85.4314 6.85462C85.4779 7.17962 85.4592 7.51064 85.3762 7.82831C85.2933 8.14597 85.1479 8.44389 84.9486 8.70464C84.7492 8.96539 84.4999 9.18372 84.2152 9.34687C83.9305 9.51002 83.6161 9.6147 83.2905 9.6548C82.9649 9.69489 82.6345 9.66958 82.3188 9.58036C82.0031 9.49114 81.7083 9.3398 81.4517 9.13519C81.1952 8.93057 80.9819 8.6768 80.8245 8.38873C80.6672 8.10065 80.5688 7.78406 80.5352 7.45747C80.4689 6.81452 80.6573 6.17123 81.0598 5.66575C81.4624 5.16026 82.0469 4.83291 82.688 4.75398C83.329 4.67505 83.9754 4.85084 84.4884 5.24361C85.0013 5.63637 85.3399 6.21478 85.4314 6.85462ZM77.352 7.91359C77.4027 8.23379 77.3899 8.56085 77.3143 8.8761C77.2387 9.19135 77.1018 9.48861 76.9114 9.75091C76.721 10.0132 76.4809 10.2354 76.2046 10.4048C75.9284 10.5743 75.6216 10.6876 75.3016 10.7383C74.9816 10.7891 74.6548 10.7762 74.3398 10.7006C74.0248 10.6249 73.7277 10.4879 73.4656 10.2974C73.2035 10.1068 72.9815 9.86651 72.8122 9.5901C72.6429 9.31369 72.5297 9.00662 72.479 8.68641C72.3766 8.03959 72.535 7.37856 72.9195 6.84864C73.304 6.31871 73.8831 5.96327 74.5294 5.86046C75.1757 5.75837 75.8361 5.9173 76.3654 6.30229C76.8947 6.68729 77.2496 7.26685 77.352 7.91359ZM69.3203 9.29416C69.3904 9.61256 69.3969 9.94171 69.3392 10.2626C69.2816 10.5835 69.1611 10.8899 68.9846 11.1639C68.8082 11.438 68.5792 11.6744 68.311 11.8595C68.0427 12.0446 67.7406 12.1747 67.4218 12.2423C67.1031 12.3099 66.7742 12.3138 66.454 12.2535C66.1338 12.1933 65.8286 12.0703 65.5562 11.8914C65.2837 11.7126 65.0494 11.4816 64.8666 11.2117C64.6838 10.9418 64.5562 10.6384 64.4912 10.3189C64.3612 9.68032 64.4887 9.01622 64.8458 8.47128C65.2029 7.92635 65.7608 7.54472 66.3978 7.40954C67.0349 7.27436 67.6995 7.39658 68.2469 7.74958C68.7943 8.10259 69.1801 8.65776 69.3203 9.29416ZM61.3643 11.0636C61.4552 11.3791 61.4823 11.7096 61.444 12.0358C61.4058 12.3619 61.3029 12.6772 61.1415 12.9631C60.9801 13.249 60.7633 13.4998 60.5039 13.7008C60.2444 13.9019 59.9475 14.0492 59.6305 14.1341C59.3135 14.2189 58.9828 14.2397 58.6577 14.1952C58.3326 14.1506 58.0196 14.0416 57.7371 13.8746C57.4546 13.7076 57.2081 13.4858 57.0123 13.2224C56.8164 12.9589 56.675 12.659 56.5963 12.3402C56.4413 11.7122 56.5386 11.0484 56.8674 10.4915C57.1962 9.93455 57.7302 9.5289 58.3546 9.3617C58.979 9.19451 59.6441 9.27912 60.2068 9.59735C60.7696 9.91558 61.1852 10.442 61.3643 11.0636ZM53.5133 13.2537C53.6136 13.5619 53.6521 13.8869 53.6268 14.21C53.6015 14.5332 53.5129 14.8482 53.366 15.1371C53.219 15.4259 53.0167 15.683 52.7704 15.8936C52.5242 16.1042 52.239 16.2643 51.9309 16.3645C51.6229 16.4648 51.2982 16.5034 50.9753 16.4781C50.6524 16.4528 50.3376 16.3641 50.0489 16.217C49.7603 16.07 49.5034 15.8675 49.2929 15.6211C49.0825 15.3747 48.9226 15.0892 48.8223 14.781C48.62 14.1585 48.673 13.481 48.9697 12.8976C49.2665 12.3142 49.7827 11.8726 50.4047 11.6701C51.0268 11.4676 51.7038 11.5206 52.2868 11.8176C52.8697 12.1146 53.311 12.6311 53.5133 13.2537ZM45.8078 15.9048C45.9344 16.2095 45.9986 16.5365 45.9967 16.8666C45.9949 17.1966 45.927 17.5229 45.797 17.8262C45.667 18.1295 45.4776 18.4036 45.24 18.6324C45.0024 18.8613 44.7213 19.0401 44.4135 19.1585C44.1056 19.2768 43.7772 19.3322 43.4476 19.3214C43.118 19.3106 42.7939 19.2338 42.4945 19.0955C42.195 18.9573 41.9263 18.7604 41.7042 18.5165C41.4821 18.2726 41.311 17.9866 41.2012 17.6754C40.9869 17.0686 41.0178 16.4022 41.2872 15.8178C41.5566 15.2335 42.0432 14.7775 42.6435 14.5467C43.2438 14.316 43.9103 14.3288 44.5013 14.5824C45.0923 14.8361 45.5611 15.3105 45.8078 15.9048ZM38.2612 18.9851C38.4083 19.277 38.4961 19.5953 38.5193 19.9215C38.5425 20.2476 38.5007 20.5752 38.3964 20.8851C38.2921 21.1949 38.1273 21.481 37.9116 21.7266C37.6959 21.9722 37.4336 22.1725 37.1399 22.3159C36.8462 22.4592 36.527 22.5428 36.2008 22.5616C35.8746 22.5805 35.5479 22.5343 35.2397 22.4258C34.9314 22.3173 34.6478 22.1486 34.4053 21.9295C34.1627 21.7104 33.9661 21.4452 33.8268 21.1495C33.5503 20.5623 33.5159 19.8898 33.7312 19.2775C33.9464 18.6652 34.3939 18.1624 34.9769 17.8778C35.5599 17.5933 36.2314 17.55 36.846 17.7572C37.4607 17.9644 37.9691 18.4055 38.2612 18.9851ZM30.9785 22.6474C31.1505 22.9256 31.2655 23.2352 31.317 23.5582C31.3684 23.8813 31.3552 24.2113 31.2782 24.5292C31.2012 24.8471 31.0618 25.1465 30.8682 25.4101C30.6746 25.6737 30.4306 25.8961 30.1504 26.0646C29.8701 26.233 29.5593 26.344 29.2358 26.3913C28.9124 26.4385 28.5828 26.421 28.2661 26.3397C27.9495 26.2584 27.6522 26.115 27.3914 25.9178C27.1306 25.7206 26.9115 25.4735 26.7469 25.1909C26.4201 24.6298 26.3273 23.9624 26.4885 23.3333C26.6498 22.7042 27.0522 22.164 27.6085 21.8295C28.1649 21.4951 28.8305 21.3934 29.4612 21.5465C30.0919 21.6996 30.637 22.0951 30.9785 22.6474ZM24.0758 26.9811C24.2663 27.2434 24.4033 27.5406 24.479 27.8559C24.5547 28.1712 24.5675 28.4983 24.5168 28.8186C24.4661 29.1388 24.3528 29.4459 24.1834 29.7223C24.014 29.9988 23.7918 30.239 23.5296 30.4295C23.1346 30.7169 22.6634 30.8806 22.1755 30.8999C21.6876 30.9192 21.2049 30.7933 20.7885 30.538C20.3722 30.2827 20.0408 29.9096 19.8364 29.4659C19.6319 29.0221 19.5636 28.5276 19.6401 28.045C19.7165 27.5624 19.9343 27.1133 20.2658 26.7545C20.5974 26.3958 21.0278 26.1435 21.5026 26.0296C21.9775 25.9157 22.4754 25.9453 22.9335 26.1147C23.3915 26.2841 23.789 26.5856 24.0758 26.9811ZM17.6289 31.9764C17.9735 32.3215 18.2082 32.7612 18.3032 33.2399C18.3982 33.7185 18.3492 34.2146 18.1625 34.6654C17.9758 35.1161 17.6598 35.5014 17.2543 35.7725C16.8488 36.0436 16.3722 36.1882 15.8846 36.1882C15.3969 36.1882 14.9203 36.0436 14.5148 35.7725C14.1093 35.5014 13.7933 35.1161 13.6066 34.6654C13.4199 34.2146 13.3709 33.7185 13.4659 33.2399C13.5609 32.7612 13.7956 32.3215 14.1402 31.9764C14.3692 31.747 14.6412 31.5651 14.9405 31.4409C15.2398 31.3168 15.5606 31.2529 15.8846 31.2529C16.2085 31.2529 16.5293 31.3168 16.8286 31.4409C17.1279 31.5651 17.3999 31.747 17.6289 31.9764ZM12.0312 37.9058C12.3075 38.0872 12.5445 38.3223 12.7283 38.597C12.9122 38.8718 13.039 39.1807 13.1013 39.5054C13.1636 39.8301 13.1601 40.1641 13.091 40.4874C13.022 40.8108 12.8887 41.117 12.6992 41.3878C12.5097 41.6587 12.2678 41.8887 11.9878 42.0643C11.7078 42.2399 11.3955 42.3574 11.0693 42.4099C10.743 42.4624 10.4096 42.4489 10.0887 42.37C9.76782 42.2912 9.46602 42.1487 9.2012 41.9509C8.68685 41.5669 8.34219 40.9975 8.24027 40.3635C8.13835 39.7294 8.2872 39.0806 8.65525 38.5545C9.0233 38.0284 9.58161 37.6665 10.2118 37.5454C10.8421 37.4243 11.4946 37.5536 12.0312 37.9058ZM7.64201 44.794C8.26099 45.0073 8.76998 45.4578 9.057 46.0466C9.34402 46.6354 9.38556 47.3142 9.17248 47.9336C8.9594 48.5531 8.50915 49.0624 7.92079 49.3497C7.33243 49.6369 6.65415 49.6785 6.03517 49.4652C5.41618 49.252 4.90719 48.8014 4.62017 48.2126C4.47806 47.9211 4.39471 47.6044 4.3749 47.2806C4.35509 46.9568 4.39919 46.6323 4.5047 46.3256C4.6102 46.0189 4.77505 45.736 4.98981 45.493C5.20457 45.25 5.46506 45.0518 5.75638 44.9096C6.34474 44.6223 7.02302 44.5808 7.64201 44.794ZM109.848 104.497C109.848 104.822 109.784 105.143 109.66 105.442C109.536 105.742 109.354 106.014 109.125 106.244C108.895 106.473 108.623 106.655 108.324 106.779C108.024 106.903 107.703 106.967 107.379 106.967C107.055 106.967 106.734 106.903 106.435 106.779C106.135 106.654 105.863 106.472 105.634 106.243C105.405 106.013 105.223 105.741 105.099 105.441C104.975 105.142 104.911 104.82 104.911 104.496C104.912 103.841 105.172 103.213 105.635 102.75C106.098 102.286 106.726 102.026 107.38 102.027C108.035 102.027 108.663 102.287 109.126 102.75C109.588 103.214 109.848 103.842 109.848 104.497ZM101.698 104.428C101.702 104.762 101.638 105.093 101.511 105.402C101.383 105.711 101.194 105.991 100.955 106.224C100.716 106.458 100.433 106.641 100.121 106.762C99.8099 106.882 99.4772 106.939 99.1434 106.927C98.8097 106.915 98.4817 106.836 98.1795 106.694C97.8772 106.551 97.6069 106.349 97.385 106.1C97.1631 105.85 96.9942 105.558 96.8884 105.241C96.7826 104.923 96.7423 104.588 96.7697 104.255C96.8219 103.622 97.1155 103.034 97.5896 102.612C98.0637 102.19 98.6819 101.968 99.3159 101.99C99.9499 102.012 100.551 102.278 100.995 102.731C101.438 103.185 101.69 103.793 101.698 104.428ZM93.5573 104.046C93.5372 104.371 93.453 104.69 93.3095 104.982C93.166 105.275 92.966 105.536 92.721 105.751C92.4761 105.966 92.191 106.13 91.8824 106.234C91.5737 106.338 91.2475 106.38 90.9226 106.357C90.5977 106.334 90.2805 106.247 89.9893 106.101C89.6981 105.955 89.4387 105.753 89.2261 105.506C89.0134 105.259 88.8518 104.972 88.7504 104.663C88.649 104.353 88.6099 104.026 88.6353 103.701C88.6862 103.052 88.9913 102.449 89.4843 102.024C89.9772 101.599 90.618 101.386 91.2672 101.431C91.9163 101.477 92.5212 101.777 92.9502 102.267C93.3791 102.757 93.5973 103.396 93.5573 104.046ZM85.4351 103.376C85.4015 103.703 85.3032 104.02 85.1457 104.308C84.9883 104.596 84.775 104.85 84.5183 105.055C84.2616 105.26 83.9667 105.411 83.6507 105.5C83.3348 105.59 83.0043 105.615 82.6785 105.575C82.3526 105.535 82.0381 105.43 81.7532 105.267C81.4683 105.104 81.2188 104.885 81.0194 104.624C80.8199 104.363 80.6744 104.065 80.5915 103.747C80.5086 103.43 80.4898 103.098 80.5364 102.773C80.628 102.133 80.9667 101.554 81.4799 101.162C81.9931 100.769 82.6397 100.593 83.281 100.672C83.9223 100.751 84.5071 101.078 84.9099 101.584C85.3126 102.089 85.5012 102.733 85.4351 103.376ZM77.3545 102.316C77.308 102.64 77.1976 102.951 77.0298 103.232C76.8619 103.513 76.6399 103.758 76.3767 103.952C76.1135 104.147 75.8143 104.287 75.4965 104.364C75.1788 104.442 74.8487 104.456 74.5256 104.405C74.2025 104.354 73.8928 104.239 73.6145 104.067C73.3361 103.895 73.0947 103.669 72.9043 103.403C72.7139 103.137 72.5782 102.835 72.5052 102.516C72.4322 102.197 72.4232 101.867 72.479 101.544C72.5894 100.905 72.9469 100.334 73.4742 99.9565C74.0015 99.5787 74.6562 99.4237 75.2967 99.5251C75.9373 99.6264 76.5123 99.976 76.8973 100.498C77.2824 101.02 77.4466 101.673 77.3545 102.316ZM69.3215 100.936C69.2541 101.254 69.1249 101.554 68.9414 101.822C68.7578 102.089 68.5235 102.317 68.2517 102.494C67.98 102.67 67.6761 102.792 67.3576 102.851C67.039 102.91 66.7119 102.905 66.395 102.838C66.078 102.77 65.7775 102.641 65.5105 102.458C65.2435 102.274 65.0152 102.039 64.8388 101.767C64.6624 101.495 64.5412 101.191 64.4821 100.873C64.4231 100.554 64.4274 100.226 64.4948 99.9092C64.631 99.2687 65.0158 98.7085 65.5646 98.3519C66.1134 97.9953 66.7813 97.8715 67.4214 98.0077C68.0614 98.1439 68.6212 98.529 68.9775 99.0782C69.3339 99.6275 69.4576 100.296 69.3215 100.936ZM61.3655 99.1657C61.2887 99.4866 61.1485 99.7889 60.9531 100.055C60.7578 100.32 60.5111 100.544 60.2278 100.713C59.9445 100.882 59.6303 100.992 59.3037 101.038C58.9771 101.083 58.6447 101.062 58.3263 100.977C58.0078 100.892 57.7096 100.743 57.4493 100.541C57.1891 100.338 56.9721 100.085 56.811 99.7972C56.65 99.5093 56.5482 99.192 56.5118 98.8641C56.4753 98.5361 56.5049 98.2042 56.5987 97.8879C56.7818 97.2709 57.1982 96.7497 57.7595 96.4354C58.3207 96.1211 58.9824 96.0384 59.6036 96.2049C60.2249 96.3715 60.7566 96.7741 61.0857 97.3271C61.4148 97.8801 61.5152 98.5398 61.3655 99.1657ZM53.5146 96.9757C53.4145 97.284 53.2548 97.5696 53.0444 97.8161C52.8341 98.0626 52.5773 98.2653 52.2887 98.4125C52.0001 98.5597 51.6853 98.6486 51.3624 98.6741C51.0395 98.6996 50.7147 98.6612 50.4066 98.5611C49.7844 98.3589 49.2679 97.9176 48.9708 97.3343C48.8237 97.0455 48.7348 96.7305 48.7094 96.4073C48.6839 96.0841 48.7223 95.7591 48.8223 95.4508C49.0244 94.8281 49.4654 94.3113 50.0482 94.014C50.6311 93.7166 51.3081 93.6632 51.9303 93.8654C52.5526 94.0676 53.069 94.5089 53.3661 95.0922C53.6632 95.6755 53.7166 96.353 53.5146 96.9757ZM45.8078 94.3246C45.698 94.6357 45.5269 94.9217 45.3048 95.1656C45.0827 95.4096 44.8139 95.6065 44.5145 95.7447C44.215 95.8829 43.891 95.9597 43.5614 95.9705C43.2318 95.9814 42.9033 95.926 42.5955 95.8076C42.2876 95.6893 42.0066 95.5105 41.769 95.2816C41.5314 95.0528 41.342 94.7786 41.212 94.4753C41.082 94.172 41.0141 93.8457 41.0122 93.5157C41.0104 93.1857 41.0746 92.8587 41.2012 92.5539C41.4479 91.9597 41.9167 91.4852 42.5076 91.2316C43.0986 90.978 43.7652 90.9652 44.3655 91.1959C44.9658 91.4266 45.4524 91.8827 45.7218 92.467C45.9912 93.0513 46.022 93.7178 45.8078 94.3246ZM38.2612 91.2443C38.1193 91.5357 37.9213 91.7964 37.6788 92.0113C37.4362 92.2262 37.1537 92.3912 36.8474 92.4969C36.5411 92.6025 36.217 92.6468 35.8936 92.6271C35.5702 92.6074 35.2538 92.5241 34.9626 92.3821C34.6713 92.2401 34.4109 92.042 34.1961 91.7993C33.9814 91.5565 33.8165 91.2738 33.7109 90.9673C33.6053 90.6607 33.5611 90.3364 33.5808 90.0128C33.6005 89.6891 33.6836 89.3726 33.8256 89.0811C34.1122 88.4925 34.6208 88.0419 35.2394 87.8285C35.858 87.6151 36.536 87.6564 37.1242 87.9433C37.7124 88.2301 38.1626 88.7391 38.3758 89.3581C38.5891 89.9772 38.5478 90.6556 38.2612 91.2443ZM30.9772 87.5831C30.2759 88.7522 28.7607 89.13 27.5913 88.4269C26.4219 87.7238 26.0443 86.2087 26.7481 85.0384C26.9151 84.7606 27.1351 84.5183 27.3957 84.3255C27.6562 84.1327 27.9521 83.9931 28.2665 83.9148C28.5809 83.8364 28.9077 83.8208 29.2281 83.8689C29.5486 83.9169 29.8564 84.0276 30.1341 84.1947C30.4118 84.3618 30.6539 84.582 30.8465 84.8427C31.0392 85.1034 31.1786 85.3995 31.2569 85.7142C31.3352 86.0288 31.3508 86.3558 31.3028 86.6765C31.2549 86.9972 31.1442 87.3052 30.9772 87.5831ZM24.0758 83.2482C23.888 83.5175 23.6485 83.7466 23.3713 83.9221C23.094 84.0977 22.7846 84.2161 22.461 84.2706C22.1375 84.3251 21.8063 84.3144 21.4869 84.2393C21.1675 84.1642 20.8663 84.0261 20.6009 83.8332C20.3354 83.6402 20.1111 83.3962 19.941 83.1155C19.7708 82.8347 19.6584 82.5228 19.6101 82.1981C19.5618 81.8733 19.5788 81.5422 19.6599 81.2241C19.741 80.9059 19.8847 80.6072 20.0825 80.3452C20.4723 79.8291 21.049 79.4867 21.6885 79.3915C22.3279 79.2963 22.9792 79.456 23.5023 79.8363C24.0253 80.2165 24.3784 80.7869 24.4857 81.425C24.5929 82.063 24.4457 82.7176 24.0758 83.2482ZM17.6276 78.2542C17.4003 78.4919 17.1278 78.6818 16.8262 78.8126C16.5245 78.9435 16.1998 79.0128 15.871 79.0163C15.5423 79.0199 15.2161 78.9577 14.9117 78.8333C14.6073 78.709 14.3308 78.5251 14.0984 78.2924C13.866 78.0596 13.6824 77.7828 13.5584 77.4781C13.4344 77.1734 13.3724 76.8469 13.3762 76.5179C13.38 76.1889 13.4494 75.864 13.5804 75.5622C13.7114 75.2605 13.9013 74.9879 14.139 74.7606C14.6054 74.3146 15.2277 74.069 15.8728 74.0764C16.5178 74.0838 17.1343 74.3437 17.5903 74.8003C18.0463 75.257 18.3056 75.8741 18.3125 76.5197C18.3195 77.1652 18.0737 77.7878 17.6276 78.2542ZM12.0275 72.3247C11.762 72.5108 11.4625 72.6426 11.1461 72.7128C10.8297 72.783 10.5025 72.7902 10.1834 72.7339C9.86417 72.6775 9.5592 72.5589 9.28585 72.3846C9.0125 72.2103 8.77613 71.9839 8.59023 71.7182C8.40433 71.4525 8.27254 71.1528 8.20239 70.8361C8.13224 70.5195 8.1251 70.1921 8.18138 69.8727C8.23766 69.5533 8.35626 69.2481 8.5304 68.9745C8.70454 68.701 8.93081 68.4644 9.19631 68.2784C9.73249 67.9027 10.3959 67.7555 11.0405 67.8692C11.6851 67.983 12.2582 68.3483 12.6336 68.8849C13.009 69.4215 13.1561 70.0853 13.0424 70.7304C12.9288 71.3755 12.5637 71.949 12.0275 72.3247ZM7.63834 65.4365C7.33024 65.5487 7.0029 65.5984 6.67542 65.5826C6.34794 65.5667 6.02689 65.4858 5.73101 65.3445C5.43513 65.2031 5.17036 65.0042 4.95215 64.7593C4.73394 64.5144 4.56666 64.2285 4.46009 63.9182C4.35352 63.6079 4.30979 63.2795 4.33144 62.9521C4.3531 62.6248 4.43972 62.305 4.58624 62.0115C4.73275 61.7179 4.93623 61.4566 5.1848 61.2426C5.43336 61.0287 5.72203 60.8664 6.03395 60.7653C6.64946 60.5659 7.31863 60.6162 7.89741 60.9056C8.47619 61.1949 8.91832 61.7001 9.12862 62.3124C9.33892 62.9247 9.30059 63.5951 9.02187 64.1794C8.74315 64.7637 8.24633 65.2152 7.63834 65.4365ZM5.48285 57.5823C5.15555 57.5993 4.82814 57.5509 4.51974 57.4399C4.21134 57.3289 3.92811 57.1575 3.6866 56.9358C3.44508 56.7141 3.2501 56.4464 3.11304 56.1485C2.97598 55.8506 2.89958 55.5283 2.8883 55.2005C2.87702 54.8727 2.93109 54.546 3.04735 54.2393C3.16361 53.9327 3.33973 53.6523 3.56544 53.4144C3.79115 53.1766 4.06192 52.9862 4.36196 52.8542C4.66201 52.7222 4.98531 52.6514 5.31301 52.6458C5.96013 52.6347 6.58571 52.8785 7.05499 53.3245C7.52427 53.7706 7.79971 54.3832 7.82198 55.0305C7.84426 55.6778 7.61158 56.308 7.17406 56.7853C6.73655 57.2626 6.12921 57.5488 5.48285 57.5823ZM209.448 52.647C209.771 52.6582 210.09 52.7332 210.384 52.8675C210.679 53.0018 210.945 53.193 211.165 53.4299C211.386 53.6669 211.559 53.9451 211.672 54.2487C211.785 54.5522 211.838 54.8751 211.827 55.199C211.816 55.5229 211.741 55.8415 211.607 56.1364C211.472 56.4313 211.281 56.6969 211.045 56.918C210.808 57.1391 210.53 57.3113 210.226 57.4249C209.923 57.5385 209.6 57.5911 209.277 57.5799C208.623 57.5572 208.005 57.2756 207.559 56.797C207.113 56.3184 206.875 55.682 206.898 55.0278C206.92 54.3737 207.202 53.7554 207.68 53.3089C208.158 52.8624 208.794 52.6243 209.448 52.647ZM208.724 60.7666C209.034 60.8696 209.32 61.033 209.566 61.2473C209.812 61.4616 210.013 61.7226 210.157 62.0152C210.302 62.3078 210.387 62.6261 210.408 62.9518C210.428 63.2775 210.385 63.6041 210.278 63.9126C210.172 64.2212 210.006 64.5057 209.789 64.7496C209.573 64.9935 209.31 65.192 209.016 65.3336C208.722 65.4752 208.403 65.5571 208.078 65.5746C207.752 65.592 207.426 65.5447 207.119 65.4353C206.506 65.2174 206.005 64.7664 205.723 64.1804C205.441 63.5944 205.401 62.9208 205.613 62.3058C205.824 61.6908 206.27 61.1841 206.852 60.8959C207.435 60.6077 208.108 60.5612 208.724 60.7666ZM205.561 68.2796C205.837 68.461 206.074 68.696 206.258 68.9708C206.442 69.2456 206.569 69.5545 206.631 69.8792C206.693 70.2039 206.69 70.5378 206.621 70.8612C206.552 71.1846 206.418 71.4907 206.229 71.7616C206.039 72.0325 205.797 72.2625 205.517 72.4381C205.237 72.6137 204.925 72.7312 204.599 72.7837C204.273 72.8362 203.939 72.8226 203.618 72.7438C203.297 72.665 202.996 72.5225 202.731 72.3247C202.216 71.9407 201.872 71.3713 201.77 70.7372C201.668 70.1032 201.817 69.4543 202.185 68.9283C202.553 68.4022 203.111 68.0402 203.741 67.9191C204.372 67.798 205.024 67.9273 205.561 68.2796ZM200.621 74.7618C201.083 75.2248 201.343 75.8527 201.343 76.5074C201.343 77.1621 201.083 77.79 200.621 78.253C200.158 78.7159 199.53 78.976 198.876 78.976C198.222 78.976 197.595 78.7159 197.132 78.253C196.903 78.0238 196.721 77.7516 196.597 77.4521C196.473 77.1526 196.409 76.8316 196.409 76.5074C196.409 76.1832 196.473 75.8622 196.597 75.5627C196.721 75.2632 196.903 74.991 197.132 74.7618C197.361 74.5326 197.633 74.3507 197.932 74.2267C198.232 74.1026 198.552 74.0388 198.876 74.0388C199.2 74.0388 199.521 74.1026 199.82 74.2267C200.12 74.3507 200.391 74.5326 200.621 74.7618ZM194.675 80.3465C194.873 80.6081 195.018 80.9069 195.1 81.2253C195.182 81.5436 195.199 81.875 195.151 82.2002C195.103 82.5254 194.991 82.8378 194.821 83.1189C194.651 83.4001 194.426 83.6445 194.161 83.8377C193.895 84.0309 193.593 84.169 193.273 84.2441C192.954 84.3191 192.622 84.3295 192.298 84.2746C191.975 84.2196 191.665 84.1006 191.388 83.9243C191.11 83.7481 190.871 83.5182 190.684 83.2482C190.316 82.7179 190.17 82.0645 190.278 81.4279C190.386 80.7914 190.738 80.2225 191.26 79.843C191.782 79.4635 192.432 79.3037 193.07 79.3978C193.708 79.4919 194.284 79.8325 194.675 80.3465ZM188.009 85.0397C188.26 85.458 188.382 85.9415 188.359 86.429C188.335 86.9165 188.168 87.3861 187.878 87.7785C187.588 88.1709 187.188 88.4684 186.729 88.6334C186.27 88.7984 185.773 88.8235 185.299 88.7055C184.826 88.5875 184.398 88.3317 184.071 87.9704C183.743 87.6092 183.529 87.1587 183.457 86.676C183.385 86.1933 183.457 85.7 183.665 85.2586C183.873 84.8171 184.207 84.4473 184.625 84.1959C184.903 84.0285 185.211 83.9176 185.531 83.8694C185.851 83.8212 186.178 83.8367 186.492 83.9151C186.807 83.9935 187.102 84.1332 187.363 84.3261C187.623 84.5191 187.843 84.7616 188.009 85.0397ZM180.93 89.0787C181.217 89.6671 181.259 90.3455 181.046 90.9646C180.833 91.5836 180.383 92.0927 179.795 92.3797C179.207 92.6667 178.529 92.7082 177.91 92.495C177.291 92.2819 176.783 91.8315 176.496 91.243C176.219 90.6559 176.185 89.9834 176.4 89.3711C176.616 88.7588 177.063 88.256 177.646 87.9714C178.229 87.6869 178.901 87.6436 179.515 87.8508C180.13 88.058 180.638 88.4991 180.93 89.0787ZM173.556 92.5552C173.689 92.861 173.759 93.1908 173.762 93.5245C173.764 93.8582 173.699 94.1889 173.57 94.4967C173.442 94.8046 173.252 95.0831 173.012 95.3155C172.773 95.5478 172.489 95.7293 172.178 95.8489C171.867 95.9684 171.534 96.0236 171.201 96.0111C170.868 95.9986 170.541 95.9186 170.239 95.7761C169.938 95.6335 169.668 95.4313 169.447 95.1816C169.226 94.9319 169.057 94.64 168.952 94.3234C168.751 93.72 168.79 93.0624 169.062 92.4874C169.333 91.9125 169.816 91.4644 170.409 91.2366C171.002 91.0088 171.661 91.0187 172.247 91.2643C172.833 91.5099 173.302 91.9723 173.556 92.5552ZM165.936 95.4496C166.036 95.7579 166.075 96.083 166.05 96.4062C166.024 96.7295 165.936 97.0446 165.789 97.3336C165.642 97.6226 165.44 97.8798 165.193 98.0905C164.947 98.3012 164.662 98.4613 164.354 98.5617C164.046 98.662 163.721 98.7007 163.398 98.6754C163.075 98.6502 162.76 98.5615 162.471 98.4144C162.182 98.2674 161.925 98.0648 161.715 97.8184C161.504 97.572 161.344 97.2864 161.244 96.9781C161.041 96.3554 161.094 95.6777 161.391 95.0941C161.688 94.5105 162.204 94.0687 162.826 93.866C163.448 93.6633 164.126 93.7163 164.709 94.0133C165.292 94.3102 165.733 94.8269 165.936 95.4496ZM158.158 97.8879C158.242 98.2011 158.264 98.5278 158.221 98.8493C158.179 99.1708 158.074 99.4808 157.912 99.7616C157.75 100.042 157.534 100.288 157.277 100.486C157.02 100.683 156.726 100.828 156.413 100.912C156.1 100.996 155.774 101.017 155.453 100.975C155.132 100.933 154.822 100.827 154.541 100.665C154.261 100.503 154.015 100.287 153.817 100.03C153.62 99.7726 153.475 99.479 153.392 99.1657C153.242 98.5398 153.342 97.8801 153.671 97.3271C154 96.7741 154.532 96.3715 155.153 96.2049C155.775 96.0384 156.436 96.1211 156.998 96.4354C157.559 96.7497 157.975 97.2709 158.158 97.8879ZM150.263 99.9092C150.338 100.229 150.347 100.56 150.292 100.884C150.237 101.207 150.118 101.517 149.942 101.794C149.766 102.07 149.536 102.31 149.267 102.497C148.997 102.684 148.693 102.815 148.372 102.884C148.052 102.952 147.72 102.956 147.398 102.894C147.076 102.833 146.769 102.708 146.496 102.527C146.222 102.345 145.988 102.111 145.806 101.838C145.624 101.565 145.498 101.259 145.436 100.936C145.313 100.301 145.444 99.6427 145.801 99.1032C146.159 98.5637 146.713 98.186 147.346 98.0515C147.978 97.9169 148.638 98.0361 149.184 98.3835C149.73 98.7309 150.117 99.2788 150.263 99.9092ZM142.277 101.543C142.328 101.863 142.315 102.19 142.24 102.506C142.164 102.821 142.027 103.118 141.837 103.381C141.647 103.643 141.407 103.865 141.131 104.035C140.855 104.204 140.548 104.318 140.228 104.369C139.908 104.42 139.581 104.407 139.266 104.332C138.951 104.256 138.654 104.119 138.391 103.929C138.129 103.738 137.907 103.498 137.738 103.222C137.568 102.945 137.455 102.638 137.404 102.318C137.301 101.672 137.459 101.01 137.844 100.481C138.228 99.9505 138.807 99.5951 139.453 99.4922C140.099 99.3894 140.76 99.5477 141.289 99.9323C141.819 100.317 142.174 100.896 142.277 101.543ZM134.221 102.774C134.26 103.096 134.236 103.423 134.149 103.735C134.063 104.047 133.916 104.34 133.716 104.595C133.517 104.851 133.269 105.064 132.987 105.224C132.705 105.384 132.394 105.486 132.073 105.526C131.751 105.565 131.425 105.541 131.113 105.454C130.8 105.368 130.508 105.22 130.253 105.021C129.998 104.821 129.784 104.573 129.625 104.291C129.465 104.009 129.363 103.698 129.323 103.376C129.284 103.054 129.308 102.728 129.394 102.415C129.481 102.103 129.628 101.81 129.827 101.555C130.027 101.299 130.275 101.086 130.557 100.926C130.839 100.766 131.15 100.664 131.471 100.625C131.793 100.585 132.119 100.609 132.432 100.695C132.744 100.782 133.036 100.929 133.292 101.129C133.547 101.328 133.76 101.577 133.92 101.859C134.079 102.141 134.182 102.452 134.221 102.774ZM126.123 103.7C126.146 104.023 126.105 104.348 126.002 104.656C125.9 104.963 125.737 105.248 125.525 105.493C125.312 105.737 125.053 105.938 124.763 106.082C124.473 106.227 124.158 106.313 123.834 106.335C123.348 106.369 122.862 106.258 122.438 106.016C122.014 105.774 121.672 105.411 121.454 104.974C121.236 104.537 121.153 104.045 121.215 103.561C121.276 103.077 121.48 102.621 121.8 102.253C122.12 101.884 122.542 101.619 123.013 101.49C123.484 101.362 123.982 101.376 124.445 101.531C124.907 101.686 125.314 101.975 125.613 102.361C125.911 102.747 126.089 103.213 126.123 103.7ZM117.991 104.255C118.008 104.582 117.959 104.909 117.848 105.217C117.737 105.525 117.566 105.808 117.345 106.049C117.124 106.29 116.857 106.485 116.56 106.622C116.263 106.759 115.941 106.836 115.614 106.847C115.288 106.859 114.962 106.805 114.656 106.69C114.349 106.574 114.07 106.399 113.832 106.174C113.594 105.949 113.404 105.679 113.271 105.379C113.139 105.08 113.067 104.757 113.061 104.43C113.047 103.782 113.29 103.155 113.735 102.684C114.18 102.213 114.792 101.936 115.44 101.913C116.087 101.89 116.718 102.123 117.195 102.561C117.672 102.999 117.958 103.608 117.991 104.255Z" fill="#BB2534"/>
<path id="Vector_6" fill-rule="evenodd" clip-rule="evenodd" d="M104.914 5.73329C104.914 5.07818 105.174 4.4499 105.637 3.98666C106.1 3.52343 106.727 3.26318 107.382 3.26318C108.037 3.26318 108.665 3.52343 109.127 3.98666C109.59 4.4499 109.85 5.07818 109.85 5.73329C109.85 6.38841 109.59 7.01669 109.127 7.47992C108.665 7.94316 108.037 8.2034 107.382 8.2034C106.727 8.2034 106.1 7.94316 105.637 7.47992C105.174 7.01669 104.914 6.38841 104.914 5.73329ZM113.063 5.80177C113.069 5.47429 113.141 5.1514 113.274 4.85189C113.406 4.55237 113.597 4.28221 113.835 4.05713C114.072 3.83204 114.352 3.65654 114.659 3.54082C114.965 3.4251 115.291 3.37147 115.618 3.38307C115.945 3.39466 116.267 3.47125 116.564 3.60836C116.861 3.74547 117.128 3.94037 117.349 4.18173C117.571 4.42308 117.742 4.70607 117.853 5.01421C117.964 5.32236 118.012 5.64951 117.996 5.97664C117.963 6.62441 117.677 7.23327 117.199 7.67175C116.722 8.11024 116.091 8.34315 115.443 8.32019C114.796 8.29723 114.183 8.02024 113.737 7.54904C113.292 7.07784 113.05 6.45024 113.063 5.80177ZM121.203 6.18329C121.223 5.85796 121.308 5.53981 121.451 5.24722C121.595 4.95462 121.795 4.69335 122.04 4.4785C122.285 4.26366 122.57 4.09947 122.878 3.99543C123.187 3.89138 123.513 3.84953 123.838 3.8723C124.163 3.89506 124.48 3.98199 124.771 4.12806C125.063 4.27413 125.322 4.47646 125.535 4.72336C125.747 4.97027 125.909 5.25687 126.01 5.56663C126.112 5.87639 126.151 6.20318 126.125 6.52813C126.074 7.17736 125.769 7.78018 125.276 8.20532C124.783 8.63047 124.143 8.84349 123.494 8.79801C122.844 8.75253 122.239 8.45223 121.811 7.9625C121.382 7.47277 121.163 6.83328 121.203 6.18329ZM129.326 6.85462C129.405 6.2047 129.74 5.61309 130.255 5.20994C130.511 5.01031 130.803 4.86297 131.115 4.77632C131.427 4.68966 131.753 4.66539 132.075 4.7049C132.396 4.7444 132.707 4.8469 132.989 5.00655C133.271 5.1662 133.519 5.37986 133.718 5.63535C133.918 5.89084 134.065 6.18314 134.152 6.49558C134.238 6.80801 134.263 7.13444 134.223 7.45625C134.143 8.10618 133.809 8.69779 133.293 9.10094C132.778 9.50409 132.123 9.68576 131.474 9.60598C130.824 9.5262 130.233 9.1915 129.83 8.67553C129.427 8.15955 129.246 7.50455 129.326 6.85462ZM137.406 7.91359C137.454 7.59034 137.565 7.27971 137.733 6.9997C137.901 6.71969 138.123 6.47586 138.386 6.28233C138.649 6.08881 138.948 5.94942 139.265 5.87226C139.583 5.79509 139.912 5.78168 140.234 5.8328C140.557 5.88391 140.866 5.99854 141.144 6.17004C141.422 6.34154 141.663 6.5665 141.853 6.83191C142.044 7.09732 142.18 7.39789 142.253 7.71622C142.327 8.03455 142.336 8.36431 142.282 8.68642C142.173 9.32751 141.816 9.89977 141.288 10.279C140.76 10.6583 140.104 10.8139 139.462 10.7122C138.82 10.6104 138.245 10.2595 137.86 9.7356C137.475 9.21167 137.312 8.55698 137.406 7.91359ZM145.437 9.29416C145.584 8.66515 145.972 8.11897 146.517 7.77272C147.062 7.42648 147.721 7.30773 148.353 7.44193C148.984 7.57613 149.538 7.95261 149.895 8.49064C150.253 9.02867 150.385 9.68543 150.265 10.3201C150.117 10.9491 149.729 11.4953 149.184 11.8416C148.639 12.1878 147.98 12.3066 147.349 12.1723C146.717 12.0381 146.163 11.6617 145.806 11.1236C145.449 10.5856 145.316 9.92884 145.437 9.29416ZM153.394 11.0636C153.577 10.4466 153.994 9.92544 154.555 9.61111C155.116 9.29677 155.778 9.21408 156.399 9.38062C157.02 9.54716 157.552 9.94979 157.881 10.5028C158.21 11.0558 158.31 11.7155 158.161 12.3414C157.978 12.9584 157.561 13.4796 157 13.7939C156.439 14.1083 155.777 14.191 155.156 14.0244C154.535 13.8579 154.003 13.4552 153.674 12.9022C153.345 12.3492 153.244 11.6895 153.394 11.0636ZM161.244 13.2537C161.338 12.9385 161.495 12.6454 161.704 12.3917C161.914 12.1379 162.171 11.9286 162.463 11.7759C162.754 11.6233 163.073 11.5305 163.401 11.5029C163.728 11.4753 164.058 11.5135 164.371 11.6153C164.684 11.717 164.973 11.8803 165.222 12.0955C165.47 12.3107 165.674 12.5734 165.82 12.8683C165.966 13.1632 166.051 13.4843 166.071 13.8128C166.091 14.1412 166.046 14.4704 165.937 14.781C165.724 15.3901 165.281 15.8916 164.703 16.178C164.125 16.4643 163.458 16.5129 162.844 16.3133C162.231 16.1137 161.72 15.6818 161.421 15.11C161.122 14.5381 161.058 13.8718 161.244 13.2537ZM168.95 15.9048C169.439 14.6306 170.866 13.9959 172.138 14.4838C173.41 14.9717 174.046 16.4012 173.556 17.673C173.44 17.9758 173.266 18.2529 173.043 18.4882C172.82 18.7236 172.553 18.9127 172.258 19.0447C171.962 19.1767 171.643 19.249 171.319 19.2574C170.995 19.2659 170.673 19.2103 170.37 19.0939C170.068 18.978 169.791 18.8036 169.556 18.5806C169.32 18.3575 169.131 18.0902 168.999 17.794C168.868 17.4978 168.795 17.1784 168.787 16.8543C168.779 16.5301 168.834 16.2074 168.95 15.9048ZM176.496 18.9851C176.783 18.3964 177.291 17.9459 177.91 17.7326C178.529 17.5194 179.207 17.5608 179.795 17.8478C180.383 18.1348 180.833 18.6439 181.047 19.2631C181.26 19.8823 181.218 20.5608 180.931 21.1495C180.645 21.7381 180.136 22.1886 179.517 22.4019C178.898 22.6151 178.22 22.5737 177.632 22.2867C177.044 21.9997 176.594 21.4906 176.381 20.8714C176.168 20.2522 176.209 19.5737 176.496 18.9851ZM183.78 22.6474C183.942 22.3614 184.161 22.1109 184.421 21.9105C184.682 21.7101 184.98 21.5639 185.298 21.4804C185.617 21.397 185.948 21.378 186.274 21.4247C186.599 21.4713 186.912 21.5826 187.194 21.752C187.476 21.9214 187.721 22.1454 187.915 22.411C188.109 22.6766 188.248 22.9783 188.324 23.2985C188.4 23.6187 188.411 23.9508 188.357 24.2753C188.303 24.5999 188.185 24.9104 188.009 25.1884C187.664 25.7334 187.121 26.1219 186.494 26.2708C185.867 26.4197 185.206 26.3173 184.654 25.9853C184.102 25.6534 183.701 25.1184 183.537 24.4946C183.374 23.8708 183.461 23.2078 183.78 22.6474ZM190.682 26.9811C190.873 26.7189 191.113 26.4967 191.389 26.3274C191.665 26.158 191.972 26.0448 192.292 25.9941C192.612 25.9434 192.939 25.9562 193.254 26.0319C193.569 26.1076 193.866 26.2446 194.128 26.4351C194.39 26.6257 194.612 26.866 194.781 27.1424C194.95 27.4187 195.063 27.7258 195.114 28.0459C195.165 28.3661 195.152 28.6931 195.076 29.0083C195.001 29.3235 194.864 29.6206 194.673 29.8829C194.289 30.4125 193.71 30.7675 193.064 30.8699C192.418 30.9723 191.757 30.8137 191.228 30.4289C190.699 30.0441 190.344 29.4646 190.242 28.8181C190.139 28.1715 190.298 27.5107 190.682 26.9811ZM197.128 31.9764C197.473 31.6314 197.912 31.3966 198.391 31.3016C198.869 31.2065 199.365 31.2555 199.815 31.4423C200.266 31.6291 200.651 31.9454 200.922 32.3512C201.192 32.7569 201.337 33.234 201.337 33.7219C201.337 34.2099 201.192 34.6869 200.922 35.0927C200.651 35.4985 200.266 35.8147 199.815 36.0016C199.365 36.1884 198.869 36.2374 198.391 36.1423C197.912 36.0473 197.473 35.8124 197.128 35.4675C196.899 35.2384 196.717 34.9662 196.593 34.6667C196.469 34.3672 196.405 34.0462 196.405 33.7219C196.405 33.3977 196.469 33.0767 196.593 32.7772C196.717 32.4776 196.899 32.2055 197.128 31.9764ZM202.727 37.9058C202.992 37.7199 203.292 37.5881 203.608 37.5179C203.925 37.4477 204.252 37.4406 204.571 37.4969C204.89 37.5533 205.195 37.6719 205.468 37.8461C205.741 38.0204 205.977 38.2468 206.163 38.5124C206.349 38.778 206.481 39.0776 206.551 39.3941C206.621 39.7107 206.628 40.038 206.572 40.3573C206.515 40.6766 206.397 40.9817 206.223 41.2551C206.049 41.5285 205.822 41.765 205.557 41.9509C205.021 42.3265 204.358 42.4736 203.713 42.3598C203.069 42.2461 202.496 41.8808 202.121 41.3444C201.746 40.808 201.599 40.1444 201.712 39.4995C201.826 38.8547 202.191 38.2814 202.727 37.9058ZM207.116 44.794C207.423 44.6885 207.747 44.6444 208.07 44.6643C208.393 44.6841 208.71 44.7675 209.001 44.9096C209.292 45.0518 209.552 45.25 209.767 45.4928C209.982 45.7357 210.146 46.0184 210.252 46.325C210.357 46.6316 210.401 46.9559 210.381 47.2795C210.362 47.6031 210.278 47.9196 210.136 48.211C209.994 48.5023 209.796 48.7628 209.553 48.9776C209.311 49.1924 209.028 49.3573 208.722 49.4628C208.103 49.6758 207.425 49.6342 206.837 49.3471C206.249 49.06 205.799 48.5509 205.586 47.9318C205.373 47.3127 205.415 46.6343 205.702 46.0458C205.989 45.4574 206.498 45.0071 207.116 44.794Z" fill="#BB2534"/>
<path id="Vector_7" fill-rule="evenodd" clip-rule="evenodd" d="M28.2168 72.3185H38.8758C43.3309 72.3185 46.4664 67.5605 46.4664 63.645C46.4664 59.9093 44.708 57.6862 42.6821 56.582L41.8768 56.143L42.6601 55.6649C44.4795 54.5558 45.655 51.506 45.655 49.4236C45.655 46.7884 44.0714 43.1431 40.5205 41.968L40.6488 41.6036C41.5762 41.913 42.3289 42.3495 42.8971 42.753C43.491 43.1749 43.8845 43.5601 44.0653 43.724C44.5211 44.1385 45.3019 44.8551 46.0082 45.6548C46.6216 46.3494 47.1262 46.9999 47.4782 47.5208C48.5241 49.0738 49.0129 50.8934 49.0129 52.3755C49.0129 54.4408 47.9119 57.4746 46.0778 58.7916L45.9556 58.8785L47.3486 60.2725C48.7795 61.6115 49.8255 63.6695 49.8255 66.5969C49.8255 70.6433 46.5923 75.6703 41.8328 75.6703H30.5177L27.689 72.8468L28.2168 72.3185ZM36.8327 68.3578H33.4748V58.0971H37.2518C38.9014 58.0971 40.2712 59.6048 40.7991 61.5308C40.6067 61.4781 40.4083 61.4514 40.2089 61.4513H36.8327V68.3578ZM36.8327 54.1204C36.7022 54.1314 36.5714 54.1367 36.4404 54.1363H33.476V45.5484H36.4404C38.222 45.5484 39.8301 46.7529 40.1576 48.9858C39.9081 48.9294 39.6532 48.9011 39.3975 48.9014H36.8339L36.8327 54.1204ZM62.9075 73.0767C67.882 73.0767 72.1233 68.9423 72.1233 63.9104V41.7687L72.6524 41.2392L75.4812 44.0627V66.8611C75.4812 72.1204 71.0553 76.4297 65.8646 76.4297C63.626 76.4297 61.2909 75.5003 58.9704 73.7663C57.3318 72.5411 55.7091 70.4317 55.4562 69.8973C55.3633 69.7029 54.9723 69.0524 54.5458 68.1817L54.7511 68.1255C56.314 71.0566 59.4299 73.0767 62.9075 73.0767ZM59.6596 41.2392L62.4884 44.0627V66.8611C62.4884 67.113 62.5153 67.3587 62.5678 67.596C60.5247 67.4346 59.1305 65.8119 59.1305 63.9104L59.1293 41.7687L59.6596 41.2392ZM81.6984 69.6821C81.5994 69.473 81.1827 68.7858 80.7489 67.8699L80.964 67.8002C82.4816 70.9062 85.7295 73.0791 89.3379 73.0791C95.6235 73.0791 98.4889 69.4327 98.4889 63.9104V56.8265L99.018 56.2971L101.847 59.1206V66.8611C101.847 72.5802 98.825 76.4284 92.2937 76.4284C89.9293 76.4284 87.6736 75.5138 85.3361 73.7663C83.6229 72.4873 81.9525 70.2189 81.6984 69.6821ZM93.0599 63.9556L90.2311 61.1321L90.7602 60.6014H93.8627V63.9544L93.0599 63.9556ZM85.4961 63.9128V49.9971C85.4961 47.796 87.0529 45.9165 89.2902 45.7184C91.7549 45.502 93.5303 47.1026 93.8199 49.3428C93.3629 49.1655 92.8448 49.02 92.2815 49.0702C90.269 49.2475 88.8528 50.9631 88.8528 52.9477V66.8635C88.8528 67.2377 88.9151 67.6082 89.0312 67.9616C86.9466 67.6486 85.4961 65.818 85.4961 63.9128ZM96.353 42.6772C97.1534 43.2935 98.0014 43.9967 98.8714 45.0128C99.6657 45.9409 100.245 46.8495 100.649 47.5942C101.451 49.0714 101.847 50.8861 101.847 52.9477V53.4785H96.3432L93.5145 50.6549L94.0436 50.1242H98.4889V49.9971C98.4889 45.7624 96.8039 42.6136 93.1442 41.3884L93.2359 41.0007C94.4871 41.414 95.4781 42.0132 96.353 42.6772ZM116.493 61.9453H112.457L115.784 47.2176C115.992 46.3139 116.646 46.3396 116.82 47.2286L118.238 54.2232L116.493 61.9453ZM121.653 72.848L122.183 72.3185H127.496L120.468 41.7479L120.864 41.2502L123.694 44.0749L131.218 75.6703H124.481L121.653 72.848ZM114.715 69.8154L113.393 75.6703H106.809L103.993 72.859L104.69 72.3185H110.113L111.438 66.4624H120.717L121.398 69.8154H114.715ZM136.167 72.9079L136.698 72.3784H141.956V46.3848H148.451V41.7687L148.979 41.2392L151.809 44.0627V49.7378H145.313V75.7314H138.996L136.167 72.9079ZM132.5 49.7378L129.673 46.9143L130.203 46.3848H136.518V49.7378H132.5ZM156.273 49.7378L153.445 46.9143L153.976 46.3848H160.291V49.7378H156.273ZM172.752 41.2392L175.579 44.0627V49.7378H169.084V75.7314H162.769L159.941 72.9067L160.471 72.3772H165.727V46.3848H172.223V41.7687L172.752 41.2392ZM184.25 41.2392L187.079 44.0627V75.6703H180.764L177.935 72.848L178.463 72.3185H183.72V41.7687L184.25 41.2392Z" fill="white"/>
<path id="Vector_8" fill-rule="evenodd" clip-rule="evenodd" d="M46.2574 49.425C46.2574 47.7546 45.6538 45.6648 44.3451 43.9822C44.8033 44.4053 45.4302 45.0032 46.0069 45.6562C46.6203 46.3508 47.125 47.0013 47.4769 47.5222C48.5229 49.0752 49.0117 50.8948 49.0117 52.3769C49.0117 54.4422 47.9107 57.4761 46.0766 58.793L45.9544 58.8799L47.3474 60.2739C48.7783 61.6129 49.8243 63.6709 49.8243 66.5983C49.8243 70.6447 46.591 75.6717 41.8316 75.6717H30.5165L27.7623 72.9228H38.8757C43.7867 72.9228 47.07 67.7588 47.07 63.6464C47.07 59.753 45.2506 57.3428 43.0804 56.1138C45.0807 54.8078 46.2574 51.5894 46.2574 49.425ZM36.8327 67.7551H34.0784V58.7013H37.2518C38.4615 58.7013 39.6358 59.8373 40.1514 61.4515H36.8327V67.7551ZM36.4392 46.1527C37.8542 46.1527 39.1934 47.0625 39.5319 48.904L39.3963 48.9016H36.8327V53.5141C36.7056 53.5263 36.5748 53.5337 36.4404 53.5337H34.0784V46.1527H36.4392ZM62.4884 66.8612L62.4908 66.9823C60.8339 66.7915 59.7341 65.4611 59.7341 63.9106L59.7329 41.314L62.4884 44.0641V66.8612ZM56.2528 71.0421C58.021 72.677 60.3756 73.6809 62.9075 73.6809C68.2082 73.6809 72.7257 69.2824 72.7257 63.9106V41.314L75.4799 44.0641V66.8625C75.4799 72.1218 71.0541 76.4311 65.8633 76.4311C63.6248 76.4311 61.2896 75.5017 58.9692 73.7678C57.9489 73.0047 56.9335 71.8981 56.2528 71.0421ZM82.6172 71.0103C84.4037 72.666 86.7877 73.6846 89.3379 73.6846C95.9925 73.6846 99.0913 69.73 99.0913 63.9118V56.3731L101.847 59.122V66.8625C101.847 72.5816 98.825 76.4299 92.2937 76.4299C89.9293 76.4299 87.6736 75.5152 85.336 73.7678C84.3182 73.0072 83.3162 71.8981 82.6172 71.0103ZM90.3056 61.2069H93.2591V63.9558H93.0599L90.3056 61.2069ZM89.344 46.3214C91.3541 46.1441 92.8241 47.3498 93.1784 49.1425C92.8858 49.0723 92.584 49.0483 92.284 49.0716C90.2714 49.2489 88.8552 50.9645 88.8552 52.9492V66.8649C88.8552 67.019 88.865 67.1706 88.8858 67.3222C87.23 66.9566 86.0998 65.4562 86.0998 63.9142V49.9985C86.0998 48.0823 87.4439 46.4877 89.344 46.3214ZM93.589 50.7297H99.0913V49.9973C99.0913 47.1444 98.346 44.7391 96.8014 43.0296C97.4674 43.564 98.1627 44.1839 98.8714 45.013C99.6656 45.9411 100.245 46.8497 100.649 47.5944C101.451 49.0716 101.847 50.8862 101.847 52.9479V53.4786H96.3432L93.589 50.7297ZM116.629 61.3414H113.213L116.296 47.6873L117.913 55.6589L116.629 61.3414ZM121.726 72.9216H128.254L121.005 41.391L123.693 44.0739L131.217 75.6693H124.479L121.726 72.9216ZM104.055 72.9216H110.596L111.92 67.0667H120.226L120.782 69.8156H114.715L113.393 75.6705H106.809L104.055 72.9216ZM136.242 72.9827H142.559V46.9891H149.055V41.3127L151.809 44.0629V49.738H145.313V75.7316H138.996L136.242 72.9827ZM129.748 46.9891H135.913V49.738H132.5L129.748 46.9891ZM153.519 46.9891H159.686V49.738H156.273L153.519 46.9891ZM160.014 72.9827H166.329V46.9891H172.825V41.3127L175.579 44.0629V49.738H169.084V75.7316H162.769L160.014 72.9827ZM178.01 72.9216H184.325V41.314L187.079 44.0629V75.6705H180.764L178.01 72.9216Z" fill="#9894C6"/>
<path id="Vector_9" fill-rule="evenodd" clip-rule="evenodd" d="M27.507 72.8478L28.1644 72.1911H38.8759C43.2357 72.1911 46.3394 67.52 46.3394 63.646C46.3394 59.9568 44.6067 57.7765 42.6223 56.6943L41.6216 56.1489L42.5942 55.557C44.3611 54.4785 45.5269 51.4814 45.5269 49.4246C45.5269 46.7967 43.9261 43.1588 40.3556 42.0509L40.5695 41.4444C42.5624 42.0766 43.7844 43.2982 44.151 43.6308C44.6067 44.0454 45.3924 44.7668 46.1036 45.5702C46.7207 46.2697 47.229 46.9239 47.5834 47.4509C48.6452 49.0247 49.1401 50.8687 49.1401 52.3765C49.1401 54.4687 48.0294 57.5478 46.1513 58.8954L47.4367 60.183C48.8945 61.5464 49.9515 63.6387 49.9515 66.5979C49.9515 70.6858 46.6865 75.7997 41.8317 75.7997H30.4641L27.507 72.8478ZM36.9599 61.577V68.486H33.3466V57.9672H37.2519C39.0518 57.9672 40.4937 59.6682 40.98 61.7213C40.7339 61.6267 40.4727 61.5774 40.209 61.5758L36.9599 61.577ZM36.9599 49.0296V54.2376C36.787 54.256 36.6132 54.265 36.4393 54.2645H33.3466V45.421H36.4393C38.3358 45.421 40.0367 46.7454 40.308 49.158C40.0117 49.0723 39.7048 49.029 39.3964 49.0296H36.9599ZM54.8172 67.9761C56.3422 70.917 59.4447 72.9493 62.9076 72.9493C67.8137 72.9493 71.9951 68.8699 71.9951 63.9102V41.7159L72.6525 41.0592L75.6084 44.0099V66.8621C75.6084 72.1924 71.1251 76.5591 65.8635 76.5591C63.5895 76.5591 61.2287 75.6151 58.8924 73.8713C57.2403 72.6363 55.6041 70.5122 55.3402 69.9546C55.2424 69.7492 54.8148 69.0399 54.3626 68.1008L54.8172 67.9761ZM59.0023 41.7159L59.6597 41.0592L62.6156 44.0099L62.6168 66.8621C62.6168 67.1629 62.6571 67.4564 62.7341 67.7352C60.5273 67.6496 59.0023 65.9315 59.0023 63.9114V41.7159ZM118.366 54.2229L116.596 62.0723H112.297L115.66 47.188C115.9 46.1437 116.746 46.1853 116.944 47.2027L118.366 54.2229ZM124.428 75.7997L121.471 72.8478L122.13 72.1911H127.335L120.331 41.7159L120.854 41.0592L123.811 44.0099L131.381 75.7997H124.428ZM121.553 69.9436H114.818L113.493 75.7997H106.757L103.8 72.8478L104.645 72.1911H110.013L111.335 66.335H120.822L121.553 69.9436ZM138.944 75.8596L135.987 72.9077L136.645 72.2511H141.826V46.2575H148.322V41.7159L148.978 41.0592L151.935 44.0099V49.866H145.439V75.8596H138.944ZM136.645 49.866H132.447L129.489 46.9141L130.148 46.2562H136.644L136.645 49.866ZM160.415 49.866H156.219L153.262 46.9141L153.918 46.2562H160.414V49.866H160.415ZM172.096 41.7159L172.752 41.0592L175.709 44.0099V49.866H169.213V75.8596H162.717L159.76 72.9077L160.417 72.2511H165.6V46.2575H172.096V41.7159ZM183.594 41.7159L184.25 41.0592L187.207 44.0099V75.7997H180.712L177.755 72.8478L178.411 72.1911H183.594V41.7159ZM85.2604 73.8701C83.5314 72.5776 81.8476 70.2945 81.5836 69.7369C81.481 69.518 81.0264 68.7733 80.5731 67.7914L81.0313 67.6447C82.5074 70.7629 85.7431 72.9517 89.338 72.9517C95.5454 72.9517 98.3608 69.3701 98.3608 63.9102V56.7738L99.0182 56.1159L101.974 59.0678V66.8608C101.974 72.6436 98.9045 76.5579 92.2939 76.5579C89.894 76.5579 87.6126 75.6273 85.2604 73.8701ZM93.9911 64.0838H93.0062L90.0504 61.1331L90.7066 60.4765H93.9899V63.9114L93.9911 64.0838ZM89.2244 68.1155C86.9614 67.8868 85.368 65.9437 85.368 63.9126V49.9969C85.368 47.7358 86.9699 45.794 89.2794 45.5922C91.8943 45.3623 93.7602 47.1269 93.9704 49.5407C93.4706 49.3341 92.9061 49.1445 92.2926 49.1983C90.351 49.3695 88.9812 51.024 88.9812 52.9488V66.8645C88.9824 67.2925 89.0667 67.7168 89.2244 68.1155ZM93.1431 40.8367C94.4738 41.2561 95.5173 41.8822 96.4313 42.5755C97.2354 43.1943 98.0919 43.9035 98.9693 44.9295C99.6562 45.7323 100.257 46.6049 100.763 47.5329C101.577 49.0345 101.975 50.87 101.975 52.9488V53.6066H96.2908L93.335 50.656L93.9924 49.9969H98.3632C98.3632 45.7561 96.6635 42.6489 92.9953 41.4738L93.1431 40.8367Z" fill="black"/>
<path id="Vector_10" fill-rule="evenodd" clip-rule="evenodd" d="M34.004 58.6263V67.8281H37.2519C39.3121 67.8281 40.4998 65.5609 40.4998 63.2266C40.4998 60.7161 38.9333 58.6251 37.2519 58.6251L34.004 58.6263ZM34.004 46.0777V53.6066H36.4406C38.5007 53.6066 39.6885 52.1771 39.6885 49.8415C39.6885 47.3323 38.1219 46.0764 36.4406 46.0764L34.004 46.0777ZM42.9364 56.1158C45.1297 57.313 46.9968 59.7122 46.9968 63.6448C46.9968 67.7339 43.7318 72.8465 38.8759 72.8465H27.507V41.0592H38.0633C43.7477 41.0592 46.183 46.0777 46.183 49.4245C46.183 51.6122 44.9697 54.8771 42.9364 56.1158ZM66.1555 63.9101V41.0592H72.6513V63.9113C72.6513 69.2416 68.168 73.6071 62.9064 73.6071C57.6448 73.6071 53.1615 69.2429 53.1615 63.9113V41.0592H59.6573L59.6585 63.9113C59.6585 65.6282 60.9757 67.0809 62.9052 67.0809C64.8346 67.0809 66.1555 65.6282 66.1555 63.9101ZM93.3337 63.9101V61.1331H90.0516V56.1146L99.0182 56.1158V63.9101C99.0182 69.6916 95.9474 73.6096 89.338 73.6096C84.0776 73.6096 79.5296 69.2416 79.5296 63.9101V49.9968C79.5296 44.6665 84.0776 40.301 89.338 40.301C95.9474 40.301 99.0182 44.2153 99.0182 49.9968V50.6559H93.3337V49.9968C93.3337 47.7077 91.7 46.0385 89.338 46.2464C87.3964 46.4176 86.0254 48.0464 86.0254 49.9968V63.9126C86.0254 65.6294 87.3964 67.2949 89.338 67.4649C91.6988 67.6727 93.3337 66.1992 93.3337 63.9101ZM119.154 61.4143L116.3 47.3323L113.12 61.4143H119.154ZM103.8 72.8477L111.921 41.0592H120.854L128.161 72.8477H121.471L120.285 66.9916H111.859L110.535 72.8477H103.8ZM142.482 72.9077H135.987V46.9141H129.491V41.0592H148.979V46.9141H142.482V72.9077ZM166.255 72.9077H159.759V46.9141H153.263V41.0592H172.752V46.9141H166.255V72.9077ZM177.755 41.0592H184.25V72.8477H177.755V41.0592Z" fill="white"/>
<path id="Vector_11" fill-rule="evenodd" clip-rule="evenodd" d="M109.202 26.9555V32.2956H114.48C116.146 32.2956 117.149 31.0948 117.149 29.6262C117.149 28.1575 116.147 26.9555 114.48 26.9555H109.202ZM109.202 18.6758V23.4338H114.48C115.955 23.4338 116.859 22.3638 116.859 21.0542C116.859 19.747 115.955 18.6758 114.48 18.6758H109.202ZM99.007 27.0827V22.1755H101.943V23.4338H105.247V18.6758H97.3134V20.274H94.3759V15.7361H114.48C115.558 15.7358 116.612 16.0462 117.518 16.6302C118.423 17.2141 119.141 18.0468 119.586 19.0286C120.031 20.0104 120.184 21.0997 120.026 22.1662C119.869 23.2326 119.407 24.231 118.697 25.0418L118.621 25.1298L118.702 25.2142C119.512 26.0452 120.059 27.0967 120.275 28.2373C120.49 29.3778 120.365 30.5567 119.914 31.6262C119.463 32.6958 118.708 33.6086 117.741 34.2504C116.774 34.8921 115.64 35.2343 114.48 35.234H94.3759V30.6961H97.3134V32.2944H105.247V26.9555H101.943V28.215H99.007V27.0827Z" fill="#9894C6"/>
<path id="Vector_12" fill-rule="evenodd" clip-rule="evenodd" d="M114.48 32.1657C116.07 32.1657 117.022 31.0285 117.022 29.6247C117.022 28.2209 116.07 27.0824 114.48 27.0824H109.328V32.1657H114.48ZM114.48 23.3063C115.88 23.3063 116.731 22.2975 116.731 21.0539C116.731 19.8103 115.88 18.8027 114.48 18.8027H109.328V23.3063H114.48ZM102.072 27.0824V28.3407H98.88V22.0468H102.072V23.3063H105.12V18.8027H97.4418V20.4009H94.2489V15.6074H114.482C115.583 15.608 116.661 15.926 117.587 16.5234C118.513 17.1209 119.247 17.9726 119.702 18.9766C120.157 19.9805 120.313 21.0944 120.152 22.1849C119.991 23.2754 119.519 24.2964 118.794 25.1259C119.62 25.9751 120.178 27.0492 120.398 28.2141C120.618 29.379 120.49 30.5828 120.029 31.6751C119.569 32.7674 118.797 33.6996 117.81 34.3552C116.823 35.0108 115.665 35.3606 114.48 35.3609H94.2489V30.5675H97.4418V32.1657H105.12V27.0824H102.072Z" fill="black"/>
</g>
</svg>
