<svg width="37" height="37" viewBox="0 0 37 37" fill="none" xmlns="http://www.w3.org/2000/svg">
<g id="g5891">
<path id="background" fill-rule="evenodd" clip-rule="evenodd" d="M36.3143 4.94274C36.3143 2.48274 34.3172 0.485596 31.8572 0.485596H5.11431C2.65431 0.485596 0.657166 2.48274 0.657166 4.94274V31.6856C0.657166 34.1456 2.65431 36.1427 5.11431 36.1427H31.8572C34.3172 36.1427 36.3143 34.1456 36.3143 31.6856V4.94274Z" fill="#2867B2"/>
<g id="shapes">
<path id="rect11" d="M10.8816 12.9287H4.90906V30.8939H10.8816V12.9287Z" fill="white"/>
<path id="path13-0" d="M7.93564 4.26587C5.89225 4.26587 4.55713 5.60928 4.55713 7.37006C4.55713 9.09386 5.85165 10.4743 7.8566 10.4743H7.89518C9.97771 10.4743 11.274 9.09386 11.274 7.37006C11.2353 5.60928 9.97785 4.26587 7.93564 4.26587Z" fill="white"/>
<path id="path15" d="M25.539 12.5061C22.371 12.5061 20.9519 14.2484 20.1573 15.4721V12.9286H14.1863C14.2655 14.6137 14.1863 30.8937 14.1863 30.8937H20.1572V20.8607C20.1572 20.3237 20.1958 19.7868 20.3541 19.403C20.7851 18.3305 21.7682 17.2195 23.4179 17.2195C25.5777 17.2195 26.4429 18.8676 26.4429 21.2816V30.8937H32.4142V20.5914C32.4142 15.0731 29.4679 12.5061 25.539 12.5061Z" fill="white"/>
</g>
</g>
</svg>
