<svg width="416" height="297" viewBox="0 0 416 297" fill="none" xmlns="http://www.w3.org/2000/svg">
<g clip-path="url(#clip0_471_87)">
<rect width="416" height="297" rx="10" fill="black"/>
<rect x="296.993" y="76.701" width="154" height="69" transform="rotate(54.247 296.993 76.701)" fill="black"/>
<path d="M253.981 107.669L258.373 109.724C270.117 115.22 280.259 123.629 287.836 134.152L317.475 175.319" stroke="white"/>
<path d="M255.604 106.5L259.996 108.555C271.74 114.051 281.882 122.461 289.459 132.984L319.098 174.15" stroke="white"/>
<path d="M310.35 150.875L310.781 151.026C325.501 156.168 338.284 165.714 347.395 178.368L371.084 211.271" stroke="white"/>
<path d="M309.944 151.168V151.168C326.443 155.296 340.947 165.134 350.885 178.937L373.405 210.216" stroke="white"/>
<path d="M285.305 110.778C285.668 111.283 286.085 111.661 286.556 111.914C287.036 112.16 287.531 112.266 288.041 112.231C288.566 112.199 289.075 112.014 289.567 111.674L292.35 115.54C291.259 116.311 290.085 116.716 288.828 116.755C287.58 116.786 286.368 116.497 285.192 115.885C284.025 115.267 283.013 114.364 282.157 113.175C281.294 111.977 280.741 110.787 280.497 109.605C280.259 108.433 280.28 107.299 280.56 106.203C280.848 105.1 281.357 104.062 282.087 103.089C282.825 102.109 283.737 101.229 284.821 100.449L285.235 100.151C286.328 99.3635 287.452 98.7782 288.606 98.3952C289.769 98.0053 290.915 97.8518 292.043 97.9347C293.181 98.0108 294.268 98.3473 295.304 98.9442C296.34 99.5411 297.287 100.434 298.142 101.623C299.053 102.888 299.608 104.17 299.808 105.47C300.014 106.78 299.861 108.031 299.348 109.224C298.851 110.419 297.993 111.463 296.773 112.356L293.989 108.49C294.496 108.111 294.883 107.666 295.151 107.155C295.426 106.654 295.546 106.12 295.513 105.552C295.496 104.987 295.285 104.423 294.881 103.862C294.45 103.263 293.969 102.866 293.438 102.67C292.917 102.468 292.362 102.42 291.774 102.525C291.196 102.624 290.6 102.829 289.987 103.141C289.39 103.455 288.792 103.828 288.193 104.259L287.779 104.557C287.18 104.989 286.632 105.441 286.135 105.914C285.638 106.387 285.251 106.883 284.974 107.4C284.703 107.927 284.581 108.469 284.608 109.028C284.635 109.586 284.867 110.17 285.305 110.778ZM298.238 127.568L305.114 122.617C305.608 122.261 305.973 121.876 306.209 121.461C306.454 121.039 306.553 120.585 306.506 120.099C306.466 119.622 306.254 119.117 305.871 118.585C305.542 118.128 305.177 117.792 304.776 117.575C304.384 117.352 303.976 117.256 303.551 117.288C303.136 117.312 302.733 117.465 302.343 117.746L299.385 113.637C300.041 113.165 300.774 112.869 301.582 112.748C302.391 112.628 303.228 112.697 304.093 112.956C304.967 113.207 305.82 113.64 306.652 114.254C307.491 114.877 308.269 115.688 308.988 116.687C309.851 117.885 310.418 119.094 310.69 120.314C310.961 121.533 310.89 122.697 310.474 123.805C310.066 124.922 309.262 125.912 308.064 126.775L301.459 131.53C300.612 132.14 299.956 132.692 299.489 133.187C299.032 133.675 298.675 134.162 298.42 134.65L298.177 134.824L295.188 130.673C295.463 130.172 295.877 129.643 296.429 129.087C296.998 128.533 297.601 128.027 298.238 127.568ZM304.548 123.847L302.244 125.55L300.59 123.253C300.2 122.711 299.799 122.285 299.388 121.975C298.977 121.664 298.564 121.463 298.151 121.37C297.748 121.271 297.354 121.266 296.97 121.354C296.593 121.453 296.229 121.628 295.877 121.882C295.525 122.135 295.264 122.445 295.096 122.812C294.936 123.172 294.885 123.563 294.943 123.984C295.01 124.398 295.19 124.809 295.485 125.218C295.93 125.836 296.44 126.284 297.016 126.563C297.592 126.841 298.15 126.974 298.689 126.961C299.235 126.958 299.674 126.844 300.004 126.621L299.044 128.958C298.545 129.087 297.99 129.169 297.38 129.204C296.776 129.248 296.145 129.204 295.487 129.072C294.838 128.933 294.193 128.668 293.551 128.278C292.919 127.881 292.325 127.298 291.771 126.527C291.065 125.548 290.62 124.518 290.435 123.439C290.266 122.362 290.361 121.34 290.72 120.375C291.095 119.411 291.729 118.608 292.623 117.964C293.432 117.382 294.259 117.017 295.106 116.87C295.953 116.722 296.802 116.789 297.655 117.071C298.524 117.355 299.389 117.865 300.252 118.602C301.124 119.331 301.984 120.286 302.833 121.465L304.548 123.847ZM315.042 132.797L302.974 141.486L300.016 137.378L315.451 126.265L318.234 130.131L315.042 132.797ZM321.857 134.952L317.997 137.623C317.882 137.403 317.731 137.143 317.544 136.844C317.374 136.548 317.207 136.285 317.043 136.057C316.625 135.477 316.186 135.028 315.726 134.709C315.282 134.393 314.815 134.196 314.324 134.116C313.84 134.045 313.342 134.086 312.831 134.238C312.326 134.399 311.805 134.659 311.268 135.016L310.929 134.004C311.928 133.285 312.917 132.724 313.898 132.321C314.888 131.911 315.834 131.671 316.736 131.599C317.644 131.537 318.472 131.664 319.218 131.978C319.964 132.293 320.598 132.812 321.118 133.534C321.282 133.763 321.431 134.009 321.564 134.274C321.707 134.533 321.805 134.759 321.857 134.952Z" fill="white"/>
<path d="M320.468 193.77C319.605 192.572 319.022 191.36 318.717 190.135C318.423 188.903 318.378 187.708 318.583 186.549C318.796 185.4 319.227 184.324 319.877 183.322C320.537 182.313 321.38 181.438 322.407 180.699L322.978 180.288C324.147 179.446 325.337 178.842 326.547 178.477C327.757 178.111 328.941 177.98 330.099 178.085C331.264 178.199 332.359 178.566 333.383 179.186C334.416 179.8 335.337 180.667 336.145 181.79C336.933 182.883 337.45 183.983 337.698 185.09C337.946 186.197 337.943 187.275 337.688 188.325C337.44 189.384 336.956 190.397 336.236 191.363C335.526 192.322 334.605 193.209 333.473 194.023L331.761 195.256L322.929 182.988L325.668 181.016L331.594 189.247L331.908 189.021C332.478 188.61 332.912 188.139 333.208 187.608C333.521 187.08 333.663 186.515 333.635 185.915C333.607 185.314 333.363 184.695 332.905 184.058C332.514 183.516 332.06 183.135 331.541 182.916C331.023 182.698 330.461 182.619 329.855 182.68C329.256 182.75 328.621 182.932 327.952 183.226C327.299 183.523 326.631 183.918 325.946 184.411L325.375 184.822C324.757 185.267 324.248 185.763 323.848 186.311C323.455 186.868 323.185 187.445 323.038 188.043C322.897 188.649 322.89 189.261 323.016 189.878C323.149 190.504 323.431 191.117 323.863 191.716C324.397 192.458 325.036 193.044 325.78 193.476C326.54 193.911 327.383 194.149 328.308 194.19L327.578 197.748C326.879 197.76 326.114 197.64 325.282 197.387C324.456 197.144 323.625 196.731 322.788 196.15C321.96 195.562 321.187 194.768 320.468 193.77ZM342.024 197.657L329.956 206.346L326.998 202.238L342.433 191.125L345.216 194.991L342.024 197.657ZM348.839 199.812L344.979 202.483C344.864 202.263 344.713 202.003 344.526 201.704C344.356 201.408 344.189 201.145 344.025 200.917C343.607 200.337 343.168 199.888 342.708 199.569C342.264 199.254 341.797 199.056 341.306 198.976C340.822 198.906 340.324 198.946 339.813 199.098C339.308 199.259 338.787 199.519 338.25 199.876L337.911 198.864C338.91 198.145 339.9 197.584 340.88 197.181C341.871 196.772 342.816 196.531 343.718 196.46C344.626 196.398 345.454 196.524 346.2 196.838C346.947 197.153 347.58 197.672 348.1 198.395C348.265 198.623 348.413 198.869 348.546 199.135C348.689 199.393 348.787 199.619 348.839 199.812ZM343.831 218.277L350.707 213.326C351.201 212.97 351.566 212.585 351.802 212.17C352.047 211.748 352.146 211.294 352.099 210.808C352.059 210.331 351.847 209.826 351.464 209.294C351.135 208.837 350.77 208.501 350.369 208.284C349.977 208.061 349.569 207.965 349.144 207.997C348.728 208.022 348.326 208.174 347.936 208.455L344.978 204.347C345.634 203.874 346.366 203.578 347.175 203.458C347.984 203.337 348.821 203.406 349.685 203.665C350.56 203.916 351.413 204.349 352.245 204.963C353.083 205.586 353.862 206.397 354.581 207.396C355.444 208.594 356.011 209.803 356.283 211.023C356.554 212.242 356.482 213.406 356.067 214.514C355.658 215.631 354.855 216.621 353.657 217.484L347.052 222.239C346.205 222.849 345.549 223.401 345.082 223.896C344.625 224.384 344.268 224.871 344.013 225.359L343.77 225.533L340.781 221.382C341.056 220.881 341.469 220.352 342.022 219.796C342.591 219.242 343.193 218.736 343.831 218.277ZM350.141 214.557L347.836 216.259L346.183 213.962C345.792 213.42 345.392 212.994 344.981 212.684C344.569 212.373 344.157 212.172 343.744 212.079C343.34 211.98 342.947 211.975 342.563 212.063C342.186 212.162 341.821 212.337 341.47 212.591C341.118 212.844 340.857 213.154 340.688 213.521C340.529 213.882 340.478 214.272 340.535 214.693C340.602 215.107 340.783 215.518 341.077 215.927C341.523 216.545 342.033 216.993 342.609 217.272C343.185 217.55 343.743 217.683 344.282 217.67C344.828 217.667 345.267 217.553 345.597 217.33L344.637 219.667C344.137 219.796 343.583 219.878 342.972 219.913C342.369 219.957 341.738 219.913 341.08 219.781C340.431 219.642 339.785 219.377 339.144 218.987C338.511 218.59 337.918 218.007 337.363 217.236C336.658 216.257 336.213 215.227 336.028 214.148C335.859 213.071 335.954 212.049 336.312 211.084C336.688 210.12 337.322 209.317 338.216 208.673C339.024 208.091 339.852 207.727 340.699 207.579C341.546 207.431 342.395 207.498 343.248 207.78C344.116 208.064 344.982 208.574 345.844 209.311C346.716 210.04 347.577 210.995 348.426 212.174L350.141 214.557Z" fill="#FF5F04"/>
<rect x="77.9932" y="218.701" width="154" height="69" transform="rotate(54.247 77.9932 218.701)" fill="black"/>
<path d="M34.9812 249.669L39.3726 251.724C51.1167 257.22 61.2593 265.629 68.8356 276.152L98.4746 317.319" stroke="white"/>
<path d="M36.6043 248.5L40.9957 250.555C52.7398 256.051 62.8824 264.461 70.4586 274.984L100.098 316.15" stroke="white"/>
<path d="M91.3498 292.875L91.7805 293.026C106.501 298.168 119.284 307.714 128.395 320.368L152.084 353.271" stroke="white"/>
<path d="M90.944 293.168V293.168C107.443 297.296 121.947 307.134 131.885 320.937L154.405 352.216" stroke="white"/>
<path d="M66.3052 252.779C66.6681 253.283 67.0851 253.661 67.556 253.914C68.0365 254.16 68.5314 254.266 69.0407 254.231C69.5665 254.199 70.0752 254.014 70.5671 253.674L73.3505 257.54C72.2595 258.311 71.0853 258.716 69.8281 258.755C68.5804 258.786 67.3682 258.497 66.1916 257.885C65.0245 257.267 64.0131 256.364 63.1572 255.175C62.2944 253.977 61.7409 252.787 61.4967 251.605C61.2594 250.433 61.2803 249.299 61.5596 248.203C61.8483 247.1 62.3573 246.062 63.0866 245.089C63.8253 244.109 64.7368 243.229 65.821 242.449L66.2347 242.151C67.3283 241.363 68.4521 240.778 69.6058 240.395C70.7691 240.005 71.9149 239.852 73.0432 239.935C74.181 240.011 75.268 240.347 76.3042 240.944C77.3404 241.541 78.2865 242.434 79.1424 243.623C80.0531 244.888 80.6083 246.17 80.808 247.47C81.0145 248.78 80.8612 250.031 80.348 251.224C79.8512 252.419 78.9928 253.463 77.7728 254.356L74.9894 250.49C75.4961 250.111 75.8834 249.666 76.1512 249.155C76.4258 248.654 76.5464 248.12 76.513 247.552C76.4959 246.987 76.2853 246.423 75.8813 245.862C75.45 245.263 74.9689 244.866 74.4383 244.67C73.9171 244.468 73.3625 244.42 72.7744 244.525C72.1958 244.624 71.5999 244.829 70.9866 245.141C70.3898 245.455 69.7918 245.828 69.1926 246.259L68.7789 246.557C68.1798 246.989 67.6318 247.441 67.135 247.914C66.6382 248.387 66.2511 248.883 65.9738 249.4C65.7033 249.927 65.5814 250.469 65.608 251.028C65.6346 251.586 65.867 252.17 66.3052 252.779ZM79.2379 269.568L86.1138 264.617C86.6083 264.261 86.9733 263.876 87.2088 263.461C87.4538 263.039 87.5529 262.585 87.5061 262.099C87.4662 261.622 87.2545 261.117 86.8711 260.585C86.5424 260.128 86.1774 259.792 85.7761 259.575C85.3843 259.352 84.9759 259.256 84.551 259.288C84.1356 259.312 83.7329 259.465 83.343 259.746L80.385 255.637C81.0412 255.165 81.7737 254.869 82.5824 254.748C83.3912 254.628 84.2279 254.697 85.0926 254.956C85.9667 255.207 86.8198 255.64 87.6517 256.254C88.4905 256.877 89.2694 257.688 89.9883 258.687C90.8511 259.885 91.4182 261.094 91.6898 262.314C91.9614 263.533 91.8895 264.697 91.4741 265.805C91.0655 266.922 90.2621 267.912 89.0638 268.775L82.4589 273.53C81.6125 274.14 80.9559 274.692 80.4891 275.187C80.0319 275.675 79.6754 276.162 79.4198 276.65L79.1773 276.824L76.1885 272.673C76.4631 272.172 76.8767 271.643 77.429 271.087C77.9977 270.533 78.6007 270.027 79.2379 269.568ZM85.5483 265.847L83.2436 267.55L81.59 265.253C81.1997 264.711 80.7989 264.285 80.3877 263.975C79.9765 263.664 79.5643 263.463 79.1512 263.37C78.7476 263.271 78.3539 263.266 77.9701 263.354C77.5931 263.453 77.2287 263.628 76.8768 263.882C76.5249 264.135 76.2645 264.445 76.0956 264.812C75.9362 265.172 75.8852 265.563 75.9426 265.984C76.0096 266.398 76.1903 266.809 76.4847 267.218C76.9298 267.836 77.4403 268.284 78.0162 268.563C78.5921 268.841 79.1498 268.974 79.6892 268.961C80.2355 268.958 80.6737 268.844 81.0039 268.621L80.0441 270.958C79.5446 271.087 78.9898 271.169 78.3796 271.204C77.7763 271.248 77.1454 271.204 76.4869 271.072C75.838 270.933 75.1926 270.668 74.5509 270.278C73.9186 269.881 73.3252 269.298 72.7706 268.527C72.0653 267.548 71.6201 266.518 71.4348 265.439C71.266 264.362 71.3609 263.34 71.7196 262.375C72.0947 261.411 72.7292 260.608 73.6232 259.964C74.4316 259.382 75.2592 259.017 76.106 258.87C76.9527 258.722 77.8024 258.789 78.6549 259.071C79.5237 259.355 80.3893 259.865 81.2517 260.602C82.1236 261.331 82.984 262.286 83.8331 263.465L85.5483 265.847ZM96.0423 274.797L83.9737 283.486L81.0157 279.378L96.4509 268.265L99.2343 272.131L96.0423 274.797ZM102.857 276.952L98.9968 279.623C98.8815 279.403 98.7307 279.143 98.5443 278.844C98.3743 278.548 98.2071 278.285 98.0428 278.057C97.6251 277.477 97.1861 277.028 96.7258 276.709C96.2819 276.393 95.8146 276.196 95.3238 276.116C94.84 276.045 94.3422 276.086 93.8305 276.238C93.3257 276.399 92.805 276.659 92.2682 277.016L91.9293 276.004C92.9279 275.285 93.9175 274.724 94.8982 274.321C95.8884 273.911 96.8343 273.671 97.7358 273.599C98.6443 273.537 99.4716 273.664 100.218 273.978C100.964 274.293 101.598 274.812 102.118 275.534C102.282 275.763 102.431 276.009 102.564 276.274C102.707 276.533 102.805 276.759 102.857 276.952Z" fill="white"/>
<rect x="185.978" y="-77.4922" width="154" height="69" transform="rotate(54.247 185.978 -77.4922)" fill="black"/>
<path d="M142.966 -46.5247L147.357 -44.4696C159.101 -38.9734 169.244 -30.5639 176.82 -20.0409L206.459 21.1257" stroke="white"/>
<path d="M144.589 -47.6933L148.98 -45.6381C160.724 -40.142 170.867 -31.7324 178.443 -21.2095L208.082 19.9572" stroke="white"/>
<path d="M199.334 -3.31777L199.765 -3.16732C214.486 1.97485 227.269 11.5206 236.379 24.1751L260.068 57.0775" stroke="white"/>
<path d="M198.928 -3.02563V-3.02563C215.428 1.10312 229.932 10.941 239.869 24.7436L262.389 56.0226" stroke="white"/>
<path d="M209.452 39.5767C208.59 38.3784 208.006 37.1668 207.702 35.9418C207.407 34.7101 207.362 33.5148 207.568 32.3561C207.78 31.2069 208.211 30.1311 208.861 29.1288C209.521 28.1196 210.364 27.2452 211.391 26.5057L211.962 26.0949C213.132 25.2527 214.322 24.6488 215.531 24.2833C216.741 23.9177 217.925 23.7872 219.083 23.8919C220.249 24.006 221.343 24.3731 222.367 24.9932C223.401 25.6064 224.322 26.4742 225.129 27.5964C225.917 28.69 226.435 29.7902 226.683 30.8968C226.931 32.0034 226.927 33.0817 226.672 34.1316C226.424 35.191 225.94 36.2037 225.221 37.1695C224.51 38.1285 223.589 39.0154 222.458 39.8302L220.746 41.0627L211.913 28.7944L214.652 26.8225L220.578 35.0536L220.892 34.8276C221.463 34.4168 221.896 33.9459 222.192 33.4148C222.505 32.8865 222.647 32.3219 222.619 31.7213C222.591 31.1206 222.348 30.5017 221.889 29.8645C221.499 29.3224 221.044 28.942 220.526 28.7233C220.007 28.5045 219.445 28.4256 218.839 28.4864C218.24 28.5568 217.606 28.739 216.937 29.033C216.284 29.3297 215.615 29.7246 214.93 30.2176L214.36 30.6284C213.742 31.0735 213.233 31.5699 212.833 32.1177C212.44 32.675 212.169 33.2522 212.022 33.8495C211.881 34.4562 211.874 35.0679 212 35.6846C212.133 36.3107 212.416 36.9234 212.847 37.5225C213.381 38.2643 214.02 38.8511 214.764 39.2829C215.525 39.7173 216.367 39.9553 217.293 39.9967L216.562 43.5551C215.863 43.5672 215.098 43.4468 214.266 43.1938C213.441 42.9504 212.61 42.538 211.772 41.9567C210.945 41.3686 210.171 40.5752 209.452 39.5767ZM231.009 43.464L218.94 52.153L215.982 48.0446L231.417 36.9316L234.201 40.7976L231.009 43.464ZM237.824 45.6187L233.963 48.2897C233.848 48.0694 233.697 47.8098 233.511 47.5108C233.341 47.2144 233.174 46.9522 233.009 46.7239C232.592 46.1438 232.153 45.6945 231.692 45.3761C231.248 45.0604 230.781 44.8625 230.29 44.7827C229.807 44.7123 229.309 44.753 228.797 44.9047C228.292 45.066 227.772 45.3255 227.235 45.683L226.896 44.6708C227.894 43.9518 228.884 43.3909 229.865 42.9881C230.855 42.5784 231.801 42.3378 232.702 42.2663C233.611 42.2043 234.438 42.3306 235.185 42.6452C235.931 42.9598 236.564 43.4785 237.085 44.2013C237.249 44.4295 237.398 44.6762 237.531 44.9414C237.673 45.1997 237.771 45.4255 237.824 45.6187ZM232.815 64.0836L239.691 59.1331C240.185 58.777 240.55 58.3915 240.786 57.9765C241.031 57.5546 241.13 57.1006 241.083 56.6144C241.043 56.1378 240.832 55.6332 240.448 55.1006C240.12 54.6441 239.755 54.3076 239.353 54.0912C238.961 53.8678 238.553 53.772 238.128 53.8035C237.713 53.8283 237.31 53.981 236.92 54.2617L233.962 50.1533C234.618 49.6808 235.351 49.3845 236.16 49.2643C236.968 49.1441 237.805 49.2132 238.67 49.4715C239.544 49.7229 240.397 50.1557 241.229 50.7697C242.068 51.3932 242.847 52.2042 243.565 53.2028C244.428 54.4011 244.995 55.61 245.267 56.8296C245.539 58.0492 245.467 59.2129 245.051 60.3206C244.643 61.4378 243.839 62.4278 242.641 63.2906L236.036 68.0459C235.19 68.6553 234.533 69.2075 234.066 69.7024C233.609 70.1904 233.253 70.6781 232.997 71.1654L232.754 71.34L229.766 67.1888C230.04 66.6878 230.454 66.159 231.006 65.6025C231.575 65.0486 232.178 64.5423 232.815 64.0836ZM239.125 60.3633L236.821 62.066L235.167 59.7692C234.777 59.2271 234.376 58.8009 233.965 58.4905C233.554 58.1801 233.142 57.9786 232.728 57.8862C232.325 57.7869 231.931 57.7816 231.547 57.8702C231.17 57.9683 230.806 58.1441 230.454 58.3974C230.102 58.6508 229.842 58.961 229.673 59.3281C229.513 59.6883 229.462 60.0788 229.52 60.4995C229.587 60.9134 229.767 61.3248 230.062 61.7338C230.507 62.3519 231.017 62.8002 231.593 63.0787C232.169 63.3572 232.727 63.4899 233.266 63.477C233.813 63.4736 234.251 63.3603 234.581 63.137L233.621 65.4742C233.122 65.6027 232.567 65.6845 231.957 65.7195C231.353 65.764 230.723 65.7201 230.064 65.5877C229.415 65.4484 228.77 65.1838 228.128 64.7939C227.496 64.3971 226.902 63.8136 226.348 63.0433C225.642 62.0637 225.197 61.0341 225.012 59.9545C224.843 58.8776 224.938 57.8562 225.297 56.8903C225.672 55.9272 226.306 55.1238 227.2 54.4801C228.009 53.8981 228.836 53.5333 229.683 53.3857C230.53 53.2381 231.38 53.3051 232.232 53.5866C233.101 53.8708 233.966 54.3811 234.829 55.1176C235.701 55.8472 236.561 56.8017 237.41 57.981L239.125 60.3633Z" fill="#FF5F04"/>
<rect x="-33.0225" y="64.5078" width="154" height="69" transform="rotate(54.247 -33.0225 64.5078)" fill="black"/>
<path d="M-19.6658 138.682L-19.2351 138.833C-4.5143 143.975 8.26856 153.521 17.3795 166.175L41.0685 199.078" stroke="white"/>
<path d="M-20.0716 138.974V138.974C-3.57245 143.103 10.9317 152.941 20.8693 166.744L43.3895 198.023" stroke="white"/>
<path d="M-9.54765 181.577C-10.4104 180.378 -10.9939 179.167 -11.2982 177.942C-11.593 176.71 -11.6377 175.515 -11.4323 174.356C-11.22 173.207 -10.7888 172.131 -10.1386 171.129C-9.479 170.12 -8.63563 169.245 -7.60852 168.506L-7.0379 168.095C-5.86814 167.253 -4.67841 166.649 -3.46871 166.283C-2.25901 165.918 -1.07499 165.787 0.0833439 165.892C1.24853 166.006 2.34314 166.373 3.36719 166.993C4.40074 167.606 5.3215 168.474 6.12947 169.596C6.9169 170.69 7.43461 171.79 7.68262 172.897C7.93063 174.003 7.92719 175.082 7.6723 176.132C7.42426 177.191 6.94037 178.204 6.22062 179.169C5.51039 180.128 4.58941 181.015 3.45769 181.83L1.74584 183.063L-7.08702 170.794L-4.34806 168.822L1.57817 177.054L1.89201 176.828C2.46263 176.417 2.89611 175.946 3.19245 175.415C3.50515 174.886 3.64744 174.322 3.61929 173.721C3.59115 173.121 3.3477 172.502 2.88894 171.864C2.49865 171.322 2.04426 170.942 1.52577 170.723C1.00728 170.505 0.445041 170.426 -0.160948 170.486C-0.760089 170.557 -1.39423 170.739 -2.06337 171.033C-2.71615 171.33 -3.38491 171.725 -4.06965 172.218L-4.64027 172.628C-5.25844 173.073 -5.76743 173.57 -6.16724 174.118C-6.56021 174.675 -6.8305 175.252 -6.97811 175.849C-7.11887 176.456 -7.12611 177.068 -6.99982 177.685C-6.86669 178.311 -6.58443 178.923 -6.15306 179.523C-5.61898 180.264 -4.97991 180.851 -4.23584 181.283C-3.47541 181.717 -2.63263 181.955 -1.70748 181.997L-2.43791 185.555C-3.13672 185.567 -3.9021 185.447 -4.73404 185.194C-5.55914 184.95 -6.39032 184.538 -7.22759 183.957C-8.05535 183.369 -8.8287 182.575 -9.54765 181.577ZM12.0088 185.464L-0.0597415 194.153L-3.01772 190.045L12.4175 178.932L15.2008 182.798L12.0088 185.464ZM18.8236 187.619L14.9633 190.29C14.8481 190.069 14.6973 189.81 14.5109 189.511C14.3408 189.214 14.1736 188.952 14.0093 188.724C13.5916 188.144 13.1526 187.695 12.6924 187.376C12.2484 187.06 11.7811 186.863 11.2904 186.783C10.8065 186.712 10.3087 186.753 9.79709 186.905C9.29229 187.066 8.77151 187.325 8.23475 187.683L7.89582 186.671C8.8944 185.952 9.88403 185.391 10.8647 184.988C11.8549 184.578 12.8008 184.338 13.7024 184.266C14.6108 184.204 15.4382 184.331 16.1845 184.645C16.9309 184.96 17.5643 185.479 18.0846 186.201C18.249 186.43 18.3977 186.676 18.5308 186.941C18.6735 187.2 18.7711 187.425 18.8236 187.619ZM13.815 206.084L20.691 201.133C21.1855 200.777 21.5505 200.391 21.786 199.976C22.031 199.555 22.1301 199.101 22.0833 198.614C22.0433 198.138 21.8317 197.633 21.4482 197.101C21.1196 196.644 20.7546 196.308 20.3532 196.091C19.9614 195.868 19.5531 195.772 19.1281 195.804C18.7127 195.828 18.3101 195.981 17.9201 196.262L14.9622 192.153C15.6184 191.681 16.3509 191.385 17.1596 191.264C17.9683 191.144 18.8051 191.213 19.6697 191.471C20.5439 191.723 21.3969 192.156 22.2289 192.77C23.0677 193.393 23.8465 194.204 24.5655 195.203C25.4282 196.401 25.9954 197.61 26.267 198.83C26.5386 200.049 26.4667 201.213 26.0513 202.321C25.6427 203.438 24.8392 204.428 23.6409 205.291L17.0361 210.046C16.1896 210.655 15.5331 211.207 15.0663 211.702C14.609 212.19 14.2526 212.678 13.9969 213.165L13.7544 213.34L10.7656 209.189C11.0403 208.688 11.4538 208.159 12.0062 207.603C12.5749 207.049 13.1778 206.542 13.815 206.084ZM20.1255 202.363L17.8207 204.066L16.1672 201.769C15.7769 201.227 15.3761 200.801 14.9649 200.49C14.5537 200.18 14.1415 199.979 13.7284 199.886C13.3248 199.787 12.9311 199.782 12.5472 199.87C12.1702 199.968 11.8058 200.144 11.4539 200.397C11.1021 200.651 10.8417 200.961 10.6728 201.328C10.5134 201.688 10.4624 202.079 10.5198 202.5C10.5868 202.913 10.7674 203.325 11.0619 203.734C11.5069 204.352 12.0174 204.8 12.5934 205.079C13.1693 205.357 13.727 205.49 14.2664 205.477C14.8127 205.474 15.2509 205.36 15.5811 205.137L14.6213 207.474C14.1218 207.603 13.567 207.685 12.9568 207.72C12.3535 207.764 11.7226 207.72 11.0641 207.588C10.4151 207.448 9.76977 207.184 9.12803 206.794C8.4958 206.397 7.90237 205.814 7.34775 205.043C6.64249 204.064 6.19724 203.034 6.012 201.955C5.84312 200.878 5.93804 199.856 6.29678 198.89C6.67188 197.927 7.30641 197.124 8.20037 196.48C9.00875 195.898 9.83633 195.533 10.6831 195.386C11.5299 195.238 12.3795 195.305 13.232 195.587C14.1009 195.871 14.9665 196.381 15.8289 197.118C16.7007 197.847 17.5612 198.802 18.4102 199.981L20.1255 202.363Z" fill="#FF5F04"/>
<rect x="396.323" y="214.663" width="154" height="69" transform="rotate(54.247 396.323 214.663)" fill="black"/>
<path d="M353.311 245.631L357.703 247.686C369.447 253.182 379.589 261.592 387.166 272.115L416.805 313.281" stroke="white"/>
<path d="M354.934 244.462L359.326 246.517C371.07 252.014 381.212 260.423 388.789 270.946L418.428 312.113" stroke="white"/>
<path d="M409.68 288.838L410.111 288.988C424.831 294.13 437.614 303.676 446.725 316.331L470.414 349.233" stroke="white"/>
<path d="M409.274 289.13V289.13C425.773 293.259 440.277 303.097 450.215 316.899L472.735 348.178" stroke="white"/>
<path d="M384.635 248.741C384.998 249.245 385.415 249.623 385.886 249.876C386.367 250.123 386.861 250.228 387.371 250.194C387.897 250.162 388.405 249.976 388.897 249.636L391.681 253.502C390.59 254.273 389.415 254.678 388.158 254.717C386.91 254.749 385.698 254.459 384.522 253.848C383.355 253.23 382.343 252.326 381.487 251.137C380.624 249.939 380.071 248.749 379.827 247.568C379.589 246.396 379.61 245.261 379.89 244.165C380.178 243.062 380.687 242.024 381.417 241.051C382.155 240.072 383.067 239.192 384.151 238.411L384.565 238.113C385.658 237.326 386.782 236.741 387.936 236.358C389.099 235.968 390.245 235.814 391.373 235.897C392.511 235.973 393.598 236.31 394.634 236.907C395.671 237.503 396.617 238.396 397.472 239.585C398.383 240.85 398.938 242.132 399.138 243.433C399.345 244.742 399.191 245.994 398.678 247.186C398.181 248.381 397.323 249.425 396.103 250.318L393.319 246.452C393.826 246.073 394.213 245.628 394.481 245.118C394.756 244.617 394.877 244.082 394.843 243.514C394.826 242.949 394.615 242.386 394.211 241.825C393.78 241.226 393.299 240.828 392.768 240.633C392.247 240.43 391.693 240.382 391.104 240.488C390.526 240.587 389.93 240.792 389.317 241.103C388.72 241.418 388.122 241.79 387.523 242.222L387.109 242.52C386.51 242.951 385.962 243.403 385.465 243.876C384.968 244.35 384.581 244.845 384.304 245.362C384.033 245.889 383.911 246.432 383.938 246.99C383.965 247.549 384.197 248.132 384.635 248.741ZM397.568 265.53L404.444 260.58C404.938 260.224 405.303 259.838 405.539 259.423C405.784 259.001 405.883 258.547 405.836 258.061C405.796 257.584 405.585 257.08 405.201 256.547C404.872 256.091 404.507 255.754 404.106 255.538C403.714 255.314 403.306 255.219 402.881 255.25C402.466 255.275 402.063 255.428 401.673 255.708L398.715 251.6C399.371 251.127 400.104 250.831 400.913 250.711C401.721 250.591 402.558 250.66 403.423 250.918C404.297 251.17 405.15 251.602 405.982 252.216C406.821 252.84 407.599 253.651 408.318 254.649C409.181 255.848 409.748 257.057 410.02 258.276C410.292 259.496 410.22 260.659 409.804 261.767C409.396 262.884 408.592 263.874 407.394 264.737L400.789 269.492C399.943 270.102 399.286 270.654 398.819 271.149C398.362 271.637 398.006 272.125 397.75 272.612L397.507 272.787L394.519 268.635C394.793 268.134 395.207 267.606 395.759 267.049C396.328 266.495 396.931 265.989 397.568 265.53ZM403.878 261.81L401.574 263.513L399.92 261.216C399.53 260.674 399.129 260.247 398.718 259.937C398.307 259.627 397.894 259.425 397.481 259.333C397.078 259.233 396.684 259.228 396.3 259.317C395.923 259.415 395.559 259.591 395.207 259.844C394.855 260.097 394.595 260.408 394.426 260.775C394.266 261.135 394.215 261.525 394.273 261.946C394.34 262.36 394.52 262.771 394.815 263.18C395.26 263.798 395.77 264.247 396.346 264.525C396.922 264.804 397.48 264.937 398.019 264.924C398.566 264.92 399.004 264.807 399.334 264.584L398.374 266.921C397.875 267.049 397.32 267.131 396.71 267.166C396.106 267.211 395.475 267.167 394.817 267.034C394.168 266.895 393.523 266.63 392.881 266.24C392.249 265.844 391.655 265.26 391.101 264.49C390.395 263.51 389.95 262.481 389.765 261.401C389.596 260.324 389.691 259.303 390.05 258.337C390.425 257.374 391.059 256.57 391.953 255.927C392.762 255.345 393.589 254.98 394.436 254.832C395.283 254.685 396.132 254.752 396.985 255.033C397.854 255.317 398.719 255.828 399.582 256.564C400.454 257.294 401.314 258.248 402.163 259.428L403.878 261.81ZM414.372 270.759L402.304 279.449L399.346 275.34L414.781 264.227L417.564 268.093L414.372 270.759ZM421.187 272.914L417.327 275.585C417.212 275.365 417.061 275.105 416.874 274.806C416.704 274.51 416.537 274.248 416.373 274.019C415.955 273.439 415.516 272.99 415.056 272.672C414.612 272.356 414.145 272.158 413.654 272.078C413.17 272.008 412.672 272.048 412.161 272.2C411.656 272.362 411.135 272.621 410.598 272.979L410.259 271.966C411.258 271.247 412.248 270.686 413.228 270.284C414.218 269.874 415.164 269.633 416.066 269.562C416.974 269.5 417.802 269.626 418.548 269.941C419.294 270.255 419.928 270.774 420.448 271.497C420.613 271.725 420.761 271.972 420.894 272.237C421.037 272.495 421.135 272.721 421.187 272.914Z" fill="white"/>
<rect x="374.09" y="21.1932" width="154" height="69" transform="rotate(54.247 374.09 21.1932)" fill="black"/>
<path d="M331.078 52.1607L335.469 54.2159C347.213 59.7121 357.356 68.1216 364.932 78.6445L394.571 119.811" stroke="white"/>
<path d="M332.701 50.9921L337.092 53.0473C348.836 58.5435 358.979 66.953 366.555 77.4759L396.194 118.643" stroke="white"/>
<path d="M387.446 95.3677L387.877 95.5181C402.598 100.66 415.381 110.206 424.492 122.861L448.181 155.763" stroke="white"/>
<path d="M387.041 95.6598V95.6598C403.54 99.7886 418.044 109.626 427.982 123.429L450.502 154.708" stroke="white"/>
<path d="M362.402 55.2707C362.765 55.7748 363.182 56.1533 363.653 56.4063C364.133 56.6524 364.628 56.7581 365.137 56.7235C365.663 56.6916 366.172 56.5058 366.664 56.1661L369.447 60.032C368.356 60.8031 367.182 61.208 365.925 61.2468C364.677 61.2787 363.465 60.989 362.288 60.3777C361.121 59.7595 360.11 58.856 359.254 57.6672C358.391 56.4689 357.838 55.279 357.593 54.0975C357.356 52.9254 357.377 51.7913 357.656 50.6949C357.945 49.5917 358.454 48.5538 359.183 47.5811C359.922 46.6016 360.833 45.7215 361.918 44.941L362.331 44.6431C363.425 43.8557 364.549 43.2704 365.703 42.8874C366.866 42.4975 368.012 42.344 369.14 42.427C370.278 42.5031 371.365 42.8395 372.401 43.4364C373.437 44.0333 374.383 44.9261 375.239 46.1149C376.15 47.3798 376.705 48.6623 376.905 49.9626C377.111 51.2723 376.958 52.5235 376.445 53.716C375.948 54.9113 375.089 55.9553 373.869 56.8481L371.086 52.9821C371.593 52.6029 371.98 52.158 372.248 51.6475C372.523 51.1465 372.643 50.612 372.61 50.0441C372.593 49.4788 372.382 48.9156 371.978 48.3545C371.547 47.7554 371.066 47.358 370.535 47.1625C370.014 46.9601 369.459 46.9118 368.871 47.0175C368.292 47.1164 367.697 47.3216 367.083 47.6332C366.486 47.9474 365.888 48.3202 365.289 48.7515L364.876 49.0494C364.276 49.4808 363.728 49.9331 363.232 50.4063C362.735 50.8795 362.348 51.3748 362.07 51.8921C361.8 52.419 361.678 52.9616 361.705 53.5201C361.731 54.0785 361.964 54.6621 362.402 55.2707ZM375.335 72.06L382.21 67.1095C382.705 66.7534 383.07 66.3679 383.305 65.9529C383.55 65.531 383.65 65.077 383.603 64.5908C383.563 64.1142 383.351 63.6096 382.968 63.077C382.639 62.6205 382.274 62.284 381.873 62.0676C381.481 61.8442 381.073 61.7484 380.648 61.7799C380.232 61.8047 379.83 61.9574 379.44 62.2381L376.482 58.1297C377.138 57.6572 377.87 57.3609 378.679 57.2407C379.488 57.1205 380.325 57.1896 381.189 57.4479C382.063 57.6993 382.916 58.1321 383.748 58.7461C384.587 59.3696 385.366 60.1806 386.085 61.1792C386.948 62.3775 387.515 63.5864 387.787 64.806C388.058 66.0256 387.986 67.1893 387.571 68.297C387.162 69.4142 386.359 70.4042 385.16 71.267L378.556 76.0223C377.709 76.6317 377.053 77.1839 376.586 77.6788C376.129 78.1668 375.772 78.6545 375.516 79.1418L375.274 79.3164L372.285 75.1652C372.56 74.6642 372.973 74.1354 373.526 73.5789C374.094 73.0251 374.697 72.5187 375.335 72.06ZM381.645 68.3397L379.34 70.0424L377.687 67.7456C377.296 67.2035 376.896 66.7773 376.484 66.4669C376.073 66.1565 375.661 65.955 375.248 65.8626C374.844 65.7633 374.451 65.758 374.067 65.8466C373.69 65.9447 373.325 66.1205 372.973 66.3738C372.622 66.6272 372.361 66.9374 372.192 67.3045C372.033 67.6647 371.982 68.0552 372.039 68.4759C372.106 68.8898 372.287 69.3012 372.581 69.7102C373.026 70.3283 373.537 70.7766 374.113 71.0551C374.689 71.3336 375.246 71.4664 375.786 71.4534C376.332 71.45 376.77 71.3367 377.101 71.1134L376.141 73.4506C375.641 73.5791 375.086 73.6609 374.476 73.6959C373.873 73.7404 373.242 73.6965 372.584 73.5641C371.935 73.4248 371.289 73.1602 370.648 72.7703C370.015 72.3735 369.422 71.79 368.867 71.0197C368.162 70.0401 367.717 69.0105 367.532 67.9309C367.363 66.854 367.458 65.8326 367.816 64.8668C368.191 63.9036 368.826 63.1002 369.72 62.4565C370.528 61.8745 371.356 61.5097 372.203 61.3621C373.049 61.2145 373.899 61.2815 374.752 61.563C375.62 61.8472 376.486 62.3575 377.348 63.094C378.22 63.8236 379.081 64.7781 379.93 65.9574L381.645 68.3397ZM392.139 77.2893L380.07 85.9784L377.112 81.8699L392.548 70.757L395.331 74.6229L392.139 77.2893ZM398.954 79.444L395.093 82.115C394.978 81.8947 394.827 81.6351 394.641 81.3361C394.471 81.0398 394.304 80.7775 394.139 80.5492C393.722 79.9691 393.283 79.5198 392.822 79.2014C392.379 78.8857 391.911 78.6879 391.421 78.608C390.937 78.5376 390.439 78.5783 389.927 78.7301C389.422 78.8913 388.902 79.1508 388.365 79.5084L388.026 78.4961C389.025 77.7771 390.014 77.2162 390.995 76.8134C391.985 76.4037 392.931 76.1631 393.833 76.0916C394.741 76.0296 395.568 76.1559 396.315 76.4705C397.061 76.7852 397.694 77.3038 398.215 78.0266C398.379 78.2549 398.528 78.5016 398.661 78.7667C398.804 79.025 398.901 79.2508 398.954 79.444Z" fill="white"/>
<path d="M397.565 138.262C396.702 137.064 396.118 135.852 395.814 134.627C395.519 133.396 395.475 132.2 395.68 131.042C395.892 129.892 396.324 128.817 396.974 127.814C397.633 126.805 398.477 125.931 399.504 125.191L400.074 124.78C401.244 123.938 402.434 123.334 403.644 122.969C404.853 122.603 406.037 122.473 407.196 122.577C408.361 122.691 409.455 123.059 410.479 123.679C411.513 124.292 412.434 125.16 413.242 126.282C414.029 127.376 414.547 128.476 414.795 129.582C415.043 130.689 415.039 131.767 414.785 132.817C414.537 133.876 414.053 134.889 413.333 135.855C412.623 136.814 411.702 137.701 410.57 138.516L408.858 139.748L400.025 127.48L402.764 125.508L408.69 133.739L409.004 133.513C409.575 133.102 410.008 132.631 410.305 132.1C410.617 131.572 410.76 131.007 410.732 130.407C410.703 129.806 410.46 129.187 410.001 128.55C409.611 128.008 409.157 127.627 408.638 127.409C408.12 127.19 407.557 127.111 406.951 127.172C406.352 127.242 405.718 127.424 405.049 127.718C404.396 128.015 403.727 128.41 403.043 128.903L402.472 129.314C401.854 129.759 401.345 130.255 400.945 130.803C400.552 131.36 400.282 131.938 400.134 132.535C399.993 133.142 399.986 133.753 400.112 134.37C400.246 134.996 400.528 135.609 400.959 136.208C401.493 136.95 402.132 137.537 402.876 137.968C403.637 138.403 404.48 138.641 405.405 138.682L404.674 142.241C403.976 142.253 403.21 142.132 402.378 141.879C401.553 141.636 400.722 141.223 399.885 140.642C399.057 140.054 398.284 139.261 397.565 138.262ZM419.121 142.149L407.053 150.839L404.095 146.73L419.53 135.617L422.313 139.483L419.121 142.149ZM425.936 144.304L422.076 146.975C421.96 146.755 421.81 146.495 421.623 146.196C421.453 145.9 421.286 145.638 421.122 145.409C420.704 144.829 420.265 144.38 419.805 144.062C419.361 143.746 418.893 143.548 418.403 143.468C417.919 143.398 417.421 143.438 416.909 143.59C416.405 143.751 415.884 144.011 415.347 144.368L415.008 143.356C416.007 142.637 416.996 142.076 417.977 141.674C418.967 141.264 419.913 141.023 420.815 140.952C421.723 140.89 422.55 141.016 423.297 141.331C424.043 141.645 424.677 142.164 425.197 142.887C425.361 143.115 425.51 143.362 425.643 143.627C425.786 143.885 425.883 144.111 425.936 144.304ZM420.927 162.769L427.803 157.819C428.298 157.462 428.663 157.077 428.898 156.662C429.143 156.24 429.242 155.786 429.196 155.3C429.156 154.823 428.944 154.319 428.561 153.786C428.232 153.33 427.867 152.993 427.466 152.777C427.074 152.553 426.665 152.457 426.24 152.489C425.825 152.514 425.422 152.666 425.032 152.947L422.074 148.839C422.731 148.366 423.463 148.07 424.272 147.95C425.081 147.83 425.917 147.899 426.782 148.157C427.656 148.408 428.509 148.841 429.341 149.455C430.18 150.079 430.959 150.89 431.678 151.888C432.541 153.087 433.108 154.295 433.379 155.515C433.651 156.735 433.579 157.898 433.164 159.006C432.755 160.123 431.952 161.113 430.753 161.976L424.148 166.731C423.302 167.341 422.645 167.893 422.179 168.388C421.721 168.876 421.365 169.364 421.109 169.851L420.867 170.025L417.878 165.874C418.153 165.373 418.566 164.844 419.118 164.288C419.687 163.734 420.29 163.228 420.927 162.769ZM427.238 159.049L424.933 160.751L423.279 158.455C422.889 157.913 422.488 157.486 422.077 157.176C421.666 156.866 421.254 156.664 420.841 156.572C420.437 156.472 420.043 156.467 419.66 156.556C419.283 156.654 418.918 156.83 418.566 157.083C418.214 157.336 417.954 157.646 417.785 158.014C417.626 158.374 417.575 158.764 417.632 159.185C417.699 159.599 417.88 160.01 418.174 160.419C418.619 161.037 419.13 161.486 419.706 161.764C420.282 162.043 420.839 162.175 421.379 162.162C421.925 162.159 422.363 162.046 422.693 161.822L421.734 164.16C421.234 164.288 420.679 164.37 420.069 164.405C419.466 164.449 418.835 164.406 418.176 164.273C417.527 164.134 416.882 163.869 416.24 163.479C415.608 163.083 415.015 162.499 414.46 161.729C413.755 160.749 413.31 159.72 413.124 158.64C412.955 157.563 413.05 156.542 413.409 155.576C413.784 154.613 414.419 153.809 415.313 153.166C416.121 152.584 416.949 152.219 417.795 152.071C418.642 151.924 419.492 151.991 420.344 152.272C421.213 152.556 422.079 153.067 422.941 153.803C423.813 154.533 424.674 155.487 425.523 156.666L427.238 159.049Z" fill="#FF5F04"/>
<rect x="155.09" y="163.193" width="154" height="69" transform="rotate(54.247 155.09 163.193)" fill="black"/>
<path d="M112.078 194.161L116.469 196.216C128.213 201.712 138.356 210.122 145.932 220.645L175.571 261.811" stroke="white"/>
<path d="M113.701 192.992L118.092 195.047C129.836 200.543 139.979 208.953 147.555 219.476L177.194 260.643" stroke="white"/>
<path d="M168.446 237.368L168.877 237.518C183.598 242.66 196.381 252.206 205.492 264.861L229.181 297.763" stroke="white"/>
<path d="M168.041 237.66V237.66C184.54 241.789 199.044 251.626 208.982 265.429L231.502 296.708" stroke="white"/>
<path d="M143.402 197.271C143.765 197.775 144.182 198.153 144.653 198.406C145.133 198.652 145.628 198.758 146.137 198.724C146.663 198.692 147.172 198.506 147.664 198.166L150.447 202.032C149.356 202.803 148.182 203.208 146.925 203.247C145.677 203.279 144.465 202.989 143.288 202.378C142.121 201.759 141.11 200.856 140.254 199.667C139.391 198.469 138.838 197.279 138.593 196.097C138.356 194.925 138.377 193.791 138.656 192.695C138.945 191.592 139.454 190.554 140.183 189.581C140.922 188.602 141.833 187.722 142.918 186.941L143.331 186.643C144.425 185.856 145.549 185.27 146.703 184.887C147.866 184.497 149.012 184.344 150.14 184.427C151.278 184.503 152.365 184.84 153.401 185.436C154.437 186.033 155.383 186.926 156.239 188.115C157.15 189.38 157.705 190.662 157.905 191.963C158.111 193.272 157.958 194.523 157.445 195.716C156.948 196.911 156.089 197.955 154.869 198.848L152.086 194.982C152.593 194.603 152.98 194.158 153.248 193.647C153.523 193.147 153.643 192.612 153.61 192.044C153.593 191.479 153.382 190.916 152.978 190.354C152.547 189.755 152.066 189.358 151.535 189.162C151.014 188.96 150.459 188.912 149.871 189.018C149.292 189.116 148.697 189.322 148.083 189.633C147.486 189.947 146.888 190.32 146.289 190.752L145.876 191.049C145.276 191.481 144.728 191.933 144.232 192.406C143.735 192.879 143.348 193.375 143.07 193.892C142.8 194.419 142.678 194.962 142.705 195.52C142.731 196.079 142.964 196.662 143.402 197.271ZM156.335 214.06L163.21 209.109C163.705 208.753 164.07 208.368 164.305 207.953C164.55 207.531 164.65 207.077 164.603 206.591C164.563 206.114 164.351 205.61 163.968 205.077C163.639 204.62 163.274 204.284 162.873 204.068C162.481 203.844 162.073 203.748 161.648 203.78C161.232 203.805 160.83 203.957 160.44 204.238L157.482 200.13C158.138 199.657 158.87 199.361 159.679 199.241C160.488 199.121 161.325 199.19 162.189 199.448C163.063 199.699 163.916 200.132 164.748 200.746C165.587 201.37 166.366 202.181 167.085 203.179C167.948 204.377 168.515 205.586 168.787 206.806C169.058 208.026 168.986 209.189 168.571 210.297C168.162 211.414 167.359 212.404 166.16 213.267L159.556 218.022C158.709 218.632 158.053 219.184 157.586 219.679C157.129 220.167 156.772 220.655 156.516 221.142L156.274 221.316L153.285 217.165C153.56 216.664 153.973 216.135 154.526 215.579C155.094 215.025 155.697 214.519 156.335 214.06ZM162.645 210.34L160.34 212.042L158.687 209.746C158.296 209.204 157.896 208.777 157.484 208.467C157.073 208.156 156.661 207.955 156.248 207.863C155.844 207.763 155.451 207.758 155.067 207.847C154.69 207.945 154.325 208.12 153.973 208.374C153.622 208.627 153.361 208.937 153.192 209.304C153.033 209.665 152.982 210.055 153.039 210.476C153.106 210.89 153.287 211.301 153.581 211.71C154.026 212.328 154.537 212.777 155.113 213.055C155.689 213.334 156.246 213.466 156.786 213.453C157.332 213.45 157.77 213.337 158.101 213.113L157.141 215.451C156.641 215.579 156.086 215.661 155.476 215.696C154.873 215.74 154.242 215.696 153.584 215.564C152.935 215.425 152.289 215.16 151.648 214.77C151.015 214.374 150.422 213.79 149.867 213.02C149.162 212.04 148.717 211.011 148.532 209.931C148.363 208.854 148.458 207.833 148.816 206.867C149.191 205.904 149.826 205.1 150.72 204.457C151.528 203.875 152.356 203.51 153.203 203.362C154.049 203.215 154.899 203.282 155.752 203.563C156.62 203.847 157.486 204.358 158.348 205.094C159.22 205.824 160.081 206.778 160.93 207.957L162.645 210.34ZM173.139 219.289L161.07 227.978L158.112 223.87L173.548 212.757L176.331 216.623L173.139 219.289ZM179.954 221.444L176.093 224.115C175.978 223.895 175.827 223.635 175.641 223.336C175.471 223.04 175.304 222.777 175.139 222.549C174.722 221.969 174.283 221.52 173.822 221.201C173.379 220.886 172.911 220.688 172.421 220.608C171.937 220.538 171.439 220.578 170.927 220.73C170.422 220.891 169.902 221.151 169.365 221.508L169.026 220.496C170.025 219.777 171.014 219.216 171.995 218.813C172.985 218.404 173.931 218.163 174.833 218.092C175.741 218.03 176.568 218.156 177.315 218.471C178.061 218.785 178.694 219.304 179.215 220.027C179.379 220.255 179.528 220.502 179.661 220.767C179.804 221.025 179.901 221.251 179.954 221.444Z" fill="white"/>
<path d="M178.565 280.262C177.702 279.064 177.118 277.852 176.814 276.627C176.519 275.396 176.475 274.2 176.68 273.042C176.892 271.892 177.324 270.817 177.974 269.814C178.633 268.805 179.477 267.931 180.504 267.191L181.074 266.78C182.244 265.938 183.434 265.334 184.644 264.969C185.853 264.603 187.037 264.473 188.196 264.577C189.361 264.691 190.455 265.059 191.479 265.679C192.513 266.292 193.434 267.16 194.242 268.282C195.029 269.376 195.547 270.476 195.795 271.582C196.043 272.689 196.039 273.767 195.785 274.817C195.537 275.876 195.053 276.889 194.333 277.855C193.623 278.814 192.702 279.701 191.57 280.516L189.858 281.748L181.025 269.48L183.764 267.508L189.69 275.739L190.004 275.513C190.575 275.102 191.008 274.631 191.305 274.1C191.617 273.572 191.76 273.007 191.732 272.407C191.703 271.806 191.46 271.187 191.001 270.55C190.611 270.008 190.157 269.627 189.638 269.409C189.12 269.19 188.557 269.111 187.951 269.172C187.352 269.242 186.718 269.424 186.049 269.719C185.396 270.015 184.727 270.41 184.043 270.903L183.472 271.314C182.854 271.759 182.345 272.255 181.945 272.803C181.552 273.36 181.282 273.938 181.134 274.535C180.993 275.142 180.986 275.753 181.112 276.37C181.246 276.996 181.528 277.609 181.959 278.208C182.493 278.95 183.132 279.537 183.876 279.968C184.637 280.403 185.48 280.641 186.405 280.682L185.674 284.241C184.976 284.253 184.21 284.132 183.378 283.879C182.553 283.636 181.722 283.223 180.885 282.642C180.057 282.054 179.284 281.261 178.565 280.262ZM200.121 284.149L188.053 292.839L185.095 288.73L200.53 277.617L203.313 281.483L200.121 284.149ZM206.936 286.304L203.076 288.975C202.96 288.755 202.81 288.495 202.623 288.196C202.453 287.9 202.286 287.638 202.122 287.409C201.704 286.829 201.265 286.38 200.805 286.062C200.361 285.746 199.893 285.548 199.403 285.468C198.919 285.398 198.421 285.438 197.909 285.59C197.405 285.751 196.884 286.011 196.347 286.368L196.008 285.356C197.007 284.637 197.996 284.076 198.977 283.674C199.967 283.264 200.913 283.023 201.815 282.952C202.723 282.89 203.55 283.016 204.297 283.331C205.043 283.645 205.677 284.164 206.197 284.887C206.361 285.115 206.51 285.362 206.643 285.627C206.786 285.885 206.883 286.111 206.936 286.304ZM201.927 304.769L208.803 299.819C209.298 299.462 209.663 299.077 209.898 298.662C210.143 298.24 210.242 297.786 210.196 297.3C210.156 296.823 209.944 296.319 209.561 295.786C209.232 295.33 208.867 294.993 208.466 294.777C208.074 294.553 207.665 294.457 207.24 294.489C206.825 294.514 206.422 294.666 206.032 294.947L203.074 290.839C203.731 290.366 204.463 290.07 205.272 289.95C206.081 289.83 206.917 289.899 207.782 290.157C208.656 290.408 209.509 290.841 210.341 291.455C211.18 292.079 211.959 292.89 212.678 293.888C213.541 295.087 214.108 296.295 214.379 297.515C214.651 298.735 214.579 299.898 214.164 301.006C213.755 302.123 212.952 303.113 211.753 303.976L205.148 308.731C204.302 309.341 203.645 309.893 203.179 310.388C202.721 310.876 202.365 311.364 202.109 311.851L201.867 312.025L198.878 307.874C199.153 307.373 199.566 306.845 200.118 306.288C200.687 305.734 201.29 305.228 201.927 304.769ZM208.238 301.049L205.933 302.751L204.279 300.455C203.889 299.913 203.488 299.486 203.077 299.176C202.666 298.866 202.254 298.664 201.841 298.572C201.437 298.472 201.043 298.467 200.66 298.556C200.283 298.654 199.918 298.83 199.566 299.083C199.214 299.336 198.954 299.646 198.785 300.014C198.626 300.374 198.575 300.764 198.632 301.185C198.699 301.599 198.88 302.01 199.174 302.419C199.619 303.037 200.13 303.486 200.706 303.764C201.282 304.043 201.839 304.175 202.379 304.162C202.925 304.159 203.363 304.046 203.693 303.822L202.734 306.16C202.234 306.288 201.679 306.37 201.069 306.405C200.466 306.449 199.835 306.406 199.176 306.273C198.527 306.134 197.882 305.869 197.24 305.479C196.608 305.083 196.015 304.499 195.46 303.729C194.755 302.749 194.31 301.72 194.124 300.64C193.955 299.563 194.05 298.542 194.409 297.576C194.784 296.613 195.419 295.809 196.313 295.166C197.121 294.584 197.949 294.219 198.795 294.071C199.642 293.924 200.492 293.991 201.344 294.272C202.213 294.556 203.079 295.067 203.941 295.803C204.813 296.533 205.674 297.487 206.523 298.666L208.238 301.049Z" fill="#FF5F04"/>
<rect x="263.074" y="-133" width="154" height="69" transform="rotate(54.247 263.074 -133)" fill="black"/>
<path d="M276.431 -58.8256L276.862 -58.6751C291.582 -53.533 304.365 -43.9872 313.476 -31.3327L337.165 1.56975" stroke="white"/>
<path d="M276.025 -58.5334V-58.5334C292.524 -54.4047 307.028 -44.5668 316.966 -30.7642L339.486 0.514781" stroke="white"/>
<path d="M286.549 -15.9311C285.686 -17.1294 285.103 -18.341 284.798 -19.5659C284.504 -20.7977 284.459 -21.9929 284.664 -23.1517C284.877 -24.3009 285.308 -25.3766 285.958 -26.379C286.618 -27.3882 287.461 -28.2626 288.488 -29.0021L289.059 -29.4129C290.229 -30.2551 291.418 -30.859 292.628 -31.2245C293.838 -31.5901 295.022 -31.7205 296.18 -31.6159C297.345 -31.5018 298.44 -31.1347 299.464 -30.5146C300.497 -29.9013 301.418 -29.0336 302.226 -27.9114C303.014 -26.8177 303.531 -25.7176 303.779 -24.611C304.027 -23.5044 304.024 -22.4261 303.769 -21.3762C303.521 -20.3168 303.037 -19.3041 302.317 -18.3383C301.607 -17.3793 300.686 -16.4924 299.554 -15.6776L297.843 -14.4451L289.01 -26.7133L291.749 -28.6853L297.675 -20.4542L297.989 -20.6801C298.559 -21.091 298.993 -21.5619 299.289 -22.0929C299.602 -22.6213 299.744 -23.1859 299.716 -23.7865C299.688 -24.3872 299.444 -25.0061 298.986 -25.6433C298.595 -26.1854 298.141 -26.5658 297.622 -26.7845C297.104 -27.0033 296.542 -27.0822 295.936 -27.0214C295.337 -26.951 294.702 -26.7688 294.033 -26.4747C293.381 -26.178 292.712 -25.7832 292.027 -25.2902L291.456 -24.8794C290.838 -24.4343 290.329 -23.9379 289.929 -23.3901C289.536 -22.8328 289.266 -22.2555 289.119 -21.6583C288.978 -21.0516 288.971 -20.4399 289.097 -19.8232C289.23 -19.1971 289.512 -18.5844 289.944 -17.9853C290.478 -17.2435 291.117 -16.6567 291.861 -16.2249C292.621 -15.7905 293.464 -15.5525 294.389 -15.511L293.659 -11.9527C292.96 -11.9406 292.195 -12.061 291.363 -12.314C290.538 -12.5574 289.706 -12.9698 288.869 -13.5511C288.041 -14.1392 287.268 -14.9325 286.549 -15.9311ZM308.105 -12.0438L296.037 -3.35473L293.079 -7.46317L308.514 -18.5761L311.298 -14.7102L308.105 -12.0438ZM314.92 -9.88907L311.06 -7.21811C310.945 -7.43836 310.794 -7.69799 310.608 -7.997C310.438 -8.29333 310.27 -8.55563 310.106 -8.78387C309.688 -9.364 309.249 -9.81327 308.789 -10.1317C308.345 -10.4474 307.878 -10.6452 307.387 -10.7251C306.903 -10.7955 306.405 -10.7548 305.894 -10.603C305.389 -10.4418 304.868 -10.1823 304.331 -9.82476L303.992 -10.837C304.991 -11.556 305.981 -12.1169 306.961 -12.5197C307.952 -12.9294 308.897 -13.17 309.799 -13.2415C310.707 -13.3035 311.535 -13.1772 312.281 -12.8626C313.028 -12.548 313.661 -12.0293 314.181 -11.3065C314.346 -11.0782 314.494 -10.8315 314.628 -10.5664C314.77 -10.3081 314.868 -10.0823 314.92 -9.88907ZM309.912 8.57579L316.788 3.62529C317.282 3.26923 317.647 2.8837 317.883 2.46868C318.128 2.04681 318.227 1.59279 318.18 1.10663C318.14 0.629984 317.928 0.125371 317.545 -0.407204C317.216 -0.863697 316.851 -1.20017 316.45 -1.41663C316.058 -1.63993 315.65 -1.7358 315.225 -1.70424C314.809 -1.67952 314.407 -1.52679 314.017 -1.24605L311.059 -5.35449C311.715 -5.82695 312.448 -6.12327 313.256 -6.24347C314.065 -6.36367 314.902 -6.29461 315.766 -6.0363C316.641 -5.78484 317.494 -5.35211 318.326 -4.73812C319.164 -4.11462 319.943 -3.30358 320.662 -2.30501C321.525 -1.10671 322.092 0.10223 322.364 1.32182C322.635 2.54141 322.563 3.70507 322.148 4.81281C321.739 5.93006 320.936 6.92005 319.738 7.7828L313.133 12.5382C312.286 13.1476 311.63 13.6997 311.163 14.1946C310.706 14.6827 310.349 15.1703 310.094 15.6576L309.851 15.8322L306.862 11.681C307.137 11.18 307.55 10.6513 308.103 10.0947C308.672 9.54087 309.275 9.03455 309.912 8.57579ZM316.222 4.85551L313.917 6.55818L312.264 4.26145C311.874 3.71936 311.473 3.29311 311.062 2.98269C310.65 2.67227 310.238 2.47084 309.825 2.3784C309.421 2.2791 309.028 2.27377 308.644 2.3624C308.267 2.46054 307.902 2.63628 307.551 2.88963C307.199 3.14297 306.938 3.45319 306.769 3.82028C306.61 4.18052 306.559 4.57101 306.616 4.99174C306.683 5.40562 306.864 5.81704 307.159 6.22598C307.604 6.84415 308.114 7.29246 308.69 7.57093C309.266 7.8494 309.824 7.98217 310.363 7.96924C310.909 7.96583 311.348 7.85247 311.678 7.62918L310.718 9.96638C310.218 10.095 309.664 10.1767 309.053 10.2117C308.45 10.2562 307.819 10.2123 307.161 10.0799C306.512 9.94064 305.866 9.67606 305.225 9.28613C304.592 8.88936 303.999 8.3058 303.444 7.53547C302.739 6.55591 302.294 5.52634 302.109 4.44674C301.94 3.36981 302.035 2.34841 302.393 1.38257C302.769 0.419384 303.403 -0.384026 304.297 -1.02766C305.105 -1.60967 305.933 -1.97447 306.78 -2.12205C307.627 -2.26964 308.476 -2.20267 309.329 -1.92116C310.198 -1.63698 311.063 -1.12665 311.926 -0.390172C312.797 0.339462 313.658 1.29392 314.507 2.47319L316.222 4.85551Z" fill="#FF5F04"/>
<rect x="44.0742" y="9" width="154" height="69" transform="rotate(54.247 44.0742 9)" fill="black"/>
<path d="M1.06226 39.9675L5.4537 42.0227C17.1978 47.5188 27.3404 55.9284 34.9166 66.4513L64.5557 107.618" stroke="white"/>
<path d="M2.68531 38.7989L7.07675 40.8541C18.8208 46.3503 28.9634 54.7598 36.5397 65.2827L66.1787 106.449" stroke="white"/>
<path d="M57.4309 83.1744L57.8616 83.3249C72.5824 88.4671 85.3652 98.0128 94.4762 110.667L118.165 143.57" stroke="white"/>
<path d="M57.0251 83.4666V83.4666C73.5242 87.5953 88.0284 97.4332 97.966 111.236L120.486 142.515" stroke="white"/>
<path d="M32.3863 43.0775C32.7492 43.5815 33.1661 43.96 33.6371 44.213C34.1175 44.4591 34.6124 44.5649 35.1218 44.5303C35.6475 44.4983 36.1563 44.3125 36.6482 43.9728L39.4316 47.8388C38.3405 48.6098 37.1664 49.0147 35.9092 49.0535C34.6614 49.0855 33.4493 48.7958 32.2727 48.1844C31.1056 47.5663 30.0941 46.6628 29.2382 45.474C28.3755 44.2757 27.822 43.0858 27.5778 41.9042C27.3404 40.7322 27.3614 39.598 27.6406 38.5017C27.9294 37.3985 28.4384 36.3606 29.1676 35.3879C29.9064 34.4083 30.8178 33.5283 31.902 32.7477L32.3157 32.4499C33.4094 31.6624 34.5331 31.0772 35.6869 30.6941C36.8502 30.3042 37.996 30.1508 39.1243 30.2337C40.2621 30.3098 41.3491 30.6463 42.3853 31.2432C43.4215 31.84 44.3676 32.7329 45.2235 33.9217C46.1341 35.1865 46.6893 36.4691 46.889 37.7693C47.0955 39.0791 46.9422 40.3302 46.429 41.5228C45.9322 42.718 45.0738 43.762 43.8538 44.6548L41.0705 40.7889C41.5772 40.4096 41.9644 39.9648 42.2322 39.4543C42.5069 38.9533 42.6275 38.4188 42.594 37.8508C42.5769 37.2856 42.3664 36.7224 41.9624 36.1613C41.531 35.5621 41.05 35.1648 40.5193 34.9692C39.9982 34.7668 39.4435 34.7185 38.8554 34.8243C38.2768 34.9232 37.6809 35.1284 37.0677 35.4399C36.4708 35.7541 35.8728 36.1269 35.2737 36.5583L34.86 36.8562C34.2608 37.2875 33.7129 37.7398 33.216 38.213C32.7192 38.6863 32.3322 39.1815 32.0548 39.6989C31.7844 40.2257 31.6624 40.7684 31.689 41.3268C31.7157 41.8853 31.9481 42.4688 32.3863 43.0775ZM45.3189 59.8667L52.1948 54.9162C52.6894 54.5602 53.0544 54.1746 53.2899 53.7596C53.5349 53.3377 53.634 52.8837 53.5872 52.3976C53.5472 51.9209 53.3356 51.4163 52.9521 50.8837C52.6234 50.4272 52.2585 50.0908 51.8571 49.8743C51.4653 49.651 51.0569 49.5551 50.632 49.5867C50.2166 49.6114 49.814 49.7642 49.424 50.0449L46.4661 45.9364C47.1223 45.464 47.8547 45.1677 48.6635 45.0475C49.4722 44.9273 50.3089 44.9963 51.1736 45.2546C52.0478 45.5061 52.9008 45.9388 53.7328 46.5528C54.5716 47.1763 55.3504 47.9874 56.0694 48.9859C56.9321 50.1842 57.4993 51.3932 57.7709 52.6128C58.0425 53.8323 57.9706 54.996 57.5551 56.1037C57.1466 57.221 56.3431 58.211 55.1448 59.0737L48.54 63.8291C47.6935 64.4385 47.037 64.9906 46.5702 65.4855C46.1129 65.9736 45.7565 66.4613 45.5008 66.9486L45.2583 67.1232L42.2695 62.9719C42.5442 62.471 42.9577 61.9422 43.5101 61.3857C44.0788 60.8318 44.6817 60.3255 45.3189 59.8667ZM51.6294 56.1465L49.3246 57.8491L47.671 55.5524C47.2808 55.0103 46.88 54.584 46.4688 54.2736C46.0576 53.9632 45.6454 53.7618 45.2323 53.6693C44.8287 53.57 44.435 53.5647 44.0511 53.6533C43.6741 53.7515 43.3097 53.9272 42.9578 54.1806C42.6059 54.4339 42.3456 54.7441 42.1766 55.1112C42.0172 55.4715 41.9663 55.8619 42.0237 56.2827C42.0906 56.6966 42.2713 57.108 42.5658 57.5169C43.0108 58.1351 43.5213 58.5834 44.0973 58.8619C44.6732 59.1403 45.2309 59.2731 45.7703 59.2602C46.3165 59.2568 46.7548 59.1434 47.085 58.9201L46.1252 61.2573C45.6257 61.3859 45.0709 61.4677 44.4607 61.5027C43.8574 61.5472 43.2265 61.5032 42.568 61.3708C41.919 61.2316 41.2737 60.967 40.6319 60.5771C39.9997 60.1803 39.4063 59.5967 38.8516 58.8264C38.1464 57.8469 37.7011 56.8173 37.5159 55.7377C37.347 54.6607 37.4419 53.6394 37.8007 52.6735C38.1758 51.7103 38.8103 50.9069 39.7043 50.2633C40.5126 49.6813 41.3402 49.3165 42.187 49.1689C43.0338 49.0213 43.8834 49.0883 44.7359 49.3698C45.6048 49.654 46.4704 50.1643 47.3327 50.9008C48.2046 51.6304 49.0651 52.5849 49.9141 53.7641L51.6294 56.1465ZM62.1233 65.0961L50.0548 73.7851L47.0968 69.6767L62.532 58.5637L65.3153 62.4296L62.1233 65.0961ZM68.9381 67.2508L65.0779 69.9218C64.9626 69.7015 64.8118 69.4419 64.6254 69.1429C64.4553 68.8465 64.2882 68.5842 64.1238 68.356C63.7061 67.7759 63.2672 67.3266 62.8069 67.0082C62.3629 66.6924 61.8956 66.4946 61.4049 66.4147C60.921 66.3443 60.4233 66.385 59.9116 66.5368C59.4068 66.6981 58.886 66.9575 58.3493 67.3151L58.0103 66.3028C59.0089 65.5839 59.9985 65.023 60.9792 64.6202C61.9694 64.2105 62.9153 63.9699 63.8169 63.8984C64.7253 63.8364 65.5527 63.9627 66.299 64.2773C67.0454 64.5919 67.6788 65.1106 68.1992 65.8334C68.3635 66.0616 68.5122 66.3083 68.6454 66.5735C68.788 66.8318 68.8856 67.0575 68.9381 67.2508Z" fill="white"/>
<path d="M67.549 126.069C66.6863 124.871 66.1028 123.659 65.7985 122.434C65.5037 121.202 65.459 120.007 65.6644 118.848C65.8767 117.699 66.3079 116.623 66.958 115.621C67.6177 114.612 68.4611 113.737 69.4882 112.998L70.0588 112.587C71.2285 111.745 72.4183 111.141 73.628 110.775C74.8377 110.41 76.0217 110.279 77.18 110.384C78.3452 110.498 79.4398 110.865 80.4639 111.485C81.4974 112.099 82.4182 112.966 83.2262 114.089C84.0136 115.182 84.5313 116.282 84.7793 117.389C85.0273 118.496 85.0239 119.574 84.769 120.624C84.5209 121.683 84.037 122.696 83.3173 123.662C82.6071 124.621 81.6861 125.508 80.5544 126.322L78.8425 127.555L70.0097 115.287L72.7486 113.315L78.6749 121.546L78.9887 121.32C79.5593 120.909 79.9928 120.438 80.2891 119.907C80.6018 119.379 80.7441 118.814 80.716 118.213C80.6878 117.613 80.4444 116.994 79.9856 116.357C79.5953 115.815 79.1409 115.434 78.6225 115.215C78.104 114.997 77.5417 114.918 76.9357 114.979C76.3366 115.049 75.7024 115.231 75.0333 115.525C74.3805 115.822 73.7118 116.217 73.027 116.71L72.4564 117.121C71.8382 117.566 71.3293 118.062 70.9294 118.61C70.5365 119.167 70.2662 119.744 70.1186 120.342C69.9778 120.948 69.9706 121.56 70.0969 122.177C70.23 122.803 70.5122 123.416 70.9436 124.015C71.4777 124.757 72.1168 125.343 72.8608 125.775C73.6213 126.21 74.4641 126.447 75.3892 126.489L74.6588 130.047C73.96 130.059 73.1946 129.939 72.3626 129.686C71.5375 129.443 70.7064 129.03 69.8691 128.449C69.0413 127.861 68.268 127.067 67.549 126.069ZM89.1055 129.956L77.0369 138.645L74.079 134.537L89.5141 123.424L92.2975 127.29L89.1055 129.956ZM95.9202 132.111L92.06 134.782C91.9448 134.562 91.7939 134.302 91.6075 134.003C91.4375 133.707 91.2703 133.444 91.106 133.216C90.6883 132.636 90.2493 132.187 89.789 131.868C89.3451 131.553 88.8778 131.355 88.3871 131.275C87.9032 131.204 87.4054 131.245 86.8938 131.397C86.389 131.558 85.8682 131.818 85.3314 132.175L84.9925 131.163C85.9911 130.444 86.9807 129.883 87.9614 129.48C88.9516 129.071 89.8975 128.83 90.7991 128.759C91.7075 128.697 92.5349 128.823 93.2812 129.137C94.0276 129.452 94.6609 129.971 95.1813 130.694C95.3457 130.922 95.4944 131.168 95.6275 131.434C95.7702 131.692 95.8677 131.918 95.9202 132.111ZM90.9117 150.576L97.7876 145.625C98.2822 145.269 98.6472 144.884 98.8827 144.469C99.1276 144.047 99.2267 143.593 99.18 143.107C99.14 142.63 98.9283 142.125 98.5449 141.593C98.2162 141.136 97.8512 140.8 97.4499 140.583C97.0581 140.36 96.6497 140.264 96.2248 140.296C95.8094 140.32 95.4068 140.473 95.0168 140.754L92.0588 136.646C92.7151 136.173 93.4475 135.877 94.2563 135.757C95.065 135.636 95.9017 135.705 96.7664 135.964C97.6406 136.215 98.4936 136.648 99.3256 137.262C100.164 137.885 100.943 138.696 101.662 139.695C102.525 140.893 103.092 142.102 103.364 143.322C103.635 144.541 103.563 145.705 103.148 146.813C102.739 147.93 101.936 148.92 100.738 149.783L94.1327 154.538C93.2863 155.148 92.6297 155.7 92.163 156.195C91.7057 156.683 91.3493 157.17 91.0936 157.658L90.8511 157.832L87.8623 153.681C88.137 153.18 88.5505 152.651 89.1029 152.095C89.6716 151.541 90.2745 151.035 90.9117 150.576ZM97.2221 146.856L94.9174 148.558L93.2638 146.261C92.8735 145.719 92.4728 145.293 92.0616 144.983C91.6504 144.672 91.2382 144.471 90.8251 144.378C90.4215 144.279 90.0277 144.274 89.6439 144.362C89.2669 144.461 88.9025 144.636 88.5506 144.89C88.1987 145.143 87.9383 145.453 87.7694 145.82C87.61 146.181 87.5591 146.571 87.6165 146.992C87.6834 147.406 87.8641 147.817 88.1586 148.226C88.6036 148.844 89.1141 149.292 89.69 149.571C90.266 149.849 90.8237 149.982 91.3631 149.969C91.9093 149.966 92.3476 149.852 92.6778 149.629L91.718 151.966C91.2185 152.095 90.6637 152.177 90.0535 152.212C89.4502 152.256 88.8193 152.212 88.1608 152.08C87.5118 151.941 86.8664 151.676 86.2247 151.286C85.5925 150.889 84.9991 150.306 84.4444 149.535C83.7392 148.556 83.2939 147.526 83.1087 146.447C82.9398 145.37 83.0347 144.348 83.3935 143.383C83.7686 142.419 84.4031 141.616 85.2971 140.972C86.1054 140.39 86.933 140.026 87.7798 139.878C88.6266 139.73 89.4762 139.797 90.3287 140.079C91.1976 140.363 92.0632 140.873 92.9255 141.61C93.7974 142.339 94.6579 143.294 95.5069 144.473L97.2221 146.856Z" fill="#FF5F04"/>
<rect x="228.012" y="126.366" width="154" height="69" transform="rotate(54.247 228.012 126.366)" fill="black"/>
<path d="M185 157.333L189.391 159.389C201.135 164.885 211.278 173.294 218.854 183.817L248.493 224.984" stroke="white"/>
<path d="M186.623 156.165L191.014 158.22C202.758 163.716 212.901 172.126 220.477 182.649L250.116 223.815" stroke="white"/>
<path d="M241.368 200.54L241.799 200.691C256.52 205.833 269.303 215.379 278.414 228.033L302.103 260.936" stroke="white"/>
<path d="M240.963 200.832V200.832C257.462 204.961 271.966 214.799 281.904 228.602L304.424 259.881" stroke="white"/>
<path d="M216.324 160.443C216.687 160.947 217.104 161.326 217.575 161.579C218.055 161.825 218.55 161.931 219.059 161.896C219.585 161.864 220.094 161.678 220.586 161.339L223.369 165.205C222.278 165.976 221.104 166.381 219.847 166.419C218.599 166.451 217.387 166.162 216.21 165.55C215.043 164.932 214.032 164.029 213.176 162.84C212.313 161.642 211.759 160.452 211.515 159.27C211.278 158.098 211.299 156.964 211.578 155.868C211.867 154.764 212.376 153.726 213.105 152.754C213.844 151.774 214.755 150.894 215.84 150.114L216.253 149.816C217.347 149.028 218.471 148.443 219.624 148.06C220.788 147.67 221.933 147.517 223.062 147.6C224.2 147.676 225.287 148.012 226.323 148.609C227.359 149.206 228.305 150.099 229.161 151.288C230.072 152.552 230.627 153.835 230.827 155.135C231.033 156.445 230.88 157.696 230.367 158.889C229.87 160.084 229.011 161.128 227.791 162.021L225.008 158.155C225.515 157.775 225.902 157.331 226.17 156.82C226.444 156.319 226.565 155.785 226.532 155.217C226.514 154.651 226.304 154.088 225.9 153.527C225.469 152.928 224.987 152.531 224.457 152.335C223.936 152.133 223.381 152.084 222.793 152.19C222.214 152.289 221.618 152.494 221.005 152.806C220.408 153.12 219.81 153.493 219.211 153.924L218.797 154.222C218.198 154.653 217.65 155.106 217.154 155.579C216.657 156.052 216.27 156.547 215.992 157.065C215.722 157.592 215.6 158.134 215.627 158.693C215.653 159.251 215.886 159.835 216.324 160.443ZM229.256 177.233L236.132 172.282C236.627 171.926 236.992 171.54 237.227 171.125C237.472 170.704 237.571 170.25 237.525 169.763C237.485 169.287 237.273 168.782 236.89 168.25C236.561 167.793 236.196 167.457 235.795 167.24C235.403 167.017 234.994 166.921 234.57 166.953C234.154 166.977 233.751 167.13 233.362 167.411L230.404 163.302C231.06 162.83 231.792 162.534 232.601 162.413C233.41 162.293 234.246 162.362 235.111 162.62C235.985 162.872 236.838 163.305 237.67 163.919C238.509 164.542 239.288 165.353 240.007 166.352C240.87 167.55 241.437 168.759 241.708 169.979C241.98 171.198 241.908 172.362 241.493 173.47C241.084 174.587 240.281 175.577 239.082 176.44L232.477 181.195C231.631 181.804 230.974 182.356 230.508 182.851C230.05 183.339 229.694 183.827 229.438 184.314L229.196 184.489L226.207 180.338C226.482 179.837 226.895 179.308 227.448 178.752C228.016 178.198 228.619 177.691 229.256 177.233ZM235.567 173.512L233.262 175.215L231.609 172.918C231.218 172.376 230.818 171.95 230.406 171.639C229.995 171.329 229.583 171.128 229.17 171.035C228.766 170.936 228.372 170.931 227.989 171.019C227.612 171.117 227.247 171.293 226.895 171.546C226.543 171.8 226.283 172.11 226.114 172.477C225.955 172.837 225.904 173.228 225.961 173.649C226.028 174.062 226.209 174.474 226.503 174.883C226.948 175.501 227.459 175.949 228.035 176.228C228.611 176.506 229.168 176.639 229.708 176.626C230.254 176.623 230.692 176.509 231.022 176.286L230.063 178.623C229.563 178.752 229.008 178.834 228.398 178.869C227.795 178.913 227.164 178.869 226.505 178.737C225.857 178.597 225.211 178.333 224.569 177.943C223.937 177.546 223.344 176.963 222.789 176.192C222.084 175.213 221.639 174.183 221.453 173.104C221.285 172.027 221.379 171.005 221.738 170.039C222.113 169.076 222.748 168.273 223.642 167.629C224.45 167.047 225.278 166.682 226.125 166.535C226.971 166.387 227.821 166.454 228.673 166.736C229.542 167.02 230.408 167.53 231.27 168.267C232.142 168.996 233.003 169.951 233.852 171.13L235.567 173.512ZM246.061 182.462L233.992 191.151L231.034 187.043L246.469 175.93L249.253 179.795L246.061 182.462ZM252.876 184.617L249.015 187.288C248.9 187.067 248.749 186.808 248.563 186.509C248.393 186.212 248.226 185.95 248.061 185.722C247.644 185.142 247.205 184.692 246.744 184.374C246.3 184.058 245.833 183.86 245.342 183.781C244.859 183.71 244.361 183.751 243.849 183.903C243.344 184.064 242.824 184.323 242.287 184.681L241.948 183.669C242.946 182.95 243.936 182.389 244.917 181.986C245.907 181.576 246.853 181.336 247.754 181.264C248.663 181.202 249.49 181.329 250.237 181.643C250.983 181.958 251.616 182.476 252.137 183.199C252.301 183.427 252.45 183.674 252.583 183.939C252.726 184.198 252.823 184.423 252.876 184.617Z" fill="white"/>
<path d="M251.487 243.435C250.624 242.236 250.04 241.025 249.736 239.8C249.441 238.568 249.396 237.373 249.602 236.214C249.814 235.065 250.245 233.989 250.896 232.987C251.555 231.978 252.399 231.103 253.426 230.364L253.996 229.953C255.166 229.111 256.356 228.507 257.565 228.141C258.775 227.776 259.959 227.645 261.118 227.75C262.283 227.864 263.377 228.231 264.401 228.851C265.435 229.465 266.356 230.332 267.164 231.454C267.951 232.548 268.469 233.648 268.717 234.755C268.965 235.861 268.961 236.94 268.706 237.99C268.458 239.049 267.975 240.062 267.255 241.028C266.545 241.987 265.624 242.873 264.492 243.688L262.78 244.921L253.947 232.653L256.686 230.681L262.612 238.912L262.926 238.686C263.497 238.275 263.93 237.804 264.227 237.273C264.539 236.745 264.682 236.18 264.653 235.579C264.625 234.979 264.382 234.36 263.923 233.723C263.533 233.18 263.078 232.8 262.56 232.581C262.041 232.363 261.479 232.284 260.873 232.344C260.274 232.415 259.64 232.597 258.971 232.891C258.318 233.188 257.649 233.583 256.965 234.076L256.394 234.486C255.776 234.932 255.267 235.428 254.867 235.976C254.474 236.533 254.204 237.11 254.056 237.708C253.915 238.314 253.908 238.926 254.034 239.543C254.167 240.169 254.45 240.781 254.881 241.381C255.415 242.122 256.054 242.709 256.798 243.141C257.559 243.575 258.402 243.813 259.327 243.855L258.596 247.413C257.897 247.425 257.132 247.305 256.3 247.052C255.475 246.808 254.644 246.396 253.807 245.815C252.979 245.227 252.205 244.433 251.487 243.435ZM273.043 247.322L260.974 256.011L258.016 251.903L273.452 240.79L276.235 244.656L273.043 247.322ZM279.858 249.477L275.998 252.148C275.882 251.927 275.731 251.668 275.545 251.369C275.375 251.073 275.208 250.81 275.043 250.582C274.626 250.002 274.187 249.553 273.727 249.234C273.283 248.918 272.815 248.721 272.325 248.641C271.841 248.57 271.343 248.611 270.831 248.763C270.326 248.924 269.806 249.184 269.269 249.541L268.93 248.529C269.929 247.81 270.918 247.249 271.899 246.846C272.889 246.436 273.835 246.196 274.737 246.124C275.645 246.062 276.472 246.189 277.219 246.503C277.965 246.818 278.598 247.337 279.119 248.059C279.283 248.288 279.432 248.534 279.565 248.799C279.708 249.058 279.805 249.284 279.858 249.477ZM274.849 267.942L281.725 262.991C282.22 262.635 282.585 262.25 282.82 261.835C283.065 261.413 283.164 260.959 283.117 260.472C283.078 259.996 282.866 259.491 282.482 258.959C282.154 258.502 281.789 258.166 281.387 257.949C280.996 257.726 280.587 257.63 280.162 257.662C279.747 257.686 279.344 257.839 278.954 258.12L275.996 254.011C276.653 253.539 277.385 253.243 278.194 253.122C279.003 253.002 279.839 253.071 280.704 253.33C281.578 253.581 282.431 254.014 283.263 254.628C284.102 255.251 284.881 256.062 285.6 257.061C286.462 258.259 287.03 259.468 287.301 260.688C287.573 261.907 287.501 263.071 287.085 264.179C286.677 265.296 285.873 266.286 284.675 267.149L278.07 271.904C277.224 272.513 276.567 273.066 276.1 273.56C275.643 274.049 275.287 274.536 275.031 275.023L274.789 275.198L271.8 271.047C272.074 270.546 272.488 270.017 273.04 269.461C273.609 268.907 274.212 268.4 274.849 267.942ZM281.16 264.221L278.855 265.924L277.201 263.627C276.811 263.085 276.41 262.659 275.999 262.349C275.588 262.038 275.176 261.837 274.763 261.744C274.359 261.645 273.965 261.64 273.581 261.728C273.204 261.826 272.84 262.002 272.488 262.255C272.136 262.509 271.876 262.819 271.707 263.186C271.548 263.546 271.497 263.937 271.554 264.358C271.621 264.771 271.802 265.183 272.096 265.592C272.541 266.21 273.052 266.658 273.628 266.937C274.203 267.215 274.761 267.348 275.301 267.335C275.847 267.332 276.285 267.218 276.615 266.995L275.655 269.332C275.156 269.461 274.601 269.543 273.991 269.578C273.388 269.622 272.757 269.578 272.098 269.446C271.449 269.306 270.804 269.042 270.162 268.652C269.53 268.255 268.937 267.672 268.382 266.901C267.677 265.922 267.231 264.892 267.046 263.813C266.877 262.736 266.972 261.714 267.331 260.748C267.706 259.785 268.341 258.982 269.235 258.338C270.043 257.756 270.871 257.391 271.717 257.244C272.564 257.096 273.414 257.163 274.266 257.445C275.135 257.729 276.001 258.239 276.863 258.976C277.735 259.705 278.595 260.66 279.444 261.839L281.16 264.221Z" fill="#FF5F04"/>
<rect x="116.996" y="-27.8274" width="154" height="69" transform="rotate(54.247 116.996 -27.8274)" fill="black"/>
<path d="M73.9841 3.14012L78.3756 5.1953C90.1197 10.6915 100.262 19.101 107.838 29.6239L137.478 70.7906" stroke="white"/>
<path d="M75.6072 1.97154L79.9986 4.02672C91.7427 9.52289 101.885 17.9324 109.462 28.4553L139.101 69.622" stroke="white"/>
<path d="M130.353 46.3471L130.783 46.4975C145.504 51.6397 158.287 61.1855 167.398 73.8399L191.087 106.742" stroke="white"/>
<path d="M129.947 46.6392V46.6392C146.446 50.768 160.95 60.6058 170.888 74.4085L193.408 105.687" stroke="white"/>
<path d="M105.308 6.25011C105.671 6.75416 106.088 7.13267 106.559 7.38565C107.039 7.63178 107.534 7.73754 108.044 7.70293C108.569 7.67098 109.078 7.48516 109.57 7.14546L112.353 11.0114C111.262 11.7825 110.088 12.1874 108.831 12.2262C107.583 12.2581 106.371 11.9684 105.195 11.3571C104.027 10.7389 103.016 9.83541 102.16 8.64663C101.297 7.44833 100.744 6.25841 100.5 5.07686C100.262 3.90483 100.283 2.77065 100.562 1.67432C100.851 0.571142 101.36 -0.466789 102.089 -1.43948C102.828 -2.41901 103.74 -3.29907 104.824 -4.07965L105.238 -4.3775C106.331 -5.16493 107.455 -5.75017 108.609 -6.13322C109.772 -6.52312 110.918 -6.67659 112.046 -6.59365C113.184 -6.51755 114.271 -6.18106 115.307 -5.58419C116.343 -4.98731 117.289 -4.09448 118.145 -2.9057C119.056 -1.64083 119.611 -0.358284 119.811 0.941949C120.017 2.25169 119.864 3.50285 119.351 4.69542C118.854 5.89065 117.996 6.93466 116.776 7.82745L113.992 3.96153C114.499 3.58227 114.886 3.13739 115.154 2.62689C115.429 2.1259 115.549 1.59143 115.516 1.02348C115.499 0.458196 115.288 -0.105 114.884 -0.666106C114.453 -1.26525 113.972 -1.6626 113.441 -1.85813C112.92 -2.06052 112.365 -2.10884 111.777 -2.00309C111.199 -1.9042 110.603 -1.69898 109.99 -1.38743C109.393 -1.07322 108.795 -0.700436 108.196 -0.269064L107.782 0.0287886C107.183 0.460161 106.635 0.912456 106.138 1.38567C105.641 1.85889 105.254 2.35418 104.977 2.87153C104.706 3.39838 104.584 3.94103 104.611 4.49947C104.638 5.05791 104.87 5.64145 105.308 6.25011ZM118.241 23.0394L125.117 18.0889C125.611 17.7328 125.976 17.3473 126.212 16.9323C126.457 16.5104 126.556 16.0564 126.509 15.5702C126.469 15.0936 126.257 14.5889 125.874 14.0564C125.545 13.5999 125.18 13.2634 124.779 13.0469C124.387 12.8236 123.979 12.7278 123.554 12.7593C123.139 12.7841 122.736 12.9368 122.346 13.2175L119.388 9.10908C120.044 8.63663 120.777 8.3403 121.585 8.22011C122.394 8.09991 123.231 8.16897 124.095 8.42728C124.97 8.67874 125.823 9.11147 126.655 9.72545C127.493 10.349 128.272 11.16 128.991 12.1586C129.854 13.3569 130.421 14.5658 130.693 15.7854C130.964 17.005 130.892 18.1686 130.477 19.2764C130.068 20.3936 129.265 21.3836 128.067 22.2464L121.462 27.0017C120.615 27.6111 119.959 28.1633 119.492 28.6582C119.035 29.1462 118.678 29.6339 118.423 30.1212L118.18 30.2958L115.191 26.1446C115.466 25.6436 115.88 25.1148 116.432 24.5583C117.001 24.0044 117.604 23.4981 118.241 23.0394ZM124.551 19.3191L122.247 21.0218L120.593 18.725C120.203 18.1829 119.802 17.7567 119.391 17.4463C118.979 17.1359 118.567 16.9344 118.154 16.842C117.751 16.7427 117.357 16.7373 116.973 16.826C116.596 16.9241 116.232 17.0999 115.88 17.3532C115.528 17.6066 115.267 17.9168 115.099 18.2839C114.939 18.6441 114.888 19.0346 114.946 19.4553C115.013 19.8692 115.193 20.2806 115.488 20.6896C115.933 21.3077 116.443 21.756 117.019 22.0345C117.595 22.313 118.153 22.4457 118.692 22.4328C119.238 22.4294 119.677 22.316 120.007 22.0928L119.047 24.43C118.548 24.5585 117.993 24.6403 117.383 24.6753C116.779 24.7198 116.148 24.6758 115.49 24.5435C114.841 24.4042 114.196 24.1396 113.554 23.7497C112.922 23.3529 112.328 22.7694 111.774 21.999C111.068 21.0195 110.623 19.9899 110.438 18.9103C110.269 17.8334 110.364 16.812 110.723 15.8461C111.098 14.883 111.732 14.0796 112.626 13.4359C113.435 12.8539 114.262 12.4891 115.109 12.3415C115.956 12.1939 116.805 12.2609 117.658 12.5424C118.527 12.8266 119.392 13.3369 120.255 14.0734C121.126 14.803 121.987 15.7575 122.836 16.9368L124.551 19.3191ZM135.045 28.2687L122.977 36.9578L120.019 32.8493L135.454 21.7364L138.237 25.6023L135.045 28.2687ZM141.86 30.4234L138 33.0944C137.884 32.8741 137.734 32.6145 137.547 32.3155C137.377 32.0192 137.21 31.7569 137.046 31.5286C136.628 30.9485 136.189 30.4992 135.729 30.1808C135.285 29.8651 134.817 29.6673 134.327 29.5874C133.843 29.517 133.345 29.5577 132.833 29.7095C132.329 29.8707 131.808 30.1302 131.271 30.4877L130.932 29.4755C131.931 28.7565 132.92 28.1956 133.901 27.7928C134.891 27.3831 135.837 27.1425 136.739 27.071C137.647 27.009 138.475 27.1353 139.221 27.4499C139.967 27.7645 140.601 28.2832 141.121 29.006C141.285 29.2343 141.434 29.481 141.567 29.7461C141.71 30.0044 141.807 30.2302 141.86 30.4234Z" fill="white"/>
<path d="M140.471 89.2415C139.608 88.0432 139.025 86.8316 138.72 85.6067C138.426 84.3749 138.381 83.1797 138.586 82.021C138.799 80.8718 139.23 79.796 139.88 78.7936C140.54 77.7844 141.383 76.9101 142.41 76.1706L142.981 75.7598C144.15 74.9176 145.34 74.3137 146.55 73.9481C147.76 73.5826 148.944 73.4521 150.102 73.5567C151.267 73.6709 152.362 74.038 153.386 74.6581C154.419 75.2713 155.34 76.139 156.148 77.2612C156.935 78.3549 157.453 79.4551 157.701 80.5617C157.949 81.6683 157.946 82.7465 157.691 83.7965C157.443 84.8559 156.959 85.8685 156.239 86.8344C155.529 87.7934 154.608 88.6803 153.476 89.4951L151.764 90.7276L142.932 78.4593L145.67 76.4873L151.597 84.7185L151.911 84.4925C152.481 84.0817 152.915 83.6107 153.211 83.0797C153.524 82.5513 153.666 81.9868 153.638 81.3861C153.61 80.7855 153.366 80.1665 152.907 79.5294C152.517 78.9873 152.063 78.6069 151.544 78.3881C151.026 78.1694 150.464 78.0904 149.858 78.1513C149.258 78.2217 148.624 78.4039 147.955 78.6979C147.302 78.9946 146.634 79.3895 145.949 79.8825L145.378 80.2933C144.76 80.7384 144.251 81.2348 143.851 81.7826C143.458 82.3398 143.188 82.9171 143.04 83.5143C142.9 84.1211 142.892 84.7328 143.019 85.3494C143.152 85.9756 143.434 86.5882 143.865 87.1874C144.4 87.9292 145.039 88.516 145.783 88.9477C146.543 89.3822 147.386 89.6201 148.311 89.6616L147.581 93.2199C146.882 93.2321 146.116 93.1117 145.285 92.8587C144.459 92.6152 143.628 92.2028 142.791 91.6216C141.963 91.0334 141.19 90.2401 140.471 89.2415ZM162.027 93.1288L149.959 101.818L147.001 97.7095L162.436 86.5965L165.219 90.4624L162.027 93.1288ZM168.842 95.2836L164.982 97.9545C164.867 97.7343 164.716 97.4747 164.529 97.1757C164.359 96.8793 164.192 96.617 164.028 96.3888C163.61 95.8086 163.171 95.3594 162.711 95.041C162.267 94.7252 161.8 94.5274 161.309 94.4475C160.825 94.3771 160.327 94.4178 159.816 94.5696C159.311 94.7309 158.79 94.9903 158.253 95.3479L157.914 94.3356C158.913 93.6167 159.903 93.0558 160.883 92.6529C161.873 92.2433 162.819 92.0027 163.721 91.9312C164.629 91.8692 165.457 91.9955 166.203 92.3101C166.949 92.6247 167.583 93.1434 168.103 93.8662C168.268 94.0944 168.416 94.3411 168.549 94.6063C168.692 94.8646 168.79 95.0903 168.842 95.2836ZM163.834 113.748L170.71 108.798C171.204 108.442 171.569 108.056 171.805 107.641C172.05 107.219 172.149 106.765 172.102 106.279C172.062 105.803 171.85 105.298 171.467 104.765C171.138 104.309 170.773 103.972 170.372 103.756C169.98 103.533 169.572 103.437 169.147 103.468C168.731 103.493 168.329 103.646 167.939 103.927L164.981 99.8182C165.637 99.3457 166.369 99.0494 167.178 98.9292C167.987 98.809 168.824 98.878 169.688 99.1363C170.562 99.3878 171.415 99.8205 172.247 100.435C173.086 101.058 173.865 101.869 174.584 102.868C175.447 104.066 176.014 105.275 176.286 106.494C176.557 107.714 176.485 108.878 176.07 109.985C175.661 111.103 174.858 112.093 173.66 112.955L167.055 117.711C166.208 118.32 165.552 118.872 165.085 119.367C164.628 119.855 164.271 120.343 164.016 120.83L163.773 121.005L160.784 116.854C161.059 116.353 161.472 115.824 162.025 115.267C162.593 114.714 163.196 114.207 163.834 113.748ZM170.144 110.028L167.839 111.731L166.186 109.434C165.795 108.892 165.395 108.466 164.983 108.155C164.572 107.845 164.16 107.643 163.747 107.551C163.343 107.452 162.95 107.446 162.566 107.535C162.189 107.633 161.824 107.809 161.472 108.062C161.121 108.316 160.86 108.626 160.691 108.993C160.532 109.353 160.481 109.744 160.538 110.164C160.605 110.578 160.786 110.99 161.08 111.399C161.525 112.017 162.036 112.465 162.612 112.744C163.188 113.022 163.746 113.155 164.285 113.142C164.831 113.138 165.269 113.025 165.6 112.802L164.64 115.139C164.14 115.268 163.586 115.349 162.975 115.384C162.372 115.429 161.741 115.385 161.083 115.253C160.434 115.113 159.788 114.849 159.147 114.459C158.514 114.062 157.921 113.478 157.366 112.708C156.661 111.729 156.216 110.699 156.031 109.619C155.862 108.542 155.957 107.521 156.315 106.555C156.69 105.592 157.325 104.789 158.219 104.145C159.027 103.563 159.855 103.198 160.702 103.051C161.548 102.903 162.398 102.97 163.251 103.251C164.119 103.536 164.985 104.046 165.847 104.782C166.719 105.512 167.58 106.467 168.429 107.646L170.144 110.028Z" fill="#FF5F04"/>
<rect x="327.342" y="264.328" width="154" height="69" transform="rotate(54.247 327.342 264.328)" fill="black"/>
<path d="M284.33 295.296L288.721 297.351C300.465 302.847 310.608 311.257 318.184 321.779L347.823 362.946" stroke="white"/>
<path d="M285.953 294.127L290.344 296.182C302.088 301.678 312.231 310.088 319.807 320.611L349.446 361.778" stroke="white"/>
<path d="M315.654 298.406C316.017 298.91 316.434 299.288 316.905 299.541C317.385 299.787 317.88 299.893 318.389 299.859C318.915 299.827 319.424 299.641 319.916 299.301L322.699 303.167C321.608 303.938 320.434 304.343 319.177 304.382C317.929 304.414 316.717 304.124 315.54 303.513C314.373 302.894 313.362 301.991 312.506 300.802C311.643 299.604 311.09 298.414 310.845 297.232C310.608 296.06 310.629 294.926 310.908 293.83C311.197 292.727 311.706 291.689 312.435 290.716C313.174 289.737 314.085 288.857 315.17 288.076L315.583 287.778C316.677 286.991 317.801 286.405 318.954 286.022C320.118 285.632 321.264 285.479 322.392 285.562C323.53 285.638 324.617 285.975 325.653 286.571C326.689 287.168 327.635 288.061 328.491 289.25C329.402 290.515 329.957 291.797 330.157 293.098C330.363 294.407 330.21 295.658 329.697 296.851C329.2 298.046 328.341 299.09 327.121 299.983L324.338 296.117C324.845 295.738 325.232 295.293 325.5 294.782C325.774 294.281 325.895 293.747 325.862 293.179C325.844 292.614 325.634 292.051 325.23 291.489C324.799 290.89 324.318 290.493 323.787 290.297C323.266 290.095 322.711 290.047 322.123 290.152C321.544 290.251 320.949 290.457 320.335 290.768C319.738 291.082 319.14 291.455 318.541 291.887L318.128 292.184C317.528 292.616 316.98 293.068 316.484 293.541C315.987 294.014 315.6 294.51 315.322 295.027C315.052 295.554 314.93 296.097 314.957 296.655C314.983 297.213 315.216 297.797 315.654 298.406ZM328.587 315.195L335.462 310.244C335.957 309.888 336.322 309.503 336.557 309.088C336.802 308.666 336.902 308.212 336.855 307.726C336.815 307.249 336.603 306.745 336.22 306.212C335.891 305.755 335.526 305.419 335.125 305.203C334.733 304.979 334.325 304.883 333.9 304.915C333.484 304.94 333.082 305.092 332.692 305.373L329.734 301.265C330.39 300.792 331.122 300.496 331.931 300.376C332.74 300.255 333.577 300.325 334.441 300.583C335.315 300.834 336.168 301.267 337 301.881C337.839 302.505 338.618 303.316 339.337 304.314C340.2 305.512 340.767 306.721 341.038 307.941C341.31 309.161 341.238 310.324 340.823 311.432C340.414 312.549 339.611 313.539 338.412 314.402L331.808 319.157C330.961 319.767 330.305 320.319 329.838 320.814C329.381 321.302 329.024 321.79 328.768 322.277L328.526 322.451L325.537 318.3C325.812 317.799 326.225 317.27 326.778 316.714C327.346 316.16 327.949 315.654 328.587 315.195ZM334.897 311.475L332.592 313.177L330.939 310.881C330.548 310.339 330.148 309.912 329.736 309.602C329.325 309.291 328.913 309.09 328.5 308.998C328.096 308.898 327.703 308.893 327.319 308.982C326.942 309.08 326.577 309.255 326.225 309.509C325.874 309.762 325.613 310.072 325.444 310.439C325.285 310.8 325.234 311.19 325.291 311.611C325.358 312.025 325.539 312.436 325.833 312.845C326.278 313.463 326.789 313.912 327.365 314.19C327.941 314.469 328.498 314.601 329.038 314.588C329.584 314.585 330.022 314.472 330.353 314.248L329.393 316.586C328.893 316.714 328.338 316.796 327.728 316.831C327.125 316.875 326.494 316.831 325.836 316.699C325.187 316.56 324.541 316.295 323.899 315.905C323.267 315.509 322.674 314.925 322.119 314.155C321.414 313.175 320.969 312.146 320.783 311.066C320.615 309.989 320.71 308.968 321.068 308.002C321.443 307.039 322.078 306.235 322.972 305.592C323.78 305.009 324.608 304.645 325.455 304.497C326.301 304.35 327.151 304.416 328.003 304.698C328.872 304.982 329.738 305.493 330.6 306.229C331.472 306.959 332.333 307.913 333.182 309.092L334.897 311.475ZM345.391 320.424L333.322 329.113L330.364 325.005L345.8 313.892L348.583 317.758L345.391 320.424ZM352.206 322.579L348.345 325.25C348.23 325.03 348.079 324.77 347.893 324.471C347.723 324.175 347.556 323.912 347.391 323.684C346.974 323.104 346.535 322.655 346.074 322.336C345.631 322.021 345.163 321.823 344.672 321.743C344.189 321.673 343.691 321.713 343.179 321.865C342.674 322.026 342.154 322.286 341.617 322.643L341.278 321.631C342.276 320.912 343.266 320.351 344.247 319.948C345.237 319.539 346.183 319.298 347.084 319.227C347.993 319.165 348.82 319.291 349.567 319.606C350.313 319.92 350.946 320.439 351.467 321.162C351.631 321.39 351.78 321.637 351.913 321.902C352.056 322.16 352.153 322.386 352.206 322.579Z" fill="white"/>
<rect x="12.9956" y="257" width="154" height="69" transform="rotate(54.247 12.9956 257)" fill="black"/>
<path d="M-30.0164 287.967L-25.6249 290.023C-13.8808 295.519 -3.73825 303.928 3.838 314.451L33.4771 355.618" stroke="white"/>
<path d="M-28.3933 286.799L-24.0019 288.854C-12.2578 294.35 -2.1152 302.76 5.46105 313.283L35.1001 354.449" stroke="white"/>
<path d="M1.30769 291.077C1.67059 291.582 2.08751 291.96 2.55845 292.213C3.0389 292.459 3.53381 292.565 4.04317 292.53C4.56889 292.498 5.07769 292.313 5.56956 291.973L8.35294 295.839C7.26192 296.61 6.08779 297.015 4.83054 297.054C3.58281 297.085 2.37065 296.796 1.19406 296.184C0.0269806 295.566 -0.984507 294.663 -1.8404 293.474C-2.70315 292.276 -3.25662 291.086 -3.50082 289.904C-3.73818 288.732 -3.71724 287.598 -3.43801 286.502C-3.14926 285.399 -2.64026 284.361 -1.91101 283.388C-1.17224 282.408 -0.260772 281.528 0.823399 280.748L1.2371 280.45C2.33078 279.662 3.45451 279.077 4.60829 278.694C5.77158 278.304 6.91736 278.151 8.04565 278.234C9.18344 278.31 10.2705 278.646 11.3067 279.243C12.3429 279.84 13.2889 280.733 14.1448 281.922C15.0555 283.187 15.6107 284.469 15.8104 285.769C16.0169 287.079 15.8636 288.33 15.3504 289.523C14.8536 290.718 13.9952 291.762 12.7752 292.655L9.99184 288.789C10.4985 288.41 10.8858 287.965 11.1536 287.454C11.4283 286.953 11.5489 286.419 11.5154 285.851C11.4983 285.286 11.2878 284.722 10.8838 284.161C10.4524 283.562 9.97138 283.165 9.44072 282.969C8.91956 282.767 8.36493 282.719 7.77682 282.824C7.19822 282.923 6.60231 283.128 5.98909 283.44C5.39223 283.754 4.79422 284.127 4.19508 284.558L3.78138 284.856C3.18223 285.288 2.63425 285.74 2.13743 286.213C1.64061 286.686 1.25354 287.182 0.976216 287.699C0.705739 288.226 0.58381 288.768 0.61043 289.327C0.63705 289.885 0.869469 290.469 1.30769 291.077ZM14.2403 307.867L21.1162 302.916C21.6108 302.56 21.9758 302.175 22.2113 301.76C22.4562 301.338 22.5553 300.884 22.5086 300.398C22.4686 299.921 22.2569 299.416 21.8735 298.884C21.5448 298.427 21.1798 298.091 20.7785 297.874C20.3867 297.651 19.9783 297.555 19.5534 297.587C19.138 297.611 18.7353 297.764 18.3454 298.045L15.3874 293.936C16.0437 293.464 16.7761 293.168 17.5849 293.047C18.3936 292.927 19.2303 292.996 20.095 293.255C20.9692 293.506 21.8222 293.939 22.6542 294.553C23.4929 295.176 24.2718 295.987 24.9908 296.986C25.8535 298.184 26.4207 299.393 26.6923 300.613C26.9639 301.832 26.892 302.996 26.4765 304.104C26.068 305.221 25.2645 306.211 24.0662 307.074L17.4613 311.829C16.6149 312.439 15.9583 312.991 15.4916 313.486C15.0343 313.974 14.6779 314.461 14.4222 314.949L14.1797 315.123L11.1909 310.972C11.4656 310.471 11.8791 309.942 12.4315 309.386C13.0002 308.832 13.6031 308.326 14.2403 307.867ZM20.5507 304.146L18.246 305.849L16.5924 303.552C16.2021 303.01 15.8014 302.584 15.3902 302.274C14.979 301.963 14.5668 301.762 14.1537 301.669C13.7501 301.57 13.3563 301.565 12.9725 301.653C12.5955 301.751 12.2311 301.927 11.8792 302.181C11.5273 302.434 11.2669 302.744 11.098 303.111C10.9386 303.471 10.8877 303.862 10.9451 304.283C11.012 304.697 11.1927 305.108 11.4872 305.517C11.9322 306.135 12.4427 306.583 13.0186 306.862C13.5946 307.14 14.1523 307.273 14.6917 307.26C15.2379 307.257 15.6762 307.143 16.0064 306.92L15.0466 309.257C14.5471 309.386 13.9923 309.468 13.3821 309.503C12.7788 309.547 12.1479 309.503 11.4894 309.371C10.8404 309.232 10.195 308.967 9.55331 308.577C8.92108 308.18 8.32765 307.597 7.77303 306.826C7.06777 305.847 6.62252 304.817 6.43728 303.738C6.2684 302.661 6.36332 301.639 6.72206 300.674C7.09716 299.71 7.73169 298.907 8.62565 298.263C9.43403 297.681 10.2616 297.316 11.1084 297.169C11.9552 297.021 12.8048 297.088 13.6573 297.37C14.5262 297.654 15.3918 298.164 16.2541 298.901C17.126 299.63 17.9865 300.585 18.8355 301.764L20.5507 304.146ZM31.0447 313.096L18.9762 321.785L16.0182 317.677L31.4534 306.564L34.2367 310.43L31.0447 313.096ZM37.8595 315.251L33.9992 317.922C33.884 317.702 33.7332 317.442 33.5468 317.143C33.3767 316.847 33.2095 316.584 33.0452 316.356C32.6275 315.776 32.1885 315.327 31.7283 315.008C31.2843 314.692 30.817 314.495 30.3263 314.415C29.8424 314.344 29.3446 314.385 28.833 314.537C28.3282 314.698 27.8074 314.958 27.2706 315.315L26.9317 314.303C27.9303 313.584 28.9199 313.023 29.9006 312.62C30.8908 312.21 31.8367 311.97 32.7383 311.898C33.6467 311.836 34.4741 311.963 35.2204 312.277C35.9668 312.592 36.6002 313.111 37.1205 313.833C37.2849 314.062 37.4336 314.308 37.5667 314.573C37.7094 314.832 37.807 315.058 37.8595 315.251Z" fill="white"/>
</g>
<defs>
<clipPath id="clip0_471_87">
<rect width="416" height="297" rx="10" fill="white"/>
</clipPath>
</defs>
</svg>
