<svg width="38" height="38" viewBox="0 0 38 38" fill="none" xmlns="http://www.w3.org/2000/svg">
<g id="Layer_1" clip-path="url(#clip0_495_446)">
<g id="Group">
<path id="Vector" d="M18.8286 37.5142C29.0537 37.5142 37.3428 29.225 37.3428 18.9999C37.3428 8.77472 29.0537 0.485596 18.8286 0.485596C8.6034 0.485596 0.31427 8.77472 0.31427 18.9999C0.31427 29.225 8.6034 37.5142 18.8286 37.5142Z" fill="url(#paint0_linear_495_446)"/>
<g id="Group_2">
<path id="Vector_2" d="M27.8398 11.1386L24.5347 27.8087C24.5347 27.8087 24.0719 28.9658 22.799 28.409L15.1691 22.5582L12.392 21.2202L7.72001 19.6508C7.72001 19.6508 7.00403 19.3977 6.93171 18.8408C6.85938 18.284 7.7417 17.9874 7.7417 17.9874L26.3138 10.7047C26.3138 10.6974 27.8398 10.0249 27.8398 11.1386Z" fill="white"/>
<path id="Vector_3" d="M14.5761 27.6208C14.5761 27.6208 14.3519 27.5991 14.0771 26.724C13.8022 25.8489 12.392 21.2203 12.392 21.2203L23.609 14.0967C23.609 14.0967 24.2599 13.7061 24.231 14.0967C24.231 14.0967 24.3467 14.169 23.9996 14.4872C23.6524 14.8126 15.1908 22.4209 15.1908 22.4209" fill="#D2E4F0"/>
<path id="Vector_4" d="M18.0909 24.8002L15.0751 27.5556C15.0751 27.5556 14.8364 27.7364 14.5833 27.6207L15.1619 22.5076" fill="#B5CFE4"/>
</g>
</g>
</g>
<defs>
<linearGradient id="paint0_linear_495_446" x1="18.8286" y1="0.485596" x2="18.8286" y2="37.3791" gradientUnits="userSpaceOnUse">
<stop stop-color="#41BCE7"/>
<stop offset="1" stop-color="#22A6DC"/>
</linearGradient>
<clipPath id="clip0_495_446">
<rect width="37.0286" height="37.0286" fill="white" transform="translate(0.31427 0.485596)"/>
</clipPath>
</defs>
</svg>
