<svg width="386" height="27" viewBox="0 0 386 27" fill="none" xmlns="http://www.w3.org/2000/svg">
<rect x="14" width="4" height="10" fill="black"/>
<rect x="30" y="2" width="4" height="6" fill="black"/>
<rect x="46" y="2" width="4" height="6" fill="black"/>
<rect x="62" y="2" width="4" height="6" fill="black"/>
<rect x="78" y="2" width="4" height="6" fill="black"/>
<rect x="94" y="2" width="4" height="6" fill="black"/>
<rect x="110" y="2" width="4" height="6" fill="black"/>
<rect x="126" y="2" width="4" height="6" fill="black"/>
<rect x="142" y="2" width="4" height="6" fill="black"/>
<rect x="158" y="2" width="4" height="6" fill="black"/>
<rect x="174" width="4" height="10" fill="black"/>
<rect x="190" y="2" width="4" height="6" fill="black"/>
<rect x="206" y="2" width="4" height="6" fill="black"/>
<rect x="222" y="2" width="4" height="6" fill="black"/>
<rect x="238" y="2" width="4" height="6" fill="black"/>
<rect x="254" y="2" width="4" height="6" fill="black"/>
<rect x="270" y="2" width="4" height="6" fill="black"/>
<rect x="286" y="2" width="4" height="6" fill="black"/>
<rect x="302" y="2" width="4" height="6" fill="black"/>
<rect x="318" y="2" width="4" height="6" fill="black"/>
<rect x="334" width="4" height="10" fill="black"/>
<rect x="350" y="2" width="4" height="6" fill="black"/>
<rect x="366" y="2" width="4" height="6" fill="black"/>
<rect x="382" y="2" width="4" height="6" fill="black"/>
<path d="M7.46484 17.1367C7.46484 17.5423 7.38737 17.9251 7.23242 18.2852C7.07747 18.6406 6.86556 18.9528 6.59668 19.2217C6.33236 19.486 6.02246 19.6956 5.66699 19.8506C5.31152 20.0055 4.93099 20.083 4.52539 20.083H3.54102C3.4043 20.083 3.27669 20.1081 3.1582 20.1582C3.03971 20.2083 2.9349 20.279 2.84375 20.3701C2.75716 20.4567 2.6888 20.5592 2.63867 20.6777C2.58854 20.7962 2.56348 20.9238 2.56348 21.0605V22.0381H7.19824V24H0.601562V21.0605C0.601562 20.6549 0.679036 20.2744 0.833984 19.9189C0.988932 19.5589 1.19857 19.2467 1.46289 18.9824C1.73177 18.7135 2.04395 18.5039 2.39941 18.3535C2.75488 18.1986 3.13542 18.1211 3.54102 18.1211H4.52539C4.66211 18.1211 4.78971 18.096 4.9082 18.0459C5.02669 17.9958 5.12923 17.9274 5.21582 17.8408C5.30697 17.7497 5.3776 17.6449 5.42773 17.5264C5.47786 17.4033 5.50293 17.2734 5.50293 17.1367C5.50293 17 5.47786 16.8724 5.42773 16.7539C5.3776 16.6354 5.30697 16.5329 5.21582 16.4463C5.12923 16.3551 5.02669 16.2845 4.9082 16.2344C4.78971 16.1842 4.66211 16.1592 4.52539 16.1592H1.02539V14.1973H4.52539C4.93099 14.1973 5.31152 14.2747 5.66699 14.4297C6.02246 14.5846 6.33236 14.7965 6.59668 15.0654C6.86556 15.3298 7.07747 15.6396 7.23242 15.9951C7.38737 16.3506 7.46484 16.7311 7.46484 17.1367ZM14.5469 19.0986C14.5469 18.0094 14.3646 17.2005 14 16.6719C13.64 16.1432 13.1364 15.8789 12.4893 15.8789C11.8467 15.8789 11.3477 16.141 10.9922 16.665C10.6367 17.1891 10.459 18.0003 10.459 19.0986C10.459 20.1878 10.6367 20.9967 10.9922 21.5254C11.3477 22.054 11.8467 22.3184 12.4893 22.3184C12.8128 22.3184 13.1022 22.2546 13.3574 22.127C13.6126 21.9948 13.8268 21.7965 14 21.5322C14.1777 21.2679 14.3122 20.9352 14.4033 20.5342C14.499 20.1286 14.5469 19.6501 14.5469 19.0986ZM16.4131 19.0986C16.4131 20.0283 16.3105 20.8145 16.1055 21.457C15.9004 22.0996 15.6201 22.6191 15.2646 23.0156C14.9092 23.4121 14.4922 23.6992 14.0137 23.877C13.5397 24.0501 13.0316 24.1367 12.4893 24.1367C11.9469 24.1367 11.4365 24.0479 10.958 23.8701C10.484 23.6878 10.0693 23.3984 9.71387 23.002C9.36296 22.6009 9.08496 22.0814 8.87988 21.4434C8.6748 20.8008 8.57227 20.0192 8.57227 19.0986C8.57227 18.1689 8.6748 17.3851 8.87988 16.7471C9.08496 16.1045 9.36296 15.585 9.71387 15.1885C10.0693 14.792 10.484 14.5049 10.958 14.3271C11.4365 14.1494 11.9469 14.0605 12.4893 14.0605C13.0316 14.0605 13.5397 14.1517 14.0137 14.334C14.4922 14.5117 14.9092 14.8011 15.2646 15.2021C15.6201 15.6032 15.9004 16.1227 16.1055 16.7607C16.3105 17.3988 16.4131 18.1781 16.4131 19.0986ZM23.543 19.0986C23.543 18.0094 23.3607 17.2005 22.9961 16.6719C22.6361 16.1432 22.1325 15.8789 21.4854 15.8789C20.8428 15.8789 20.3438 16.141 19.9883 16.665C19.6328 17.1891 19.4551 18.0003 19.4551 19.0986C19.4551 20.1878 19.6328 20.9967 19.9883 21.5254C20.3438 22.054 20.8428 22.3184 21.4854 22.3184C21.8089 22.3184 22.0983 22.2546 22.3535 22.127C22.6087 21.9948 22.8229 21.7965 22.9961 21.5322C23.1738 21.2679 23.3083 20.9352 23.3994 20.5342C23.4951 20.1286 23.543 19.6501 23.543 19.0986ZM25.4092 19.0986C25.4092 20.0283 25.3066 20.8145 25.1016 21.457C24.8965 22.0996 24.6162 22.6191 24.2607 23.0156C23.9053 23.4121 23.4883 23.6992 23.0098 23.877C22.5358 24.0501 22.0277 24.1367 21.4854 24.1367C20.943 24.1367 20.4326 24.0479 19.9541 23.8701C19.4801 23.6878 19.0654 23.3984 18.71 23.002C18.359 22.6009 18.0811 22.0814 17.876 21.4434C17.6709 20.8008 17.5684 20.0192 17.5684 19.0986C17.5684 18.1689 17.6709 17.3851 17.876 16.7471C18.0811 16.1045 18.359 15.585 18.71 15.1885C19.0654 14.792 19.4801 14.5049 19.9541 14.3271C20.4326 14.1494 20.943 14.0605 21.4854 14.0605C22.0277 14.0605 22.5358 14.1517 23.0098 14.334C23.4883 14.5117 23.9053 14.8011 24.2607 15.2021C24.6162 15.6032 24.8965 16.1227 25.1016 16.7607C25.3066 17.3988 25.4092 18.1781 25.4092 19.0986ZM32.5391 19.0986C32.5391 18.0094 32.3568 17.2005 31.9922 16.6719C31.6322 16.1432 31.1286 15.8789 30.4814 15.8789C29.8389 15.8789 29.3398 16.141 28.9844 16.665C28.6289 17.1891 28.4512 18.0003 28.4512 19.0986C28.4512 20.1878 28.6289 20.9967 28.9844 21.5254C29.3398 22.054 29.8389 22.3184 30.4814 22.3184C30.805 22.3184 31.0944 22.2546 31.3496 22.127C31.6048 21.9948 31.819 21.7965 31.9922 21.5322C32.1699 21.2679 32.3044 20.9352 32.3955 20.5342C32.4912 20.1286 32.5391 19.6501 32.5391 19.0986ZM34.4053 19.0986C34.4053 20.0283 34.3027 20.8145 34.0977 21.457C33.8926 22.0996 33.6123 22.6191 33.2568 23.0156C32.9014 23.4121 32.4844 23.6992 32.0059 23.877C31.5319 24.0501 31.0238 24.1367 30.4814 24.1367C29.9391 24.1367 29.4287 24.0479 28.9502 23.8701C28.4762 23.6878 28.0615 23.3984 27.7061 23.002C27.3551 22.6009 27.0771 22.0814 26.8721 21.4434C26.667 20.8008 26.5645 20.0192 26.5645 19.0986C26.5645 18.1689 26.667 17.3851 26.8721 16.7471C27.0771 16.1045 27.3551 15.585 27.7061 15.1885C28.0615 14.792 28.4762 14.5049 28.9502 14.3271C29.4287 14.1494 29.9391 14.0605 30.4814 14.0605C31.0238 14.0605 31.5319 14.1517 32.0059 14.334C32.4844 14.5117 32.9014 14.8011 33.2568 15.2021C33.6123 15.6032 33.8926 16.1227 34.0977 16.7607C34.3027 17.3988 34.4053 18.1781 34.4053 19.0986Z" fill="black"/>
<path d="M167.465 17.1367C167.465 17.5423 167.387 17.9251 167.232 18.2852C167.077 18.6406 166.866 18.9528 166.597 19.2217C166.332 19.486 166.022 19.6956 165.667 19.8506C165.312 20.0055 164.931 20.083 164.525 20.083H163.541C163.404 20.083 163.277 20.1081 163.158 20.1582C163.04 20.2083 162.935 20.279 162.844 20.3701C162.757 20.4567 162.689 20.5592 162.639 20.6777C162.589 20.7962 162.563 20.9238 162.563 21.0605V22.0381H167.198V24H160.602V21.0605C160.602 20.6549 160.679 20.2744 160.834 19.9189C160.989 19.5589 161.199 19.2467 161.463 18.9824C161.732 18.7135 162.044 18.5039 162.399 18.3535C162.755 18.1986 163.135 18.1211 163.541 18.1211H164.525C164.662 18.1211 164.79 18.096 164.908 18.0459C165.027 17.9958 165.129 17.9274 165.216 17.8408C165.307 17.7497 165.378 17.6449 165.428 17.5264C165.478 17.4033 165.503 17.2734 165.503 17.1367C165.503 17 165.478 16.8724 165.428 16.7539C165.378 16.6354 165.307 16.5329 165.216 16.4463C165.129 16.3551 165.027 16.2845 164.908 16.2344C164.79 16.1842 164.662 16.1592 164.525 16.1592H161.025V14.1973H164.525C164.931 14.1973 165.312 14.2747 165.667 14.4297C166.022 14.5846 166.332 14.7965 166.597 15.0654C166.866 15.3298 167.077 15.6396 167.232 15.9951C167.387 16.3506 167.465 16.7311 167.465 17.1367ZM174.547 19.0986C174.547 18.0094 174.365 17.2005 174 16.6719C173.64 16.1432 173.136 15.8789 172.489 15.8789C171.847 15.8789 171.348 16.141 170.992 16.665C170.637 17.1891 170.459 18.0003 170.459 19.0986C170.459 20.1878 170.637 20.9967 170.992 21.5254C171.348 22.054 171.847 22.3184 172.489 22.3184C172.813 22.3184 173.102 22.2546 173.357 22.127C173.613 21.9948 173.827 21.7965 174 21.5322C174.178 21.2679 174.312 20.9352 174.403 20.5342C174.499 20.1286 174.547 19.6501 174.547 19.0986ZM176.413 19.0986C176.413 20.0283 176.311 20.8145 176.105 21.457C175.9 22.0996 175.62 22.6191 175.265 23.0156C174.909 23.4121 174.492 23.6992 174.014 23.877C173.54 24.0501 173.032 24.1367 172.489 24.1367C171.947 24.1367 171.437 24.0479 170.958 23.8701C170.484 23.6878 170.069 23.3984 169.714 23.002C169.363 22.6009 169.085 22.0814 168.88 21.4434C168.675 20.8008 168.572 20.0192 168.572 19.0986C168.572 18.1689 168.675 17.3851 168.88 16.7471C169.085 16.1045 169.363 15.585 169.714 15.1885C170.069 14.792 170.484 14.5049 170.958 14.3271C171.437 14.1494 171.947 14.0605 172.489 14.0605C173.032 14.0605 173.54 14.1517 174.014 14.334C174.492 14.5117 174.909 14.8011 175.265 15.2021C175.62 15.6032 175.9 16.1227 176.105 16.7607C176.311 17.3988 176.413 18.1781 176.413 19.0986ZM180.467 24H178.505V16.1592H177.527V14.1973H180.467V24ZM188 19.0986C188 18.0094 187.818 17.2005 187.453 16.6719C187.093 16.1432 186.59 15.8789 185.942 15.8789C185.3 15.8789 184.801 16.141 184.445 16.665C184.09 17.1891 183.912 18.0003 183.912 19.0986C183.912 20.1878 184.09 20.9967 184.445 21.5254C184.801 22.054 185.3 22.3184 185.942 22.3184C186.266 22.3184 186.555 22.2546 186.811 22.127C187.066 21.9948 187.28 21.7965 187.453 21.5322C187.631 21.2679 187.765 20.9352 187.856 20.5342C187.952 20.1286 188 19.6501 188 19.0986ZM189.866 19.0986C189.866 20.0283 189.764 20.8145 189.559 21.457C189.354 22.0996 189.073 22.6191 188.718 23.0156C188.362 23.4121 187.945 23.6992 187.467 23.877C186.993 24.0501 186.485 24.1367 185.942 24.1367C185.4 24.1367 184.89 24.0479 184.411 23.8701C183.937 23.6878 183.522 23.3984 183.167 23.002C182.816 22.6009 182.538 22.0814 182.333 21.4434C182.128 20.8008 182.025 20.0192 182.025 19.0986C182.025 18.1689 182.128 17.3851 182.333 16.7471C182.538 16.1045 182.816 15.585 183.167 15.1885C183.522 14.792 183.937 14.5049 184.411 14.3271C184.89 14.1494 185.4 14.0605 185.942 14.0605C186.485 14.0605 186.993 14.1517 187.467 14.334C187.945 14.5117 188.362 14.8011 188.718 15.2021C189.073 15.6032 189.354 16.1227 189.559 16.7607C189.764 17.3988 189.866 18.1781 189.866 19.0986Z" fill="black"/>
<path d="M327.465 17.1367C327.465 17.5423 327.387 17.9251 327.232 18.2852C327.077 18.6406 326.866 18.9528 326.597 19.2217C326.332 19.486 326.022 19.6956 325.667 19.8506C325.312 20.0055 324.931 20.083 324.525 20.083H323.541C323.404 20.083 323.277 20.1081 323.158 20.1582C323.04 20.2083 322.935 20.279 322.844 20.3701C322.757 20.4567 322.689 20.5592 322.639 20.6777C322.589 20.7962 322.563 20.9238 322.563 21.0605V22.0381H327.198V24H320.602V21.0605C320.602 20.6549 320.679 20.2744 320.834 19.9189C320.989 19.5589 321.199 19.2467 321.463 18.9824C321.732 18.7135 322.044 18.5039 322.399 18.3535C322.755 18.1986 323.135 18.1211 323.541 18.1211H324.525C324.662 18.1211 324.79 18.096 324.908 18.0459C325.027 17.9958 325.129 17.9274 325.216 17.8408C325.307 17.7497 325.378 17.6449 325.428 17.5264C325.478 17.4033 325.503 17.2734 325.503 17.1367C325.503 17 325.478 16.8724 325.428 16.7539C325.378 16.6354 325.307 16.5329 325.216 16.4463C325.129 16.3551 325.027 16.2845 324.908 16.2344C324.79 16.1842 324.662 16.1592 324.525 16.1592H321.025V14.1973H324.525C324.931 14.1973 325.312 14.2747 325.667 14.4297C326.022 14.5846 326.332 14.7965 326.597 15.0654C326.866 15.3298 327.077 15.6396 327.232 15.9951C327.387 16.3506 327.465 16.7311 327.465 17.1367ZM334.547 19.0986C334.547 18.0094 334.365 17.2005 334 16.6719C333.64 16.1432 333.136 15.8789 332.489 15.8789C331.847 15.8789 331.348 16.141 330.992 16.665C330.637 17.1891 330.459 18.0003 330.459 19.0986C330.459 20.1878 330.637 20.9967 330.992 21.5254C331.348 22.054 331.847 22.3184 332.489 22.3184C332.813 22.3184 333.102 22.2546 333.357 22.127C333.613 21.9948 333.827 21.7965 334 21.5322C334.178 21.2679 334.312 20.9352 334.403 20.5342C334.499 20.1286 334.547 19.6501 334.547 19.0986ZM336.413 19.0986C336.413 20.0283 336.311 20.8145 336.105 21.457C335.9 22.0996 335.62 22.6191 335.265 23.0156C334.909 23.4121 334.492 23.6992 334.014 23.877C333.54 24.0501 333.032 24.1367 332.489 24.1367C331.947 24.1367 331.437 24.0479 330.958 23.8701C330.484 23.6878 330.069 23.3984 329.714 23.002C329.363 22.6009 329.085 22.0814 328.88 21.4434C328.675 20.8008 328.572 20.0192 328.572 19.0986C328.572 18.1689 328.675 17.3851 328.88 16.7471C329.085 16.1045 329.363 15.585 329.714 15.1885C330.069 14.792 330.484 14.5049 330.958 14.3271C331.437 14.1494 331.947 14.0605 332.489 14.0605C333.032 14.0605 333.54 14.1517 334.014 14.334C334.492 14.5117 334.909 14.8011 335.265 15.2021C335.62 15.6032 335.9 16.1227 336.105 16.7607C336.311 17.3988 336.413 18.1781 336.413 19.0986ZM344.459 17.1367C344.459 17.5423 344.382 17.9251 344.227 18.2852C344.072 18.6406 343.86 18.9528 343.591 19.2217C343.326 19.486 343.017 19.6956 342.661 19.8506C342.306 20.0055 341.925 20.083 341.52 20.083H340.535C340.398 20.083 340.271 20.1081 340.152 20.1582C340.034 20.2083 339.929 20.279 339.838 20.3701C339.751 20.4567 339.683 20.5592 339.633 20.6777C339.583 20.7962 339.558 20.9238 339.558 21.0605V22.0381H344.192V24H337.596V21.0605C337.596 20.6549 337.673 20.2744 337.828 19.9189C337.983 19.5589 338.193 19.2467 338.457 18.9824C338.726 18.7135 339.038 18.5039 339.394 18.3535C339.749 18.1986 340.13 18.1211 340.535 18.1211H341.52C341.656 18.1211 341.784 18.096 341.902 18.0459C342.021 17.9958 342.123 17.9274 342.21 17.8408C342.301 17.7497 342.372 17.6449 342.422 17.5264C342.472 17.4033 342.497 17.2734 342.497 17.1367C342.497 17 342.472 16.8724 342.422 16.7539C342.372 16.6354 342.301 16.5329 342.21 16.4463C342.123 16.3551 342.021 16.2845 341.902 16.2344C341.784 16.1842 341.656 16.1592 341.52 16.1592H338.02V14.1973H341.52C341.925 14.1973 342.306 14.2747 342.661 14.4297C343.017 14.5846 343.326 14.7965 343.591 15.0654C343.86 15.3298 344.072 15.6396 344.227 15.9951C344.382 16.3506 344.459 16.7311 344.459 17.1367ZM351.541 19.0986C351.541 18.0094 351.359 17.2005 350.994 16.6719C350.634 16.1432 350.131 15.8789 349.483 15.8789C348.841 15.8789 348.342 16.141 347.986 16.665C347.631 17.1891 347.453 18.0003 347.453 19.0986C347.453 20.1878 347.631 20.9967 347.986 21.5254C348.342 22.054 348.841 22.3184 349.483 22.3184C349.807 22.3184 350.096 22.2546 350.352 22.127C350.607 21.9948 350.821 21.7965 350.994 21.5322C351.172 21.2679 351.306 20.9352 351.397 20.5342C351.493 20.1286 351.541 19.6501 351.541 19.0986ZM353.407 19.0986C353.407 20.0283 353.305 20.8145 353.1 21.457C352.895 22.0996 352.614 22.6191 352.259 23.0156C351.903 23.4121 351.486 23.6992 351.008 23.877C350.534 24.0501 350.026 24.1367 349.483 24.1367C348.941 24.1367 348.431 24.0479 347.952 23.8701C347.478 23.6878 347.063 23.3984 346.708 23.002C346.357 22.6009 346.079 22.0814 345.874 21.4434C345.669 20.8008 345.566 20.0192 345.566 19.0986C345.566 18.1689 345.669 17.3851 345.874 16.7471C346.079 16.1045 346.357 15.585 346.708 15.1885C347.063 14.792 347.478 14.5049 347.952 14.3271C348.431 14.1494 348.941 14.0605 349.483 14.0605C350.026 14.0605 350.534 14.1517 351.008 14.334C351.486 14.5117 351.903 14.8011 352.259 15.2021C352.614 15.6032 352.895 16.1227 353.1 16.7607C353.305 17.3988 353.407 18.1781 353.407 19.0986Z" fill="black"/>
</svg>
