<svg width="48" height="48" viewBox="0 0 48 48" fill="none" xmlns="http://www.w3.org/2000/svg">
<g id="Frame">
<g id="_x33_95-youtube">
<g id="Group">
<path id="Vector" d="M44.6613 13.5832C44.1653 11.7158 42.704 10.2449 40.8485 9.74571C37.4855 8.83887 24 8.83887 24 8.83887C24 8.83887 10.5146 8.83887 7.15137 9.7458C5.29597 10.245 3.83468 11.7158 3.33875 13.5833C2.43762 16.9681 2.43762 24.0306 2.43762 24.0306C2.43762 24.0306 2.43762 31.0931 3.33875 34.4779C3.83468 36.3454 5.29597 37.7549 7.15137 38.2542C10.5146 39.1611 24 39.1611 24 39.1611C24 39.1611 37.4855 39.1611 40.8485 38.2541C42.704 37.7548 44.1653 36.3453 44.6613 34.4778C45.5624 31.0931 45.5624 24.0305 45.5624 24.0305C45.5624 24.0305 45.5624 16.9681 44.6613 13.5832Z" fill="#FF0000"/>
<path id="Vector_2" d="M19.5895 30.4428V17.6184L30.8607 24.0307L19.5895 30.4428Z" fill="white"/>
</g>
</g>
</g>
</svg>
